<svg width="1280" height="338" viewBox="0 0 1280 338" fill="none" xmlns="http://www.w3.org/2000/svg">
<g clip-path="url(#clip0_1267_208)">
<rect width="1280" height="338" fill="#705295" fill-opacity="0.1"/>
<path d="M1341 309C1341 401.784 1265.78 477 1173 477C1080.22 477 1005 401.784 1005 309C1005 216.216 1080.22 141 1173 141C1265.78 141 1341 216.216 1341 309ZM1059.7 309C1059.7 371.574 1110.43 422.3 1173 422.3C1235.57 422.3 1286.3 371.574 1286.3 309C1286.3 246.426 1235.57 195.7 1173 195.7C1110.43 195.7 1059.7 246.426 1059.7 309Z" fill="#FFE9DF"/>
<path d="M1201 209C1201 301.784 1125.78 377 1033 377C940.216 377 865 301.784 865 209C865 116.216 940.216 41 1033 41C1125.78 41 1201 116.216 1201 209ZM919.7 209C919.7 271.574 970.426 322.3 1033 322.3C1095.57 322.3 1146.3 271.574 1146.3 209C1146.3 146.426 1095.57 95.7001 1033 95.7001C970.426 95.7001 919.7 146.426 919.7 209Z" fill="#C6BAD5"/>
<path d="M246 297C246 389.784 170.784 465 78 465C-14.7838 465 -90 389.784 -90 297C-90 204.216 -14.7838 129 78 129C170.784 129 246 204.216 246 297ZM-35.2999 297C-35.2999 359.574 15.4262 410.3 78 410.3C140.574 410.3 191.3 359.574 191.3 297C191.3 234.426 140.574 183.7 78 183.7C15.4262 183.7 -35.2999 234.426 -35.2999 297Z" fill="#E2D8E3"/>
</g>
<defs>
<clipPath id="clip0_1267_208">
<rect width="1280" height="338" fill="white"/>
</clipPath>
</defs>
</svg>
