<svg width="20" height="14" viewBox="0 0 20 14" fill="none" xmlns="http://www.w3.org/2000/svg">
<path fill-rule="evenodd" clip-rule="evenodd" d="M6.75001 0.247106C7.68955 0.247106 8.60617 0.541012 9.37013 1.08793C10.134 1.63484 10.7079 2.40754 11.0108 3.29691C11.3135 4.18623 11.3301 5.14853 11.0586 6.04789C10.7871 6.94721 10.2404 7.73929 9.4961 8.31254C11.4292 9.13004 12.9525 10.7772 13.4766 12.8125C13.5051 12.9233 13.5085 13.0393 13.4854 13.1514C13.4622 13.2634 13.4138 13.3686 13.3438 13.459C13.2737 13.5494 13.1837 13.6225 13.0811 13.6729C12.9782 13.7233 12.8645 13.7501 12.75 13.75H0.750011C0.635649 13.75 0.522637 13.7232 0.419933 13.6729C0.317219 13.6225 0.227315 13.5494 0.157237 13.459C0.087182 13.3686 0.0387761 13.2634 0.0156356 13.1514C-0.00745282 13.0394 -0.0050715 12.9233 0.0234481 12.8125C0.547511 10.7782 2.07177 9.13097 4.00489 8.31254C3.26065 7.7393 2.71394 6.94719 2.44239 6.04789C2.17092 5.14851 2.18751 4.18625 2.49025 3.29691C2.79306 2.4075 3.36691 1.63484 4.13087 1.08793C4.89471 0.541107 5.81062 0.247188 6.75001 0.247106ZM12.3516 0.628942C13.664 -0.462502 14.8416 0.0966617 15.8799 0.58988C16.8802 1.06522 17.7479 1.47586 18.7676 0.628942C18.8097 0.593862 18.8618 0.571217 18.917 0.563513C18.9721 0.555853 19.0284 0.562941 19.0791 0.584997C19.1298 0.607045 19.1728 0.642774 19.2031 0.687536C19.2335 0.732467 19.2497 0.785347 19.25 0.838903V5.0391C19.2498 5.07884 19.2409 5.11821 19.2236 5.15433C19.2063 5.19055 19.1808 5.22295 19.1494 5.24906C18.5924 5.71215 18.0596 5.87992 17.5518 5.87992C16.8626 5.8798 16.2189 5.57386 15.6201 5.29008C14.6523 4.82981 13.8106 4.43059 12.834 5.17093V6.71976C12.834 6.79398 12.8027 6.86552 12.7481 6.918C12.6934 6.97034 12.6192 7.00004 12.542 7.00004C12.4648 7.00002 12.3906 6.97036 12.3359 6.918C12.2813 6.86552 12.2501 6.79398 12.25 6.71976V0.838903C12.2503 0.79913 12.26 0.759799 12.2774 0.723669C12.2948 0.687454 12.3201 0.655021 12.3516 0.628942Z" fill="#705295"/>
</svg>
