<svg width="68" height="68" viewBox="0 0 68 68" fill="none" xmlns="http://www.w3.org/2000/svg">
<g clip-path="url(#clip0_766_6211)">
<path d="M10.0974 57.5143C10.0974 57.5143 2.30128 57.4478 0.522565 58.7055C-1.25615 59.9631 3.41605 61.4754 8.52024 63.206C13.6244 64.9366 14.716 67.697 20.0492 67.8394C25.381 67.9802 32.4509 67.8394 41.0299 67.8394C49.6089 67.8394 59.2128 68.5465 61.4945 66.9899C63.7777 65.4333 68.028 64.7484 67.0365 62.7567C66.0449 60.7651 66.3638 59.449 54.7276 58.764C43.0913 58.0759 10.0974 57.5143 10.0974 57.5143Z" fill="#CED4DD"/>
<path d="M27.2941 61.1785C27.2941 61.1785 21.6412 57.1255 20.0874 51.2836C18.5351 45.4416 21.1741 34.6029 20.0874 30.5499C20.0874 30.5499 23.6494 37.0449 24.9649 42.0194C26.2789 46.9954 27.6675 55.4843 27.2941 61.1785Z" fill="#FFE9D9"/>
<path d="M27.4143 60.9715C27.1585 60.846 26.9154 60.6935 26.6755 60.5409C26.0066 60.1151 25.4156 59.6671 24.8198 59.1603C23.9079 58.385 23.0642 57.5302 22.2905 56.6182C21.2832 55.4298 20.3998 54.1397 19.6356 52.7829C18.6903 51.1051 17.934 49.3289 17.3494 47.4954C16.6169 45.198 16.1991 42.8165 15.7336 40.4555C15.3459 38.495 14.9709 36.5312 14.6182 34.5627C14.3863 33.271 14.1638 31.9793 13.9605 30.6829C13.8938 30.2539 13.8286 29.8265 13.7667 29.396C13.7428 29.2323 13.7206 29.0671 13.6983 28.9035C13.6952 28.8812 13.6824 28.7907 13.6872 28.8177C13.6904 28.8447 13.6793 28.7525 13.6761 28.7303C13.6681 28.6667 13.6602 28.6048 13.6523 28.5412C13.6189 28.2775 13.6189 27.9867 13.5585 27.7262C13.5569 27.7166 13.5569 27.7071 13.5553 27.6976C13.4203 27.7532 13.2837 27.8104 13.1486 27.866C13.2646 28.001 13.3774 28.1393 13.4902 28.2775C13.8223 28.6858 14.1035 29.0496 14.4022 29.4436C15.4968 30.891 16.5248 32.3893 17.4971 33.9224C18.908 36.1499 20.1996 38.4568 21.3531 40.8273C22.7322 43.6601 23.9158 46.5898 24.85 49.6006C25.8859 52.9322 26.6183 56.364 26.9472 59.8403C26.9901 60.2851 27.0251 60.7316 27.0537 61.1765C27.0743 61.4815 27.5509 61.4831 27.5303 61.1765C27.2983 57.6271 26.6517 54.1127 25.673 50.6952C24.7833 47.586 23.6235 44.5562 22.2571 41.6249C21.1052 39.1527 19.8024 36.7489 18.3709 34.4261C17.3478 32.7658 16.2579 31.1436 15.0933 29.5787C14.7374 29.1005 14.3752 28.6286 14.0034 28.1631C13.8413 27.9597 13.684 27.7421 13.5045 27.5546C13.4966 27.5466 13.4886 27.5371 13.4823 27.5276C13.352 27.3766 13.0596 27.4942 13.0755 27.696C13.0898 27.8771 13.1121 28.0582 13.1343 28.2393C13.209 28.8669 13.2995 29.4945 13.3933 30.1205C13.5665 31.2739 13.7587 32.4242 13.9589 33.5729C14.2751 35.3873 14.6135 37.1985 14.9646 39.0081C15.1918 40.1838 15.4253 41.3595 15.6621 42.5336C15.9083 43.7554 16.1451 44.9788 16.4676 46.1815C16.9966 48.1595 17.7148 50.0899 18.6347 51.9186C19.3814 53.4025 20.268 54.8165 21.2848 56.1305C22.0776 57.1537 22.9514 58.1149 23.9063 58.9903C24.5783 59.6067 25.2917 60.1819 26.0464 60.6966C26.3927 60.9334 26.7486 61.1669 27.122 61.356C27.1379 61.3639 27.1553 61.3735 27.1712 61.3814C27.4477 61.518 27.6892 61.1065 27.4143 60.9715Z" fill="#E2D8E3"/>
<path d="M45.8891 61.9911C45.8891 61.9911 43.4631 62.5679 42.6226 58.7167C41.7821 54.8654 45.8049 54.3237 46.8837 56.1889C46.8837 56.1889 44.0604 49.4 48.1865 48.1751C52.3126 46.9501 53.2706 50.9697 53.2706 50.9697C53.2706 50.9697 54.5877 45.1389 58.52 45.8538C62.4522 46.5688 60.1755 52.3091 60.1755 52.3091C60.1755 52.3091 64.6384 49.6383 65.8284 52.6268C67.02 55.6169 63.8376 58.0462 63.8376 58.0462C63.8376 58.0462 66.9723 57.0659 67.244 60.0671C67.5157 63.0683 49.9993 63.2256 45.8891 61.9911Z" fill="#E2D8E3"/>
<path d="M53.1318 61.3513C53.0905 61.2734 53.0539 61.194 53.0158 61.1145C52.8935 60.8524 52.8347 60.7126 52.7346 60.46C52.3994 59.6179 52.1277 58.7488 51.9068 57.8687C51.1569 54.8881 50.9996 51.7677 51.3762 48.7204C51.632 46.6423 52.1499 44.5959 52.8728 42.6338C53.5957 40.6716 54.4314 38.7444 55.2735 36.8316C56.3205 34.4516 57.4247 32.0874 58.6941 29.8171C59.1167 29.0608 59.5584 28.3157 60.0589 27.6087C60.0748 27.5864 60.1113 27.5419 60.0398 27.6325C59.9064 27.5975 59.7745 27.5626 59.641 27.5276C59.6919 27.7644 59.7348 28.0043 59.7793 28.2426C59.9 28.9019 60.0096 29.5644 60.1081 30.2286C60.2559 31.2168 60.3782 32.1716 60.4879 33.1789C60.6229 34.423 60.7262 35.6686 60.7977 36.9173C60.8771 38.3266 60.9152 39.7374 60.8994 41.1499C60.8835 42.6497 60.8104 44.1495 60.661 45.6414C60.5117 47.1316 60.2845 48.614 59.9524 50.0741C59.6283 51.4992 59.2041 52.9085 58.6369 54.2558C58.0951 55.5443 57.4151 56.7819 56.5763 57.9004C55.7644 58.984 54.7841 59.9515 53.6704 60.7221C53.3892 60.9159 53.1 61.0987 52.8029 61.2687C52.5376 61.4212 52.7775 61.8343 53.0428 61.6801C54.2566 60.9827 55.3465 60.0802 56.2696 59.0285C57.2023 57.9656 57.9712 56.766 58.5924 55.4966C59.2375 54.1795 59.7348 52.7909 60.1193 51.3753C60.518 49.9088 60.7945 48.4122 60.9915 46.906C61.1885 45.4015 61.3013 43.8873 61.349 42.3716C61.3966 40.9115 61.3839 39.4499 61.3251 37.9914C61.2711 36.6806 61.1806 35.3715 61.0535 34.0655C60.9486 32.974 60.8183 31.8841 60.6674 30.7973C60.5609 30.0347 60.4418 29.2737 60.3083 28.5143C60.2464 28.16 60.1955 27.7961 60.1081 27.4466C60.105 27.4307 60.1018 27.4164 60.0986 27.4005C60.0637 27.2385 59.8094 27.1543 59.6998 27.2957C59.2645 27.8565 58.9054 28.4841 58.5527 29.0973C57.3532 31.1739 56.3157 33.3458 55.3307 35.5319C54.5093 37.3543 53.7323 39.1972 52.9824 41.0498C52.1594 43.085 51.4842 45.1552 51.1029 47.3223C50.5325 50.5682 50.5595 53.9173 51.2443 57.1442C51.4604 58.1594 51.74 59.1619 52.0959 60.1358C52.2691 60.6077 52.447 61.0907 52.6837 61.5356C52.6933 61.5546 52.7028 61.5753 52.7139 61.5944C52.8633 61.8629 53.2748 61.623 53.1318 61.3513Z" fill="#FFE9D9"/>
<path d="M52.9225 58.6473C52.9225 60.0598 51.777 61.2069 50.363 61.2069H29.5372C28.1247 61.2069 26.9792 60.0614 26.9792 58.6473V8.86117C26.9792 7.44874 28.1247 6.30322 29.5372 6.30322H32.8339V6.93079C32.8339 7.86977 33.5949 8.63238 34.5355 8.63238H45.3027C46.2417 8.63238 47.0043 7.87135 47.0043 6.93079V6.30322H50.3645C51.777 6.30322 52.9241 7.44874 52.9241 8.86117V58.6473H52.9225Z" fill="white"/>
<path d="M54.5985 18.2337H54.3411V9.7019C54.3411 7.01209 52.1597 4.83069 49.4699 4.83069H30.4045C27.7147 4.83069 25.5333 7.01209 25.5333 9.7019V16.8657C25.511 16.8626 25.4888 16.8594 25.4666 16.8594C25.2266 16.8594 25.0328 17.0532 25.0328 17.2931V20.4993C25.0328 20.7392 25.2266 20.933 25.4666 20.933C25.4888 20.933 25.511 20.9298 25.5333 20.9267V22.1119C25.511 22.1087 25.4888 22.1055 25.4666 22.1055C25.2266 22.1055 25.0328 22.2994 25.0328 22.5393V25.7455C25.0328 25.9854 25.2266 26.1792 25.4666 26.1792C25.4888 26.1792 25.511 26.176 25.5333 26.1728V58.0391C25.5333 60.7289 27.7147 62.9103 30.4045 62.9103H49.4683C52.1581 62.9103 54.3395 60.7289 54.3395 58.0391V24.9908H54.5969C54.7494 24.9908 54.8718 24.8669 54.8718 24.7159V18.5101C54.8734 18.3576 54.751 18.2337 54.5985 18.2337ZM52.9239 58.6476C52.9239 60.06 51.7784 61.2071 50.366 61.2071H29.5386C28.1262 61.2071 26.9807 60.0616 26.9807 58.6476V8.86144C26.9807 7.44901 28.1262 6.30349 29.5386 6.30349H32.8353V6.93106C32.8353 7.87003 33.5964 8.63265 34.5369 8.63265H45.3041C46.2431 8.63265 47.0057 7.87162 47.0057 6.93106V6.30349H50.366C51.7784 6.30349 52.9239 7.44901 52.9239 8.86144V58.6476Z" fill="#0A1E25"/>
<path d="M30.4207 14.1969H30.6685V15.5315H30.4207V14.1969ZM29.7305 15.5315H29.4827V14.1969H29.7305V15.5315ZM30.4397 14.9595H29.7095V14.7479H30.4397V14.9595ZM31.4608 15.5448C31.3566 15.5448 31.2638 15.5226 31.1825 15.4781C31.1011 15.4324 31.0369 15.3701 30.9899 15.2913C30.9429 15.2125 30.9194 15.1229 30.9194 15.0224C30.9194 14.9208 30.9429 14.8312 30.9899 14.7536C31.0369 14.6748 31.1011 14.6132 31.1825 14.5687C31.2638 14.5242 31.3566 14.502 31.4608 14.502C31.5663 14.502 31.6597 14.5242 31.7411 14.5687C31.8237 14.6132 31.8879 14.6742 31.9337 14.7517C31.9807 14.8293 32.0042 14.9195 32.0042 15.0224C32.0042 15.1229 31.9807 15.2125 31.9337 15.2913C31.8879 15.3701 31.8237 15.4324 31.7411 15.4781C31.6597 15.5226 31.5663 15.5448 31.4608 15.5448ZM31.4608 15.3408C31.5193 15.3408 31.5714 15.3281 31.6172 15.3027C31.6629 15.2773 31.6985 15.2404 31.7239 15.1921C31.7506 15.1438 31.764 15.0873 31.764 15.0224C31.764 14.9564 31.7506 14.8998 31.7239 14.8528C31.6985 14.8045 31.6629 14.7676 31.6172 14.7422C31.5714 14.7168 31.5199 14.7041 31.4627 14.7041C31.4043 14.7041 31.3522 14.7168 31.3064 14.7422C31.2619 14.7676 31.2263 14.8045 31.1996 14.8528C31.1729 14.8998 31.1596 14.9564 31.1596 15.0224C31.1596 15.0873 31.1729 15.1438 31.1996 15.1921C31.2263 15.2404 31.2619 15.2773 31.3064 15.3027C31.3522 15.3281 31.4036 15.3408 31.4608 15.3408ZM32.663 15.5448C32.5765 15.5448 32.5003 15.529 32.4342 15.4972C32.3681 15.4641 32.3166 15.4146 32.2797 15.3485C32.2429 15.2811 32.2245 15.1966 32.2245 15.0949V14.5134H32.4628V15.0625C32.4628 15.154 32.4831 15.2226 32.5238 15.2684C32.5657 15.3129 32.6248 15.3351 32.7011 15.3351C32.757 15.3351 32.8053 15.3237 32.846 15.3008C32.8879 15.2779 32.9203 15.2436 32.9432 15.1978C32.9674 15.1521 32.9795 15.0955 32.9795 15.0282V14.5134H33.2178V15.5315H32.9909V15.257L33.0309 15.3408C32.9966 15.4069 32.9464 15.4578 32.8803 15.4934C32.8142 15.5277 32.7418 15.5448 32.663 15.5448ZM33.5298 15.5315V14.5134H33.7567V14.7937L33.73 14.7117C33.7605 14.643 33.8082 14.5909 33.873 14.5553C33.9391 14.5198 34.0211 14.502 34.1189 14.502V14.7288C34.1088 14.7263 34.0992 14.725 34.0903 14.725C34.0814 14.7238 34.0725 14.7231 34.0636 14.7231C33.9734 14.7231 33.9016 14.7498 33.8482 14.8032C33.7948 14.8553 33.7681 14.9335 33.7681 15.0377V15.5315H33.5298Z" fill="#0A1E25"/>
<path d="M29.6905 26.526C29.6053 26.526 29.5265 26.5095 29.4541 26.4765C29.3829 26.4434 29.3244 26.3957 29.2787 26.3335L29.4198 26.1638C29.4566 26.2146 29.4966 26.2528 29.5399 26.2782C29.5843 26.3036 29.6326 26.3163 29.6848 26.3163C29.8233 26.3163 29.8926 26.2343 29.8926 26.0704V25.3802H29.4178V25.1724H30.1404V26.057C30.1404 26.2146 30.1017 26.3322 30.0241 26.4097C29.9479 26.4873 29.8366 26.526 29.6905 26.526ZM30.2714 26.507L30.872 25.1724H31.116L31.7185 26.507H31.4592L30.9425 25.3039H31.0416L30.5269 26.507H30.2714ZM30.5478 26.1981L30.6146 26.0036H31.3352L31.402 26.1981H30.5478ZM31.8882 26.507V25.1724H32.0922L32.9292 26.2H32.8281V25.1724H33.0741V26.507H32.8701L32.0331 25.4793H32.1341V26.507H31.8882Z" fill="#0A1E25"/>
<path d="M34.1651 19.7348H30.0629C29.6435 19.7348 29.3035 19.3948 29.3035 18.9754V17.7488C29.3035 17.3294 29.6435 16.9894 30.0629 16.9894H34.1651C34.5846 16.9894 34.9246 17.3294 34.9246 17.7488V18.9754C34.9246 19.3948 34.5846 19.7348 34.1651 19.7348Z" fill="#C6BAD5"/>
<path d="M31.2974 28.6933H29.5894C29.4305 28.6933 29.3034 28.5646 29.3034 28.4073V28.0753C29.3034 27.9164 29.4321 27.7893 29.5894 27.7893H31.2974C31.4562 27.7893 31.5834 27.918 31.5834 28.0753V28.4073C31.5834 28.5646 31.4562 28.6933 31.2974 28.6933Z" fill="#C6BAD5"/>
<path d="M34.4253 28.6933H32.7174C32.5585 28.6933 32.4314 28.5646 32.4314 28.4073V28.0753C32.4314 27.9164 32.5601 27.7893 32.7174 27.7893H34.4253C34.5842 27.7893 34.7113 27.918 34.7113 28.0753V28.4073C34.7113 28.5646 34.5826 28.6933 34.4253 28.6933Z" fill="#C6BAD5"/>
<path d="M37.5533 28.6933H35.8454C35.6865 28.6933 35.5594 28.5646 35.5594 28.4073V28.0753C35.5594 27.9164 35.6881 27.7893 35.8454 27.7893H37.5533C37.7122 27.7893 37.8393 27.918 37.8393 28.0753V28.4073C37.8409 28.5646 37.7122 28.6933 37.5533 28.6933Z" fill="#C6BAD5"/>
<path d="M40.6813 28.6933H38.9733C38.8145 28.6933 38.6874 28.5646 38.6874 28.4073V28.0753C38.6874 27.9164 38.816 27.7893 38.9733 27.7893H40.6813C40.8402 27.7893 40.9673 27.918 40.9673 28.0753V28.4073C40.9673 28.5646 40.8402 28.6933 40.6813 28.6933Z" fill="#C6BAD5"/>
<path d="M43.8092 28.6933H42.1013C41.9424 28.6933 41.8153 28.5646 41.8153 28.4073V28.0753C41.8153 27.9164 41.944 27.7893 42.1013 27.7893H43.8092C43.9681 27.7893 44.0952 27.918 44.0952 28.0753V28.4073C44.0952 28.5646 43.9665 28.6933 43.8092 28.6933Z" fill="#C6BAD5"/>
<path d="M46.9371 28.6933H45.2292C45.0703 28.6933 44.9432 28.5646 44.9432 28.4073V28.0753C44.9432 27.9164 45.0719 27.7893 45.2292 27.7893H46.9371C47.096 27.7893 47.2231 27.918 47.2231 28.0753V28.4073C47.2247 28.5646 47.096 28.6933 46.9371 28.6933Z" fill="#C6BAD5"/>
<path d="M50.0652 28.6933H48.3572C48.1984 28.6933 48.0713 28.5646 48.0713 28.4073V28.0753C48.0713 27.9164 48.2 27.7893 48.3572 27.7893H50.0652C50.2241 27.7893 50.3512 27.918 50.3512 28.0753V28.4073C50.3528 28.5646 50.2241 28.6933 50.0652 28.6933Z" fill="#C6BAD5"/>
<path d="M34.4253 31.1093H32.7174C32.5585 31.1093 32.4314 30.9806 32.4314 30.8234V30.4913C32.4314 30.3324 32.5601 30.2053 32.7174 30.2053H34.4253C34.5842 30.2053 34.7113 30.334 34.7113 30.4913V30.8234C34.7113 30.9806 34.5826 31.1093 34.4253 31.1093Z" fill="#DFE6EF"/>
<path d="M37.5533 31.1093H35.8454C35.6865 31.1093 35.5594 30.9806 35.5594 30.8234V30.4913C35.5594 30.3324 35.6881 30.2053 35.8454 30.2053H37.5533C37.7122 30.2053 37.8393 30.334 37.8393 30.4913V30.8234C37.8409 30.9806 37.7122 31.1093 37.5533 31.1093Z" fill="#DFE6EF"/>
<path d="M40.6813 31.1093H38.9733C38.8145 31.1093 38.6874 30.9806 38.6874 30.8234V30.4913C38.6874 30.3324 38.816 30.2053 38.9733 30.2053H40.6813C40.8402 30.2053 40.9673 30.334 40.9673 30.4913V30.8234C40.9673 30.9806 40.8402 31.1093 40.6813 31.1093Z" fill="#DFE6EF"/>
<path d="M43.8092 31.1093H42.1013C41.9424 31.1093 41.8153 30.9806 41.8153 30.8234V30.4913C41.8153 30.3324 41.944 30.2053 42.1013 30.2053H43.8092C43.9681 30.2053 44.0952 30.334 44.0952 30.4913V30.8234C44.0952 30.9806 43.9665 31.1093 43.8092 31.1093Z" fill="#DFE6EF"/>
<path d="M46.9371 31.1093H45.2292C45.0703 31.1093 44.9432 30.9806 44.9432 30.8234V30.4913C44.9432 30.3324 45.0719 30.2053 45.2292 30.2053H46.9371C47.096 30.2053 47.2231 30.334 47.2231 30.4913V30.8234C47.2247 30.9806 47.096 31.1093 46.9371 31.1093Z" fill="#DFE6EF"/>
<path d="M50.0652 31.1093H48.3572C48.1984 31.1093 48.0713 30.9806 48.0713 30.8234V30.4913C48.0713 30.3324 48.2 30.2053 48.3572 30.2053H50.0652C50.2241 30.2053 50.3512 30.334 50.3512 30.4913V30.8234C50.3528 30.9806 50.2241 31.1093 50.0652 31.1093Z" fill="#DFE6EF"/>
<path d="M34.4253 33.5234H32.7174C32.5585 33.5234 32.4314 33.3947 32.4314 33.2374V32.9054C32.4314 32.7465 32.5601 32.6194 32.7174 32.6194H34.4253C34.5842 32.6194 34.7113 32.7481 34.7113 32.9054V33.2374C34.7113 33.3947 34.5826 33.5234 34.4253 33.5234Z" fill="#DFE6EF"/>
<path d="M31.2974 33.5234H29.5894C29.4305 33.5234 29.3034 33.3947 29.3034 33.2374V32.9054C29.3034 32.7465 29.4321 32.6194 29.5894 32.6194H31.2974C31.4562 32.6194 31.5834 32.7481 31.5834 32.9054V33.2374C31.5834 33.3947 31.4562 33.5234 31.2974 33.5234Z" fill="#DFE6EF"/>
<path d="M37.5533 33.5234H35.8454C35.6865 33.5234 35.5594 33.3947 35.5594 33.2374V32.9054C35.5594 32.7465 35.6881 32.6194 35.8454 32.6194H37.5533C37.7122 32.6194 37.8393 32.7481 37.8393 32.9054V33.2374C37.8409 33.3947 37.7122 33.5234 37.5533 33.5234Z" fill="#DFE6EF"/>
<path d="M40.6813 33.5234H38.9733C38.8145 33.5234 38.6874 33.3947 38.6874 33.2374V32.9054C38.6874 32.7465 38.816 32.6194 38.9733 32.6194H40.6813C40.8402 32.6194 40.9673 32.7481 40.9673 32.9054V33.2374C40.9673 33.3947 40.8402 33.5234 40.6813 33.5234Z" fill="#DFE6EF"/>
<path d="M43.8092 33.5234H42.1013C41.9424 33.5234 41.8153 33.3947 41.8153 33.2374V32.9054C41.8153 32.7465 41.944 32.6194 42.1013 32.6194H43.8092C43.9681 32.6194 44.0952 32.7481 44.0952 32.9054V33.2374C44.0952 33.3947 43.9665 33.5234 43.8092 33.5234Z" fill="#DFE6EF"/>
<path d="M46.9371 33.5234H45.2292C45.0703 33.5234 44.9432 33.3947 44.9432 33.2374V32.9054C44.9432 32.7465 45.0719 32.6194 45.2292 32.6194H46.9371C47.096 32.6194 47.2231 32.7481 47.2231 32.9054V33.2374C47.2247 33.3947 47.096 33.5234 46.9371 33.5234Z" fill="#DFE6EF"/>
<path d="M50.0652 33.5234H48.3572C48.1984 33.5234 48.0713 33.3947 48.0713 33.2374V32.9054C48.0713 32.7465 48.2 32.6194 48.3572 32.6194H50.0652C50.2241 32.6194 50.3512 32.7481 50.3512 32.9054V33.2374C50.3528 33.3947 50.2241 33.5234 50.0652 33.5234Z" fill="#DFE6EF"/>
<path d="M34.4253 35.9387H32.7174C32.5585 35.9387 32.4314 35.81 32.4314 35.6527V35.3206C32.4314 35.1618 32.5601 35.0347 32.7174 35.0347H34.4253C34.5842 35.0347 34.7113 35.1634 34.7113 35.3206V35.6527C34.7113 35.8116 34.5826 35.9387 34.4253 35.9387Z" fill="#DFE6EF"/>
<path d="M31.2974 35.9387H29.5894C29.4306 35.9387 29.3035 35.81 29.3035 35.6527V35.3206C29.3035 35.1618 29.4321 35.0347 29.5894 35.0347H31.2974C31.4563 35.0347 31.5834 35.1634 31.5834 35.3206V35.6527C31.5834 35.8116 31.4563 35.9387 31.2974 35.9387Z" fill="#DFE6EF"/>
<path d="M37.5533 35.9387H35.8454C35.6865 35.9387 35.5594 35.81 35.5594 35.6527V35.3206C35.5594 35.1618 35.6881 35.0347 35.8454 35.0347H37.5533C37.7122 35.0347 37.8393 35.1634 37.8393 35.3206V35.6527C37.8409 35.8116 37.7122 35.9387 37.5533 35.9387Z" fill="#DFE6EF"/>
<path d="M40.6813 35.9387H38.9733C38.8144 35.9387 38.6873 35.81 38.6873 35.6527V35.3206C38.6873 35.1618 38.816 35.0347 38.9733 35.0347H40.6813C40.8401 35.0347 40.9672 35.1634 40.9672 35.3206V35.6527C40.9672 35.8116 40.8401 35.9387 40.6813 35.9387Z" fill="#C6BAD5"/>
<path d="M43.8092 35.9387H42.1013C41.9424 35.9387 41.8153 35.81 41.8153 35.6527V35.3206C41.8153 35.1618 41.944 35.0347 42.1013 35.0347H43.8092C43.9681 35.0347 44.0952 35.1634 44.0952 35.3206V35.6527C44.0952 35.8116 43.9665 35.9387 43.8092 35.9387Z" fill="#DFE6EF"/>
<path d="M46.9372 35.9387H45.2292C45.0704 35.9387 44.9433 35.81 44.9433 35.6527V35.3206C44.9433 35.1618 45.072 35.0347 45.2292 35.0347H46.9372C47.0961 35.0347 47.2232 35.1634 47.2232 35.3206V35.6527C47.2248 35.8116 47.0961 35.9387 46.9372 35.9387Z" fill="#DFE6EF"/>
<path d="M50.0652 35.9387H48.3572C48.1983 35.9387 48.0712 35.81 48.0712 35.6527V35.3206C48.0712 35.1618 48.1999 35.0347 48.3572 35.0347H50.0652C50.224 35.0347 50.3511 35.1634 50.3511 35.3206V35.6527C50.3527 35.8116 50.224 35.9387 50.0652 35.9387Z" fill="#DFE6EF"/>
<path d="M34.4253 38.3553H32.7174C32.5585 38.3553 32.4314 38.2266 32.4314 38.0693V37.7373C32.4314 37.5784 32.5601 37.4513 32.7174 37.4513H34.4253C34.5842 37.4513 34.7113 37.58 34.7113 37.7373V38.0693C34.7113 38.2266 34.5826 38.3553 34.4253 38.3553Z" fill="#DFE6EF"/>
<path d="M31.2974 38.3553H29.5894C29.4306 38.3553 29.3035 38.2266 29.3035 38.0693V37.7373C29.3035 37.5784 29.4321 37.4513 29.5894 37.4513H31.2974C31.4563 37.4513 31.5834 37.58 31.5834 37.7373V38.0693C31.5834 38.2266 31.4563 38.3553 31.2974 38.3553Z" fill="#DFE6EF"/>
<path d="M37.5533 38.3553H35.8454C35.6865 38.3553 35.5594 38.2266 35.5594 38.0693V37.7373C35.5594 37.5784 35.6881 37.4513 35.8454 37.4513H37.5533C37.7122 37.4513 37.8393 37.58 37.8393 37.7373V38.0693C37.8409 38.2266 37.7122 38.3553 37.5533 38.3553Z" fill="#DFE6EF"/>
<path d="M40.6813 38.3553H38.9733C38.8144 38.3553 38.6873 38.2266 38.6873 38.0693V37.7373C38.6873 37.5784 38.816 37.4513 38.9733 37.4513H40.6813C40.8401 37.4513 40.9672 37.58 40.9672 37.7373V38.0693C40.9672 38.2266 40.8401 38.3553 40.6813 38.3553Z" fill="#DFE6EF"/>
<path d="M43.8092 38.3553H42.1013C41.9424 38.3553 41.8153 38.2266 41.8153 38.0693V37.7373C41.8153 37.5784 41.944 37.4513 42.1013 37.4513H43.8092C43.9681 37.4513 44.0952 37.58 44.0952 37.7373V38.0693C44.0952 38.2266 43.9665 38.3553 43.8092 38.3553Z" fill="#DFE6EF"/>
<path d="M46.9372 38.3553H45.2292C45.0704 38.3553 44.9433 38.2266 44.9433 38.0693V37.7373C44.9433 37.5784 45.072 37.4513 45.2292 37.4513H46.9372C47.0961 37.4513 47.2232 37.58 47.2232 37.7373V38.0693C47.2248 38.2266 47.0961 38.3553 46.9372 38.3553Z" fill="#DFE6EF"/>
<path d="M50.0652 38.3553H48.3572C48.1983 38.3553 48.0712 38.2266 48.0712 38.0693V37.7373C48.0712 37.5784 48.1999 37.4513 48.3572 37.4513H50.0652C50.224 37.4513 50.3511 37.58 50.3511 37.7373V38.0693C50.3527 38.2266 50.224 38.3553 50.0652 38.3553Z" fill="#DFE6EF"/>
<path d="M34.4253 40.7703H32.7174C32.5585 40.7703 32.4314 40.6417 32.4314 40.4844V40.1523C32.4314 39.9934 32.5601 39.8663 32.7174 39.8663H34.4253C34.5842 39.8663 34.7113 39.995 34.7113 40.1523V40.4844C34.7113 40.6417 34.5826 40.7703 34.4253 40.7703Z" fill="#DFE6EF"/>
<path d="M31.2974 40.7703H29.5894C29.4306 40.7703 29.3035 40.6417 29.3035 40.4844V40.1523C29.3035 39.9934 29.4321 39.8663 29.5894 39.8663H31.2974C31.4563 39.8663 31.5834 39.995 31.5834 40.1523V40.4844C31.5834 40.6417 31.4563 40.7703 31.2974 40.7703Z" fill="#DFE6EF"/>
<path d="M37.5533 40.7703H35.8454C35.6865 40.7703 35.5594 40.6417 35.5594 40.4844V40.1523C35.5594 39.9934 35.6881 39.8663 35.8454 39.8663H37.5533C37.7122 39.8663 37.8393 39.995 37.8393 40.1523V40.4844C37.8409 40.6417 37.7122 40.7703 37.5533 40.7703Z" fill="#DFE6EF"/>
<path d="M40.6813 40.7703H38.9733C38.8144 40.7703 38.6873 40.6417 38.6873 40.4844V40.1523C38.6873 39.9934 38.816 39.8663 38.9733 39.8663H40.6813C40.8401 39.8663 40.9672 39.995 40.9672 40.1523V40.4844C40.9672 40.6417 40.8401 40.7703 40.6813 40.7703Z" fill="#DFE6EF"/>
<path d="M43.8092 40.7703H42.1013C41.9424 40.7703 41.8153 40.6417 41.8153 40.4844V40.1523C41.8153 39.9934 41.944 39.8663 42.1013 39.8663H43.8092C43.9681 39.8663 44.0952 39.995 44.0952 40.1523V40.4844C44.0952 40.6417 43.9665 40.7703 43.8092 40.7703Z" fill="#DFE6EF"/>
<path d="M46.9372 40.7703H45.2292C45.0704 40.7703 44.9433 40.6417 44.9433 40.4844V40.1523C44.9433 39.9934 45.072 39.8663 45.2292 39.8663H46.9372C47.0961 39.8663 47.2232 39.995 47.2232 40.1523V40.4844C47.2248 40.6417 47.0961 40.7703 46.9372 40.7703Z" fill="#DFE6EF"/>
<path d="M50.0652 40.7703H48.3572C48.1983 40.7703 48.0712 40.6417 48.0712 40.4844V40.1523C48.0712 39.9934 48.1999 39.8663 48.3572 39.8663H50.0652C50.224 39.8663 50.3511 39.995 50.3511 40.1523V40.4844C50.3527 40.6417 50.224 40.7703 50.0652 40.7703Z" fill="#DFE6EF"/>
<path d="M40.65 19.7348H36.5478C36.1284 19.7348 35.7884 19.3948 35.7884 18.9754V17.7488C35.7884 17.3294 36.1284 16.9894 36.5478 16.9894H40.65C41.0695 16.9894 41.4095 17.3294 41.4095 17.7488V18.9754C41.4095 19.3948 41.0695 19.7348 40.65 19.7348Z" fill="#DFE6EF"/>
<path d="M47.483 19.7348H43.3808C42.9613 19.7348 42.6213 19.3948 42.6213 18.9754V17.7488C42.6213 17.3294 42.9613 16.9894 43.3808 16.9894H47.483C47.9025 16.9894 48.2425 17.3294 48.2425 17.7488V18.9754C48.2409 19.3948 47.9025 19.7348 47.483 19.7348Z" fill="#DFE6EF"/>
<path d="M29.4827 46.5012V45.1666H29.6867L30.5236 46.1943H30.4226V45.1666H30.6685V46.5012H30.4645L29.6276 45.4736H29.7286V46.5012H29.4827ZM31.4608 46.5146C31.3566 46.5146 31.2638 46.4923 31.1825 46.4478C31.1011 46.4021 31.0369 46.3398 30.9899 46.261C30.9429 46.1822 30.9194 46.0926 30.9194 45.9922C30.9194 45.8905 30.9429 45.8009 30.9899 45.7234C31.0369 45.6445 31.1011 45.5829 31.1825 45.5384C31.2638 45.4939 31.3566 45.4717 31.4608 45.4717C31.5663 45.4717 31.6597 45.4939 31.7411 45.5384C31.8237 45.5829 31.8879 45.6439 31.9337 45.7214C31.9807 45.799 32.0042 45.8892 32.0042 45.9922C32.0042 46.0926 31.9807 46.1822 31.9337 46.261C31.8879 46.3398 31.8237 46.4021 31.7411 46.4478C31.6597 46.4923 31.5663 46.5146 31.4608 46.5146ZM31.4608 46.3106C31.5193 46.3106 31.5714 46.2979 31.6172 46.2724C31.6629 46.247 31.6985 46.2102 31.7239 46.1619C31.7506 46.1136 31.764 46.057 31.764 45.9922C31.764 45.9261 31.7506 45.8695 31.7239 45.8225C31.6985 45.7742 31.6629 45.7373 31.6172 45.7119C31.5714 45.6865 31.5199 45.6738 31.4627 45.6738C31.4043 45.6738 31.3522 45.6865 31.3064 45.7119C31.2619 45.7373 31.2263 45.7742 31.1996 45.8225C31.1729 45.8695 31.1596 45.9261 31.1596 45.9922C31.1596 46.057 31.1729 46.1136 31.1996 46.1619C31.2263 46.2102 31.2619 46.247 31.3064 46.2724C31.3522 46.2979 31.4036 46.3106 31.4608 46.3106ZM32.6153 46.5146C32.5035 46.5146 32.417 46.486 32.356 46.4288C32.295 46.3703 32.2645 46.2845 32.2645 46.1714V45.2582H32.5028V46.1657C32.5028 46.214 32.5149 46.2515 32.539 46.2782C32.5645 46.3048 32.5994 46.3182 32.6439 46.3182C32.6973 46.3182 32.7418 46.3042 32.7774 46.2762L32.8441 46.4459C32.8161 46.4688 32.7818 46.486 32.7411 46.4974C32.7005 46.5088 32.6585 46.5146 32.6153 46.5146ZM32.0967 45.6814V45.4908H32.7755V45.6814H32.0967ZM33.4852 46.5146C33.372 46.5146 33.2729 46.4923 33.1877 46.4478C33.1039 46.4021 33.0384 46.3398 32.9914 46.261C32.9456 46.1822 32.9227 46.0926 32.9227 45.9922C32.9227 45.8905 32.945 45.8009 32.9895 45.7234C33.0352 45.6445 33.0975 45.5829 33.1763 45.5384C33.2564 45.4939 33.3473 45.4717 33.4489 45.4717C33.5481 45.4717 33.6364 45.4933 33.7139 45.5365C33.7915 45.5797 33.8525 45.6407 33.897 45.7195C33.9415 45.7983 33.9637 45.8911 33.9637 45.9979C33.9637 46.0081 33.9631 46.0195 33.9618 46.0322C33.9618 46.0449 33.9612 46.057 33.9599 46.0684H33.1115V45.9102H33.8341L33.7406 45.9598C33.7419 45.9013 33.7298 45.8498 33.7044 45.8053C33.679 45.7608 33.644 45.7259 33.5996 45.7005C33.5563 45.6751 33.5061 45.6623 33.4489 45.6623C33.3905 45.6623 33.339 45.6751 33.2945 45.7005C33.2513 45.7259 33.217 45.7615 33.1916 45.8072C33.1674 45.8517 33.1553 45.9045 33.1553 45.9655V46.0036C33.1553 46.0646 33.1693 46.1186 33.1973 46.1657C33.2252 46.2127 33.2646 46.2489 33.3155 46.2743C33.3663 46.2998 33.4248 46.3125 33.4909 46.3125C33.5481 46.3125 33.5996 46.3036 33.6453 46.2858C33.6911 46.268 33.7317 46.24 33.7673 46.2019L33.8951 46.3487C33.8493 46.4021 33.7915 46.4434 33.7216 46.4726C33.6529 46.5006 33.5741 46.5146 33.4852 46.5146Z" fill="#0A1E25"/>
<path d="M49.5938 50.7047H30.0629C29.6434 50.7047 29.3034 50.3646 29.3034 49.9452V48.7187C29.3034 48.2992 29.6434 47.9592 30.0629 47.9592H49.5938C50.0133 47.9592 50.3533 48.2992 50.3533 48.7187V49.9452C50.3533 50.3646 50.0133 50.7047 49.5938 50.7047Z" fill="#C6BAD5"/>
<path d="M29.3034 53.5872H50.3533" stroke="#DFE6EF" stroke-width="0.158878" stroke-miterlimit="10"/>
<path d="M29.3034 55.8635H50.3533" stroke="#DFE6EF" stroke-width="0.158878" stroke-miterlimit="10"/>
<path d="M29.3035 58.142H50.3533" stroke="#DFE6EF" stroke-width="0.158878" stroke-miterlimit="10"/>
<path d="M10.7989 12.8407C10.7989 12.8407 7.64203 13.2808 6.96838 14.6265C6.29474 15.9722 5.82922 19.9585 5.4924 21.4853C5.15558 23.0121 4.89661 24.6422 4.89661 24.6422C4.89661 24.6422 4.53436 25.3667 4.35324 27.5147C4.17212 29.6628 4.01642 32.1985 4.01642 32.1985C4.01642 32.1985 4.92203 32.664 5.88006 32.3542C5.88006 32.3542 6.60455 29.8947 7.07006 28.1105C7.53558 26.3247 8.85586 21.8984 8.85586 21.8984L8.51903 29.6373C8.51903 29.6373 10.7195 31.1896 14.7566 30.7495C18.7937 30.3094 20.1394 29.067 20.1394 29.067C20.1394 29.067 19.6993 26.142 19.5436 23.3473C19.3879 20.5527 19.4912 19.207 19.4912 19.207C19.4912 19.207 23.1406 21.4837 24.874 22.1573C26.6074 22.831 34.0619 21.9762 34.0619 21.9762V19.9314C34.0619 19.9314 31.0861 19.8028 29.2225 19.7503C27.3588 19.6979 26.8409 19.7249 26.8409 19.7249C26.8409 19.7249 23.0103 16.2057 21.1737 14.8982C19.3355 13.5906 19.1544 13.2554 16.1913 12.8661L10.7989 12.8407Z" fill="#C6BAD5"/>
<path d="M10.1371 4.35199C10.1371 4.35199 10.1117 6.65573 10.1371 7.66461C10.1625 8.67348 11.4733 10.4863 11.9451 11.0026C12.4154 11.5206 14.2965 11.3395 14.7176 11.0026C15.1386 10.6658 15.9552 8.9833 16.1777 8.34937C16.4001 7.71545 16.1777 4.76507 16.1777 4.76507C16.1777 4.76507 15.0639 3.62591 13.0827 3.57507C13.0827 3.57507 12.0436 4.58395 10.1371 4.35199Z" fill="#FFE9DF"/>
<path d="M10.1798 7.66437C10.1718 7.33708 10.1686 6.87315 10.1686 6.39652C10.1273 6.22811 9.95734 5.69427 9.45528 5.67203C8.85949 5.64661 8.52426 8.72568 10.283 8.31259C10.2958 8.30942 10.3085 8.30624 10.3212 8.30306C10.237 8.06951 10.1845 7.85184 10.1798 7.66437Z" fill="#FFE9DF"/>
<path d="M17.2656 4.40222C17.1671 3.08194 16.6714 2.25418 15.6323 2.15091C14.5932 2.04764 14.0229 1.27072 12.9584 1.29614C11.8939 1.32156 10.1859 1.63296 9.81417 3.26306C9.81417 3.26306 9.39314 3.02951 9.19454 3.57287C9.05632 3.95259 9.19454 5.08539 9.29146 5.7368C9.33912 5.69072 9.38838 5.66689 9.4424 5.66848C9.92221 5.69072 10.0843 6.22455 10.124 6.39296C10.124 6.41362 10.124 6.43427 10.124 6.45493C10.1224 5.44287 10.1351 4.3482 10.1351 4.3482C12.0416 4.58175 13.0807 3.57128 13.0807 3.57128C15.0619 3.62371 16.1757 4.76128 16.1757 4.76128C16.1757 4.76128 16.2392 5.61287 16.2646 6.49783L16.2742 6.49465C16.2742 6.49941 17.3641 5.7225 17.2656 4.40222Z" fill="#313440"/>
<path d="M14.7455 10.9732C14.736 10.9827 14.7248 10.9939 14.7153 11.0018C14.2943 11.3386 12.4132 11.5197 11.9429 11.0018C11.8253 10.8715 11.6537 10.6602 11.4631 10.4012C11.4631 10.4012 11.811 11.7263 11.6045 12.3999C11.6045 12.3999 12.2003 13.1244 12.6658 13.1244C12.6658 13.1244 12.4592 13.5645 12.3814 13.8489C12.3814 13.8489 13.341 14.4844 14.6867 13.8362C14.6867 13.8362 14.6581 13.4088 14.3737 13.0974C14.3737 13.0974 14.8138 12.7352 15.2015 12.4508C15.2015 12.4508 14.7264 11.8772 14.7455 10.9732Z" fill="#FFE9DF"/>
<path d="M11.6059 12.4004C11.6059 12.4004 11.1277 12.4004 10.8036 12.8405C10.8036 12.8405 11.0371 14.3165 12.0968 15.1172C12.0968 15.1172 12.0968 14.5738 12.3812 13.8494C12.4591 13.565 12.6656 13.1249 12.6656 13.1249C12.2017 13.1249 11.6059 12.4004 11.6059 12.4004Z" fill="#E2D8E3"/>
<path d="M14.3712 13.0973C14.3712 13.0973 14.8637 13.7566 14.7588 14.8958C14.7588 14.8958 15.7677 14.5336 16.1951 12.8637C16.1951 12.8637 15.8583 12.3982 15.1989 12.4491L14.3712 13.0973Z" fill="#E2D8E3"/>
<path d="M4.14459 30.327C4.2574 30.4954 4.41627 30.6162 4.57992 30.7115C4.74833 30.8037 4.93263 30.8609 5.12169 30.8942C5.31076 30.9339 5.50618 30.9355 5.70319 30.9403L6.00029 30.9292C6.10039 30.9228 6.19889 30.9117 6.30216 30.9101C6.20683 30.9467 6.10992 30.9737 6.013 31.0054C5.9145 31.0293 5.81282 31.0467 5.71272 31.0642C5.61104 31.0738 5.50777 31.0817 5.4045 31.0817C5.30123 31.0769 5.19796 31.0722 5.09469 31.0515C4.88973 31.0134 4.68637 30.9419 4.51478 30.818C4.34478 30.694 4.20179 30.524 4.14459 30.327Z" fill="#313440"/>
<path d="M31.9574 22.1826C32.0241 21.9935 32.0654 21.8028 32.102 21.6106C32.1353 21.4183 32.1592 21.2261 32.1751 21.0323C32.1925 20.8384 32.1957 20.643 32.2005 20.4476V20.1521C32.2005 20.0536 32.1957 19.9535 32.2005 19.8534C32.2609 20.044 32.3022 20.2411 32.3228 20.4412C32.3451 20.6414 32.3466 20.8432 32.3324 21.045C32.3133 21.2452 32.2815 21.4469 32.2211 21.6392C32.1623 21.833 32.0829 22.0237 31.9574 22.1826Z" fill="#313440"/>
<path d="M8.86176 21.8977C8.9126 21.4576 9.00951 21.0302 9.11755 20.6044C9.23035 20.1802 9.35428 19.7607 9.52587 19.3524C9.47662 19.7925 9.3797 20.2199 9.27007 20.6457C9.15727 21.0683 9.03176 21.4893 8.86176 21.8977Z" fill="#313440"/>
<path d="M19.5004 19.2066C19.4273 18.8174 19.3939 18.4297 19.3653 18.0404C19.3415 17.6512 19.3224 17.2635 19.3272 16.8679C19.448 17.2461 19.494 17.6385 19.5242 18.0293C19.5465 18.4202 19.5512 18.8142 19.5004 19.2066Z" fill="#313440"/>
<path d="M5.8619 33.4489C5.59498 32.9564 5.74433 32.3939 5.74433 32.3939H5.74274C5.10564 32.5512 4.51302 32.3908 4.21909 32.2811C4.21909 32.2811 4.1619 32.7594 4.02526 33.3631C3.88704 33.9668 3.69797 34.3466 3.86956 35.1743C4.04274 36.0021 4.35255 37.2095 4.629 37.5384C4.90545 37.8657 5.35349 38.1851 5.56956 38.1422C5.78564 38.0993 5.69825 37.8752 5.69825 37.8752C5.69825 37.8752 5.92227 37.7894 5.83648 37.4526C5.83648 37.4526 5.97152 37.2111 5.85554 36.9776C5.74115 36.744 5.39638 36.6153 5.25816 36.288C5.11994 35.9608 5.18984 35.3125 5.37891 35.2966C5.56797 35.2792 5.58545 35.6335 5.59498 36.0736C5.60293 36.5137 5.8619 36.6694 6.0605 36.582C6.25909 36.4962 6.1733 34.8915 6.12881 34.623C6.08592 34.3561 6.12881 33.9414 5.8619 33.4489Z" fill="#FFE9DF"/>
<path d="M5.69275 37.8752C5.60219 37.7291 5.48144 37.6131 5.35434 37.5082C5.32256 37.4796 5.29079 37.4622 5.25583 37.4288L5.20023 37.3716L5.1621 37.308C5.11602 37.2207 5.09378 37.1317 5.07948 37.0427C5.05406 36.8648 5.05565 36.69 5.0763 36.5168C5.09537 36.3452 5.13032 36.1752 5.18911 36.0116C5.19546 36.1848 5.19546 36.3548 5.20023 36.5232C5.20499 36.6916 5.21135 36.8584 5.23677 37.0173C5.24789 37.0967 5.26696 37.1746 5.29714 37.2397L5.32098 37.2874L5.35116 37.3255C5.37499 37.3525 5.41313 37.3859 5.44013 37.4177C5.5577 37.548 5.66256 37.7021 5.69275 37.8752Z" fill="#313440"/>
<path d="M5.83243 37.4523C5.66084 37.33 5.51149 37.2076 5.35738 37.0805C5.27476 37.0074 5.20486 36.9169 5.16514 36.8136C5.12542 36.7119 5.11112 36.5991 5.13972 36.4958C5.21439 36.6929 5.31925 36.8422 5.45906 36.9614C5.53533 37.0281 5.61159 37.1012 5.67514 37.1838C5.74028 37.2632 5.79747 37.3506 5.83243 37.4523Z" fill="#313440"/>
<path d="M20.145 29.0673C20.145 29.0673 18.7993 30.3097 14.7622 30.7498C10.7251 31.1899 8.52463 29.6376 8.52463 29.6376C8.52463 29.6376 8.26566 34.7106 9.09342 39.6788C9.92117 44.6485 9.87033 45.2173 10.0244 47.8054C10.1801 50.3935 10.2834 58.9348 10.2834 58.9348C10.2834 58.9348 12.6126 60.7985 15.2531 58.9348C15.2531 58.9348 15.0974 53.9651 14.7352 50.1361C14.3729 46.3056 15.4597 36.4964 15.4597 36.4964C15.4597 36.4964 17.8921 41.8538 17.3233 45.1156C16.7545 48.3758 17.6856 58.2628 17.6856 58.2628C17.6856 58.2628 20.4294 59.6609 22.4996 57.1236C22.4996 57.1236 22.0849 50.1361 21.9816 43.0962C21.8784 36.0563 20.145 29.0673 20.145 29.0673Z" fill="#705295"/>
<path d="M14.2501 59.4792C13.1665 59.9066 12.1878 59.7795 11.4729 59.5412C11.4729 59.5412 11.0423 61.2793 10.7325 62.4519C10.4227 63.6244 10.7325 64.4537 12.3197 64.4871C13.9069 64.5221 14.9761 64.3489 15.2526 63.8659C15.529 63.3829 14.6997 62.382 14.4931 61.0363C14.3645 60.1958 14.2882 59.7192 14.2501 59.4792Z" fill="#313440"/>
<path d="M26.0885 60.0368C25.2973 59.5936 23.0523 58.8008 22.1817 57.4725C21.0552 58.6117 19.7905 58.7277 18.8897 58.6037C18.8563 59.2663 18.8309 60.7073 19.2567 60.7613C19.8096 60.8296 20.9472 60.5246 22.2929 61.2459C23.6386 61.9688 25.399 62.2786 26.0885 62.1404C26.778 62.0037 26.9512 60.5198 26.0885 60.0368Z" fill="#313440"/>
<path d="M9.73091 30.2233C9.76586 30.6427 9.76268 31.0637 9.74362 31.4848C9.72455 31.9058 9.67848 32.3252 9.60698 32.7415C9.53231 33.1562 9.43222 33.5708 9.27652 33.9664C9.11923 34.3573 8.91586 34.7497 8.58698 35.0214C8.7268 34.8641 8.8396 34.6878 8.92857 34.5003C9.02231 34.316 9.09698 34.1221 9.16212 33.9251C9.28764 33.5295 9.38138 33.1244 9.45128 32.7145C9.52596 32.3046 9.57521 31.8915 9.62287 31.4752C9.6467 31.2671 9.66577 31.059 9.68166 30.8508C9.70231 30.6411 9.71502 30.433 9.73091 30.2233Z" fill="#313440"/>
<path d="M15.8404 30.5616C15.9246 30.9588 15.9787 31.3608 16.0216 31.7644C16.066 32.1679 16.0835 32.5746 16.0899 32.9798C16.0931 33.3865 16.074 33.7948 16.0168 34.1984C15.9898 34.4002 15.9469 34.6003 15.8992 34.7989L15.8007 35.0897C15.7594 35.1834 15.7133 35.274 15.6673 35.3645L15.761 35.077L15.823 34.783C15.8531 34.5844 15.8833 34.3874 15.8945 34.1857C15.9231 33.7853 15.9374 33.3833 15.931 32.9814C15.9294 32.5794 15.9151 32.1759 15.9008 31.7739L15.8404 30.5616Z" fill="#313440"/>
<path d="M19.3998 29.54C19.4332 29.7069 19.4633 29.8705 19.5078 30.0342C19.5444 30.1978 19.5873 30.3599 19.6349 30.5203C19.7303 30.8413 19.8351 31.1574 19.9606 31.4656C20.0814 31.777 20.2355 32.071 20.3991 32.3617L20.5294 32.5746C20.5739 32.6445 20.6263 32.7097 20.674 32.7796C20.763 32.9242 20.8821 33.0417 20.9822 33.1784C20.7232 32.9623 20.4881 32.7097 20.2959 32.4269C20.1036 32.1456 19.94 31.8422 19.8129 31.526C19.6874 31.2083 19.5841 30.8826 19.5158 30.5489C19.4459 30.2169 19.3982 29.8785 19.3998 29.54Z" fill="#313440"/>
<path d="M8.56683 28.6366C9.02758 28.8146 9.49786 28.9639 9.9745 29.0863C10.4495 29.2134 10.9309 29.3198 11.4171 29.4009C12.3863 29.5645 13.3697 29.6471 14.3516 29.6185C14.8425 29.6058 15.3319 29.5724 15.8196 29.5089C16.3058 29.4406 16.7888 29.35 17.2654 29.2293C17.7421 29.1085 18.2123 28.9655 18.6699 28.7828C19.1338 28.616 19.5771 28.3983 20.0204 28.1807C19.172 28.6875 18.2537 29.0831 17.2972 29.3468C16.3408 29.6138 15.3494 29.7456 14.3564 29.7774C13.3634 29.7917 12.3688 29.7107 11.3949 29.52C10.4241 29.3262 9.46609 29.0513 8.56683 28.6366Z" fill="#313440"/>
<path d="M34.0703 20.0945C34.0703 20.0945 34.6994 19.853 35.1999 19.6289C35.7003 19.4049 36.1484 19.1809 36.8729 18.9728C37.5974 18.7662 38.1153 18.6788 38.2535 18.852C38.3917 19.0252 37.8388 19.3112 37.3733 19.4272C36.9078 19.5416 36.8204 19.853 36.8204 19.853C36.8204 19.853 37.5656 19.9562 38.0216 19.9213C38.4775 19.8863 39.0114 19.6623 39.3228 19.5241C39.6326 19.3859 39.9615 19.1094 40.1505 19.2476C40.1505 19.2476 40.3571 19.2651 40.427 19.5416C40.4953 19.818 39.7533 20.266 39.7533 20.266C39.7533 20.266 39.7009 20.4551 39.1845 20.8348C38.6666 21.2145 38.2186 21.4036 38.2186 21.4036C38.2186 21.4036 37.5624 21.8516 36.2167 22.0598C34.871 22.2663 34.6295 21.6975 34.0687 21.6801V20.0945H34.0703Z" fill="#FFE9DF"/>
<path d="M37.4256 20.837C37.6766 20.7734 37.9277 20.6844 38.1199 20.5351C38.166 20.497 38.2073 20.4541 38.2375 20.408C38.2724 20.3587 38.309 20.2968 38.3487 20.2443C38.4297 20.1363 38.5155 20.0314 38.6363 19.9472C38.6982 19.9091 38.7713 19.8646 38.8714 19.8773C38.9207 19.8821 38.9651 19.9075 39.0017 19.9409C39.043 19.987 39.0541 20.0362 39.0573 20.0775C39.0605 20.2364 39.0128 20.3603 38.9651 20.4858C38.8651 20.7321 38.7332 20.9641 38.5664 21.1658C38.6823 20.9323 38.7729 20.6876 38.8492 20.4461C38.8825 20.327 38.9191 20.1967 38.9079 20.0934C38.9127 20.0219 38.819 20.0076 38.7268 20.0807C38.6315 20.1443 38.5473 20.2396 38.4694 20.3381C38.4281 20.3873 38.3948 20.4366 38.3519 20.4922C38.3074 20.5526 38.2518 20.5986 38.1946 20.6384C37.9563 20.7877 37.6862 20.8322 37.4256 20.837Z" fill="#313440"/>
<path d="M39.7549 20.2681C39.7628 20.1347 39.7771 20.0028 39.7692 19.8821C39.7644 19.8249 39.7485 19.7645 39.7279 19.7534C39.7136 19.7422 39.6754 19.7375 39.6246 19.7629C39.5245 19.8058 39.4212 19.89 39.3164 19.9647C39.2115 20.0409 39.1035 20.1188 38.9827 20.1807C39.0606 20.0695 39.1432 19.9679 39.2353 19.8709C39.3291 19.7756 39.4244 19.6819 39.5642 19.6167C39.6008 19.6024 39.6421 19.5897 39.6881 19.5897C39.7358 19.5913 39.7898 19.604 39.8311 19.6437C39.9042 19.7295 39.8979 19.8137 39.8931 19.8836C39.8756 20.0266 39.8264 20.1522 39.7549 20.2681Z" fill="#313440"/>
<path d="M11.668 11.909C12.3433 12.1298 13.5936 12.3364 14.782 11.4514C14.7566 11.3053 14.7423 11.1448 14.7455 10.9732C14.736 10.9827 14.7248 10.9939 14.7153 11.0018C14.2943 11.3386 12.4132 11.5197 11.9429 11.0018C11.8253 10.8715 11.6537 10.6602 11.4631 10.4012C11.4631 10.4012 11.6791 11.229 11.668 11.909Z" fill="#313440"/>
<path d="M10.1235 6.39636C10.1346 6.72365 10.1426 7.03982 10.1759 7.3544C10.1886 7.51169 10.2109 7.66898 10.2363 7.82468C10.2586 7.98197 10.2951 8.13767 10.3221 8.29973C10.2331 8.1615 10.1616 8.01057 10.1156 7.85328C10.0647 7.69599 10.0345 7.53234 10.0186 7.3687C10.0043 7.20505 10.0012 7.03982 10.0186 6.87617C10.0329 6.71253 10.0647 6.55047 10.1235 6.39636Z" fill="#313440"/>
<path d="M19.3265 16.8679L22.2959 20.8605L19.4997 19.2066L19.3265 16.8679Z" fill="#313440"/>
<path d="M9.52794 19.3524L8.6557 26.6831L8.86383 21.8977L9.52794 19.3524Z" fill="#313440"/>
<path d="M15.4612 36.4943L15.8012 35.0898C15.8012 35.0898 16.8752 37.6081 17.5663 40.7825C18.2558 43.9569 17.1532 47.2695 17.1532 47.2695C17.1532 47.2695 17.463 45.5091 17.3947 43.9219C17.3248 42.3347 16.3588 38.2801 15.4612 36.4943Z" fill="#313440"/>
<path d="M12.0951 15.1171C12.0951 15.1171 12.3747 14.4991 13.0054 14.0891L12.381 13.8492C12.3795 13.8492 12.1078 14.5483 12.0951 15.1171Z" fill="#313440"/>
<path d="M14.6861 13.8367C14.6861 13.8367 14.3572 13.9955 14.1285 14.0464C14.1285 14.0464 14.71 14.4182 14.7608 14.8964C14.7624 14.898 14.907 14.3165 14.6861 13.8367Z" fill="#313440"/>
</g>
<defs>
<clipPath id="clip0_766_6211">
<rect width="67.0467" height="68" fill="white"/>
</clipPath>
</defs>
</svg>
