<svg width="24" height="24" viewBox="0 0 24 24" fill="none" xmlns="http://www.w3.org/2000/svg">
<path d="M12.0001 2.25C10.3167 2.24963 8.66201 2.68508 7.19691 3.51396C5.73182 4.34285 4.50628 5.53692 3.63959 6.97997C2.77289 8.42301 2.29457 10.0659 2.25117 11.7486C2.20777 13.4314 2.60077 15.0967 3.39193 16.5825L2.32787 19.7747C2.23973 20.039 2.22693 20.3226 2.29093 20.5938C2.35492 20.8649 2.49316 21.1129 2.69016 21.3099C2.88717 21.5069 3.13514 21.6451 3.4063 21.7091C3.67745 21.7731 3.96107 21.7603 4.22537 21.6722L7.41755 20.6081C8.72515 21.3036 10.174 21.6921 11.6541 21.744C13.1343 21.7959 14.6068 21.51 15.9599 20.9079C17.3131 20.3057 18.5112 19.4033 19.4635 18.269C20.4158 17.1346 21.0971 15.7983 21.4558 14.3613C21.8145 12.9244 21.8411 11.4246 21.5336 9.97578C21.2261 8.52701 20.5926 7.16732 19.6812 5.99992C18.7698 4.83253 17.6044 3.88811 16.2735 3.23836C14.9426 2.58861 13.4811 2.25061 12.0001 2.25ZM7.87505 13.125C7.65255 13.125 7.43504 13.059 7.25004 12.9354C7.06503 12.8118 6.92084 12.6361 6.83569 12.4305C6.75054 12.225 6.72826 11.9988 6.77167 11.7805C6.81508 11.5623 6.92222 11.3618 7.07956 11.2045C7.23689 11.0472 7.43735 10.94 7.65558 10.8966C7.8738 10.8532 8.1 10.8755 8.30557 10.9606C8.51114 11.0458 8.68684 11.19 8.81046 11.375C8.93407 11.56 9.00005 11.7775 9.00005 12C9.00005 12.2984 8.88153 12.5845 8.67055 12.7955C8.45957 13.0065 8.17342 13.125 7.87505 13.125ZM12.0001 13.125C11.7775 13.125 11.56 13.059 11.375 12.9354C11.19 12.8118 11.0458 12.6361 10.9607 12.4305C10.8755 12.225 10.8533 11.9988 10.8967 11.7805C10.9401 11.5623 11.0472 11.3618 11.2046 11.2045C11.3619 11.0472 11.5623 10.94 11.7806 10.8966C11.9988 10.8532 12.225 10.8755 12.4306 10.9606C12.6361 11.0458 12.8118 11.19 12.9355 11.375C13.0591 11.56 13.1251 11.7775 13.1251 12C13.1251 12.2984 13.0065 12.5845 12.7955 12.7955C12.5846 13.0065 12.2984 13.125 12.0001 13.125ZM16.1251 13.125C15.9025 13.125 15.685 13.059 15.5 12.9354C15.315 12.8118 15.1708 12.6361 15.0857 12.4305C15.0005 12.225 14.9783 11.9988 15.0217 11.7805C15.0651 11.5623 15.1722 11.3618 15.3296 11.2045C15.4869 11.0472 15.6873 10.94 15.9056 10.8966C16.1238 10.8532 16.35 10.8755 16.5556 10.9606C16.7611 11.0458 16.9368 11.19 17.0605 11.375C17.1841 11.56 17.2501 11.7775 17.2501 12C17.2501 12.2984 17.1315 12.5845 16.9205 12.7955C16.7096 13.0065 16.4234 13.125 16.1251 13.125Z" fill="#705295"/>
</svg>
