<svg width="24" height="22" viewBox="0 0 24 22" fill="none" xmlns="http://www.w3.org/2000/svg">
<g clip-path="url(#clip0_122_11203)">
<path d="M2.41667 3.5V11.625H5.93056C6.46163 11.625 6.88889 12.043 6.88889 12.5625C6.88889 13.082 6.46163 13.5 5.93056 13.5H2.41667V15.375H5.93056C6.46163 15.375 6.88889 15.793 6.88889 16.3125C6.88889 16.832 6.46163 17.25 5.93056 17.25H2.41667V18.5C2.41667 18.8438 2.70257 19.125 3.05556 19.125H10.7222C10.7302 19.125 10.7382 19.0898 10.7502 19.0898C10.7302 19.2891 10.7222 19.4609 10.7222 19.6289C10.7222 20.1211 10.862 20.582 11.1016 20.9727C10.9778 20.9922 10.85 21 10.7222 21H3.05556C1.64401 21 0.5 19.8789 0.5 18.5V3.5C0.5 2.11914 1.64401 1 3.05556 1H10.7222C12.1318 1 13.2778 2.11914 13.2778 3.5V15.3672C12.4752 15.8047 11.8123 16.4531 11.3611 17.2383V3.5C11.3611 3.15469 11.0736 2.875 10.7222 2.875H3.05556C2.70257 2.875 2.41667 3.15469 2.41667 3.5ZM5.93056 5.375C5.93056 5.03125 6.21806 4.75 6.56944 4.75H7.20833C7.55972 4.75 7.84722 5.03125 7.84722 5.375V6.3125H8.80556C9.15694 6.3125 9.44444 6.59375 9.44444 6.9375V7.5625C9.44444 7.90625 9.15694 8.1875 8.80556 8.1875H7.84722V9.125C7.84722 9.46875 7.55972 9.75 7.20833 9.75H6.56944C6.21806 9.75 5.93056 9.46875 5.93056 9.125V8.1875H4.97222C4.62083 8.1875 4.33333 7.90625 4.33333 7.5625V6.9375C4.33333 6.59375 4.62083 6.3125 4.97222 6.3125H5.93056V5.375ZM20.9444 11.625C20.9444 13.3516 19.5149 14.75 17.75 14.75C15.9851 14.75 14.5556 13.3516 14.5556 11.625C14.5556 9.89844 15.9851 8.5 17.75 8.5C19.5149 8.5 20.9444 9.89844 20.9444 11.625ZM12 19.6367C12 17.6289 13.6651 16 15.7175 16H19.7825C21.8349 16 23.5 17.6289 23.5 19.6367C23.5 20.3906 22.8771 21 22.1064 21H13.3936C12.6229 21 12 20.3906 12 19.6367Z" fill="#848484"/>
</g>
<defs>
<clipPath id="clip0_122_11203">
<rect width="23" height="20" fill="white" transform="translate(0.5 1)"/>
</clipPath>
</defs>
</svg>
