<svg width="108" height="63" viewBox="0 0 108 63" fill="none" xmlns="http://www.w3.org/2000/svg">
<g clip-path="url(#clip0_766_5730)">
<rect width="61.7143" height="61.7143" rx="30.8571" transform="matrix(-1 0 0 1 61.7143 0.00012207)" fill="white"/>
<path d="M58.3587 54.1496L60.8671 58.9925C60.8671 58.9925 71.0589 56.1781 71.9683 55.6116C72.8776 55.045 73.8113 52.98 73.7198 51.1707C73.6282 49.3615 74.6169 48.4294 75.1112 48.6304C75.6056 48.8314 75.6971 49.1787 75.6971 49.1787C75.6971 49.1787 76.5759 48.6304 77.1801 48.7218C77.7843 48.8132 77.9125 49.3432 77.9125 49.3432C77.9125 49.3432 78.2786 48.8132 79.4321 49.27C80.5856 49.7269 79.5419 55.2644 78.3336 57.1102C77.1252 58.956 76.0084 59.2484 76.0084 59.2484L62.3517 69.6635C60.7688 70.8707 58.723 71.2972 56.7883 70.8231C54.8982 70.3601 53.3103 69.0855 52.4516 67.342L48.0875 58.4808L58.3587 54.1496Z" fill="#F5C8A4"/>
<path d="M2.31917 52.4509L6.11005 54.6166L6.99146 55.1211L11.448 57.6622L12.9767 58.5359L13.5807 57.6622L13.8026 57.3423L14.6779 56.0748L14.869 55.798V70.1091H45.6024C45.6024 70.1091 45.5655 68.1956 45.7565 66.2145C45.7811 65.9191 45.8181 65.6238 45.8613 65.3347C45.9969 64.3133 46.2127 63.3535 46.5332 62.7074C47.3345 61.12 47.8708 59.305 48.0864 58.5359C48.1543 58.296 48.1851 58.1544 48.1851 58.1544L49.3501 57.6622L52.2472 56.444L53.1286 56.0687L58.4542 53.8229L56.9934 50.8635L56.5558 49.9837L53.1903 43.1849L52.2472 41.2715L51.0267 38.8042C50.3733 37.4875 49.4118 36.3554 48.2468 35.5125C47.7783 35.168 47.2852 34.8727 46.7551 34.6327C46.3483 34.4358 45.9229 34.2758 45.4853 34.1466L45.436 34.1343L44.5607 33.8698L37.7496 31.8516L36.8681 31.5933L34.1745 30.7934L30.0569 30.3627L29.1817 30.2704L27.4188 30.0858L22.3705 31.5317L21.4891 31.784L14.6779 33.7344L14.08 33.9066C13.9876 33.9313 13.8951 33.962 13.8026 33.999C13.2725 34.1589 12.7733 34.3743 12.2925 34.6327C11.8178 34.8849 11.374 35.1803 10.9549 35.5125C9.8146 36.4108 8.89613 37.5859 8.29824 38.9396L6.99146 41.8928L6.11005 43.8863L3.41022 49.9837L3.02191 50.8635L2.31917 52.4509Z" fill="#705295"/>
<path d="M3.31577 50.3091H6.01561V44.2117L6.89701 42.2182V42.6366H13.7082V35.8379H10.8605C11.2796 35.5057 11.7234 35.2103 12.198 34.9581H13.7082V34.3244C13.8007 34.2874 13.8931 34.2567 13.9855 34.232L14.5835 34.0598V34.9581H21.3947V32.1094L22.2761 31.8571V34.9581H29.0872V30.5958L29.9625 30.6881V34.9581H36.7737V31.9187L37.6551 32.177V34.9581H44.4663V34.1952L45.3416 34.4597V34.9581H46.6607C47.1908 35.1981 47.6839 35.4934 48.1523 35.8379H45.3416V42.6366H52.1527V41.5969L53.0958 43.5103H53.0342V50.3091H56.4613L56.899 51.1889H53.0342V56.3941L52.1527 56.7694V51.1889H45.3416V57.9876H49.2557L48.0907 58.4798C48.0907 58.4798 48.0599 58.6214 47.992 58.8613H45.3416V65.6601H45.7669C45.7237 65.9492 45.6867 66.2445 45.6621 66.5399H45.3416V70.4345H44.4663V66.5399H37.6551V70.4345H36.7737V66.5399H29.9625V70.4345H29.0872V66.5399H22.2761V70.4345H21.3947V66.5399H14.7746V65.6601H21.3947V58.8613H14.7746V57.9876H21.3947V51.1889H14.5835V56.4002L13.7082 57.6677V51.1889H6.89701V55.4465L6.01561 54.942V51.1889H2.92746L3.31577 50.3091ZM45.3416 50.3091H52.1527V43.5103H45.3416V50.3091ZM37.6551 65.6601H44.4663V58.8613H37.6551V65.6601ZM37.6551 57.9876H44.4663V51.1889H37.6551V57.9876ZM37.6551 50.3091H44.4663V43.5103H37.6551V50.3091ZM37.6551 42.6366H44.4663V35.8379H37.6551V42.6366ZM29.9625 65.6601H36.7737V58.8613H29.9625V65.6601ZM29.9625 57.9876H36.7737V51.1889H29.9625V57.9876ZM29.9625 50.3091H36.7737V43.5103H29.9625V50.3091ZM29.9625 42.6366H36.7737V35.8379H29.9625V42.6366ZM22.2761 65.6601H29.0872V58.8613H22.2761V65.6601ZM22.2761 57.9876H29.0872V51.1889H22.2761V57.9876ZM22.2761 50.3091H29.0872V43.5103H22.2761V50.3091ZM22.2761 42.6366H29.0872V35.8379H22.2761V42.6366ZM14.5835 50.3091H21.3947V43.5103H14.5835V50.3091ZM14.5835 42.6366H21.3947V35.8379H14.5835V42.6366ZM6.89701 50.3091H13.7082V43.5103H6.89701V50.3091ZM13.4863 57.9876L12.8822 58.8613L11.3536 57.9876H13.4863Z" fill="#C6BAD5"/>
<path d="M12.8851 58.863L10.0838 62.9749L22.6802 65.0949C22.6802 65.0949 25.0512 62.646 27.0286 62.3719C29.0059 62.0978 29.72 62.646 29.4728 63.3862C29.2256 64.1263 27.0561 65.634 27.0561 65.634C27.0561 65.634 31.4501 66.6757 32.0818 66.7032C32.7134 66.7306 35.4872 64.7568 36.1738 65.2228C36.8604 65.6888 36.1738 67.1418 36.1738 67.1418C36.1738 67.1418 36.2287 68.6221 35.7069 69.3896C35.1851 70.1572 34.7457 70.4313 34.7457 70.4313C34.7457 70.4313 35.0203 71.3359 33.6472 72.268C32.274 73.2 30.8459 73.5564 29.1981 73.5838C27.5504 73.6112 23.6232 71.6375 23.6232 71.6375L4.53496 73.783C2.4253 74.0202 0.326202 73.2572 -1.13681 71.7217C-2.96732 69.8003 -3.5052 66.9889 -2.51278 64.5294L2.22937 52.7773L12.8851 58.863Z" fill="#F5C8A4"/>
<path d="M14.773 56.1222L20.1833 48.7207" stroke="#013759" stroke-width="0.637123" stroke-linecap="round" stroke-linejoin="round"/>
<path d="M48.0899 58.48C49.1884 53.8198 45.838 49.4337 45.5633 47.4052" stroke="#573C97" stroke-width="0.637123" stroke-linecap="round" stroke-linejoin="round"/>
<path d="M60.8721 58.9912L56.7709 59.8067" stroke="#ED5B96" stroke-width="0.424749" stroke-linecap="round" stroke-linejoin="round"/>
<path d="M24.7482 6.72521C21.6449 4.01131 17.5804 5.62867 16.8389 9.21974C16.0973 12.8109 20.2718 17.4985 22.661 14.0993C25.0503 10.7001 23.787 7.41236 23.787 7.41236" fill="#0A1E25"/>
<path d="M38.0485 22.4422C43.1475 20.6878 43.6968 13.0487 42.1589 10.7094C40.6209 8.37015 38.0485 11.1846 38.0485 11.1846C38.0485 11.1846 38.0943 6.98127 34.2128 6.35989C30.3314 5.7385 26.926 6.98127 25.0951 6.68882C24.1287 6.53449 23.8807 7.00322 23.5692 7.38457C23.2905 7.7258 22.8889 7.93365 23.0445 8.58946C23.374 9.97839 22.7882 11.0812 21.4699 14.3128C20.1517 17.5444 20.8109 28.8739 28.7202 26.6084" fill="#0A1E25"/>
<path d="M26.4461 25.0105V32.1907C26.4461 32.1907 28.6712 34.2764 31.4142 34.2764C34.1633 34.2764 34.8228 32.1907 34.8228 32.1907V28.4929L26.4461 25.0105Z" fill="#F5C8A4"/>
<path d="M26.4461 25.0105V26.5425C29.9164 31.5385 33.4421 31.7354 34.8228 31.5816V28.4929L26.4461 25.0105Z" fill="#ED875B"/>
<path d="M38.5883 14.5104V22.8844C38.5883 24.6437 37.8881 26.3308 36.6419 27.5747L36.1047 28.111C35.2426 28.9716 34.0732 29.455 32.854 29.455C32.0293 29.455 31.2199 29.2337 30.5105 28.8141L27.0918 26.7921C25.6224 25.9231 24.7214 24.3448 24.7214 22.64C24.7214 22.64 22.9956 23.7129 21.9662 21.9827C20.9368 20.2525 22.5112 18.8321 23.6314 18.8925C24.7516 18.953 25.993 21.2801 25.993 21.2801V17.049C25.993 17.049 27.3555 16.9281 29.3234 17.5023C31.2915 18.0765 36.7111 18.137 38.5883 14.5104Z" fill="#F5C8A4"/>
<path d="M23.0446 20.1581C23.484 19.7195 24.7197 21.1572 23.5023 21.7846" stroke="#ED875B" stroke-width="0.424749" stroke-linecap="round" stroke-linejoin="round"/>
<path d="M34.7457 20.5594L35.6049 22.8014C35.7027 23.0566 35.5538 23.3395 35.2879 23.4038L34.581 23.5749" stroke="#ED875B" stroke-width="0.424749" stroke-linecap="round" stroke-linejoin="round"/>
<path d="M30.7156 21.2178C30.7156 21.5307 30.9697 21.7843 31.2832 21.7843C31.5967 21.7843 31.8508 21.5307 31.8508 21.2178C31.8508 20.9049 31.5967 20.6512 31.2832 20.6512C30.9697 20.6512 30.7156 20.9049 30.7156 21.2178Z" fill="#462E69"/>
<path d="M36.3511 21.2178C36.3511 21.5307 36.6053 21.7843 36.9187 21.7843C37.2322 21.7843 37.4863 21.5307 37.4863 21.2178C37.4863 20.9049 37.2322 20.6512 36.9187 20.6512C36.6053 20.6512 36.3511 20.9049 36.3511 21.2178Z" fill="#462E69"/>
<path d="M32.216 19.1893C32.216 19.1893 31.4837 18.3852 29.9641 19.1893" stroke="#462E69" stroke-width="0.424749" stroke-linecap="round" stroke-linejoin="round"/>
<path d="M35.7948 19.1893C35.7948 19.1893 36.5271 18.3852 38.0467 19.1893" stroke="#462E69" stroke-width="0.424749" stroke-linecap="round" stroke-linejoin="round"/>
<path d="M31.4925 24.7948C31.3687 25.6642 31.9745 26.4691 32.8454 26.5926C33.7164 26.7162 34.5228 26.1115 34.6465 25.2422" fill="white"/>
<path d="M22.7587 8.88204L25.1494 6.57407C25.3239 6.40566 25.3286 6.12797 25.1599 5.95386C24.9912 5.77975 24.7129 5.77512 24.5385 5.94353L22.1477 8.25149C21.9733 8.4199 21.9687 8.69754 22.1374 8.8717C22.3061 9.04581 22.5842 9.05044 22.7587 8.88204Z" fill="#705295"/>
</g>
<rect x="-0.385714" y="0.385714" width="60.9429" height="60.9429" rx="30.4714" transform="matrix(-1 0 0 1 60.9429 0.00012207)" stroke="#F3F3F3" stroke-width="0.771429"/>
<g clip-path="url(#clip1_766_5730)">
<rect width="61.7143" height="61.7143" rx="30.8571" transform="matrix(-1 0 0 1 108.001 0.00012207)" fill="white"/>
<path d="M68.6006 35.9416V63.439H83.6021V35.4349L81.5845 34.719L72.2219 35.1049L68.6006 35.9416Z" fill="#FFE9D9"/>
<path d="M68.6006 39.2375H83.6021V41.1156H68.6006V39.2375Z" fill="#FFC79F"/>
<path d="M68.6006 45.374H83.6021V47.2521H68.6006V45.374Z" fill="#FFC79F"/>
<path d="M68.6006 51.5101H83.6021V53.3882H68.6006V51.5101Z" fill="#FFC79F"/>
<path d="M68.6005 57.6458H83.6021V59.5239H68.6005V57.6458Z" fill="#FFC79F"/>
<path d="M83.6013 35.4348V63.4389H99.7278V41.1528L86.5625 36.4855L83.6013 35.4348Z" fill="white"/>
<path d="M54.7645 39.53V63.7547H68.9247V36.2573L64.6618 37.2428L54.7645 39.53Z" fill="white"/>
<path d="M86.5624 36.4855L83.6011 35.4348V46.3129H87.367C88.8458 46.3129 89.8593 44.8223 89.3154 43.4471L86.5624 36.4855Z" fill="#FFC79F"/>
<path d="M64.5697 46.313H68.6036V35.9417L64.3407 36.9272L62.5448 43.6792C62.1911 45.009 63.1936 46.313 64.5697 46.313Z" fill="#FFC79F"/>
<path d="M66.9687 8.79877C67.0101 6.47898 74.0523 1.83941 82.4615 4.90484C90.8706 7.97026 91.492 16.5184 90.3735 19.6179C89.2551 22.7174 92.9833 28.1855 88.758 31.7894C84.5327 35.3934 81.0116 32.6772 76.8692 33.0411C72.7267 33.405 65.146 34.6063 64.2346 32.0794C63.3233 29.5525 60.8378 8.63307 66.9687 8.79877Z" fill="#013759"/>
<path d="M82.0418 27.3285V36.556C82.0418 36.556 79.1873 39.2366 75.6687 39.2366C72.1422 39.2366 71.2961 36.556 71.2961 36.556V31.8039L82.0418 27.3285Z" fill="#F5C8A4"/>
<path d="M82.0418 27.3285V29.2973C77.5901 35.7179 73.0673 35.9709 71.2961 35.7733V31.8039L82.0418 27.3285Z" fill="#ED875B"/>
<path d="M66.4672 12.9857V24.5969C66.4672 26.8577 67.3653 29.026 68.9639 30.6246L69.6531 31.3137C70.7591 32.4197 72.2591 33.041 73.8231 33.041C74.8809 33.041 75.9193 32.7565 76.8293 32.2173L81.2149 29.6188C83.0998 28.502 84.2556 26.4736 84.2556 24.2827C84.2556 24.2827 86.4695 25.6616 87.79 23.438C89.1105 21.2145 87.0909 19.389 85.6538 19.4667C84.2168 19.5443 82.6243 22.535 82.6243 22.535V17.0975C82.6243 17.0975 80.9787 17.8165 78.352 17.68C75.7254 17.5436 68.8752 17.6464 66.4672 12.9857Z" fill="#F5C8A4"/>
<path fill-rule="evenodd" clip-rule="evenodd" d="M85.9263 21.2022C86.103 21.1097 86.2254 21.1268 86.2983 21.1997C86.3574 21.2588 86.4532 21.2588 86.5123 21.1997C86.5714 21.1406 86.5714 21.0448 86.5123 20.9857C86.3034 20.7768 86.0162 20.8135 85.7859 20.9341C85.5523 21.0564 85.3301 21.283 85.1822 21.5511C85.0339 21.8198 84.9517 22.1467 85.0241 22.4701C85.0977 22.7989 85.3257 23.0991 85.7487 23.3175C85.823 23.3558 85.9142 23.3267 85.9526 23.2524C85.9909 23.1782 85.9618 23.0869 85.8875 23.0486C85.5297 22.8638 85.3701 22.6307 85.3194 22.4039C85.2674 22.1717 85.3239 21.9207 85.4471 21.6972C85.5708 21.473 85.7529 21.293 85.9263 21.2022Z" fill="#ED875B"/>
<path fill-rule="evenodd" clip-rule="evenodd" d="M71.6523 21.4673C71.5742 21.4374 71.4868 21.4765 71.4569 21.5546L70.3547 24.4358L70.3547 24.4358C70.1967 24.8489 70.4373 25.3069 70.8671 25.4111L70.8671 25.4111L71.774 25.6309C71.8552 25.6506 71.937 25.6007 71.9566 25.5195C71.9763 25.4383 71.9265 25.3565 71.8452 25.3368L70.9384 25.117C70.9384 25.117 70.9384 25.117 70.9384 25.117C70.6858 25.0558 70.5445 24.7867 70.6373 24.5439C70.6373 24.5439 70.6373 24.5439 70.6373 24.5439L71.7395 21.6627C71.7694 21.5846 71.7303 21.4972 71.6523 21.4673Z" fill="#ED875B"/>
<path d="M75.8357 23.1831C75.4336 23.1831 75.1076 22.8571 75.1076 22.455C75.1076 22.0529 75.4336 21.7269 75.8357 21.7269C76.2378 21.7269 76.5638 22.0529 76.5638 22.455C76.5638 22.8571 76.2378 23.1831 75.8357 23.1831Z" fill="#013759"/>
<path d="M68.6072 23.1831C68.2051 23.1831 67.8791 22.8571 67.8791 22.455C67.8791 22.0529 68.2051 21.7269 68.6072 21.7269C69.0093 21.7269 69.3352 22.0529 69.3352 22.455C69.3352 22.8571 69.0093 23.1831 68.6072 23.1831Z" fill="#013759"/>
<path fill-rule="evenodd" clip-rule="evenodd" d="M74.6432 19.8474C74.5313 19.7457 74.5314 19.7456 74.5315 19.7455L74.6432 19.8474Z" fill="#013759"/>
<path fill-rule="evenodd" clip-rule="evenodd" d="M69.9411 19.9502C69.9412 19.9503 69.9413 19.9505 69.9414 19.9506L69.9415 19.9507C69.9415 19.9507 69.9414 19.9506 69.9414 19.9505L69.9412 19.9503L69.9411 19.9502ZM69.9407 19.9498L69.9414 19.9506C69.9977 20.0119 70.093 20.0163 70.1546 19.9602C70.2165 19.904 70.221 19.8083 70.1648 19.7465L70.0529 19.8483C70.1648 19.7465 70.1647 19.7464 70.1647 19.7463L70.1645 19.7461L70.164 19.7457L70.1629 19.7444L70.1595 19.7409C70.1568 19.738 70.1532 19.7343 70.1485 19.7297C70.1393 19.7205 70.1262 19.7079 70.1093 19.6929C70.0754 19.6627 70.0259 19.6223 69.9608 19.5779C69.8304 19.4891 69.6368 19.3843 69.3789 19.3147C68.8591 19.1744 68.0976 19.1821 67.0932 19.7146C67.0193 19.7537 66.9912 19.8453 67.0304 19.9192C67.0695 19.993 67.1611 20.0211 67.2349 19.982C68.1799 19.481 68.8628 19.4888 69.3 19.6068C69.5206 19.6664 69.6837 19.7553 69.7904 19.828C69.8438 19.8644 69.883 19.8966 69.9081 19.9189C69.9207 19.9301 69.9297 19.9388 69.9351 19.9442C69.9379 19.9469 69.9397 19.9488 69.9407 19.9498Z" fill="#013759"/>
<path fill-rule="evenodd" clip-rule="evenodd" d="M76.9807 19.9502C76.9809 19.9503 76.981 19.9505 76.9811 19.9506L76.9811 19.9507C76.9812 19.9507 76.9811 19.9506 76.981 19.9505L76.9808 19.9503L76.9807 19.9502ZM76.9804 19.9498L76.9811 19.9506C77.0374 20.0119 77.1327 20.0163 77.1943 19.9602C77.2561 19.904 77.2607 19.8083 77.2045 19.7465L77.0926 19.8483C77.2045 19.7465 77.2044 19.7464 77.2043 19.7463L77.2041 19.7461L77.2037 19.7457L77.2026 19.7444L77.1992 19.7409C77.1965 19.738 77.1928 19.7343 77.1882 19.7297C77.179 19.7205 77.1659 19.7079 77.1489 19.6929C77.115 19.6627 77.0656 19.6223 77.0005 19.5779C76.8701 19.4891 76.6765 19.3843 76.4186 19.3147C75.8987 19.1744 75.1373 19.1821 74.1328 19.7146C74.059 19.7537 74.0309 19.8453 74.07 19.9192C74.1092 19.993 74.2008 20.0211 74.2746 19.982C75.2195 19.481 75.9025 19.4888 76.3397 19.6068C76.5603 19.6664 76.7234 19.7553 76.8301 19.828C76.8835 19.8644 76.9227 19.8966 76.9478 19.9189C76.9603 19.9301 76.9694 19.9388 76.9748 19.9442C76.9776 19.9469 76.9794 19.9488 76.9804 19.9498Z" fill="#013759"/>
<path d="M71.6148 27.3691C71.6241 28.0943 72.0099 28.7266 72.5817 29.0799C72.9025 29.2798 73.279 29.3913 73.6835 29.3867C74.2971 29.3774 74.8456 29.0985 75.2129 28.6661C75.5244 28.3035 75.7057 27.834 75.7011 27.3226L71.6148 27.3691Z" fill="#013759"/>
<path d="M72.5851 29.0795C72.9058 29.2794 73.2824 29.3909 73.6868 29.3863C74.3005 29.377 74.849 29.0981 75.2162 28.6657C74.9048 28.5077 74.5561 28.4193 74.1889 28.4193C73.5659 28.4193 73.0035 28.6657 72.5851 29.0795Z" fill="#ED875B"/>
<path fill-rule="evenodd" clip-rule="evenodd" d="M78.3811 21.1645C78.683 21.1645 78.9281 21.4097 78.9281 21.7115V22.7376C78.9281 24.0454 77.8662 25.1073 76.5584 25.1073H75.3157C74.0079 25.1073 72.946 24.0454 72.946 22.7376V21.7115C72.946 21.4097 73.1911 21.1645 73.493 21.1645H78.3811ZM79.2839 21.7115C79.2839 21.2132 78.8795 20.8087 78.3811 20.8087H73.493C72.9946 20.8087 72.5902 21.2132 72.5902 21.7115V22.7376C72.5902 24.2419 73.8114 25.4631 75.3157 25.4631H76.5584C78.0627 25.4631 79.2839 24.2419 79.2839 22.7376V21.7115Z" fill="white"/>
<path fill-rule="evenodd" clip-rule="evenodd" d="M69.6036 21.1645C69.9054 21.1645 70.1506 21.4097 70.1506 21.7115V22.7376C70.1506 24.0454 69.0887 25.1073 67.7809 25.1073H66.5382C65.2303 25.1073 64.1684 24.0454 64.1684 22.7376V21.7115C64.1684 21.4097 64.4136 21.1645 64.7155 21.1645H69.6036ZM70.5064 21.7115C70.5064 21.2132 70.1019 20.8087 69.6036 20.8087H64.7155C64.2171 20.8087 63.8126 21.2132 63.8126 21.7115V22.7376C63.8126 24.2419 65.0338 25.4631 66.5382 25.4631H67.7809C69.2852 25.4631 70.5064 24.2419 70.5064 22.7376V21.7115Z" fill="white"/>
<path fill-rule="evenodd" clip-rule="evenodd" d="M70.3322 22.2456H72.7669V21.8898H70.3322V22.2456Z" fill="white"/>
<path fill-rule="evenodd" clip-rule="evenodd" d="M83.0115 21.7103H79.107V22.0661H83.0115V21.7103Z" fill="white"/>
</g>
<rect x="-0.385714" y="0.385714" width="60.9429" height="60.9429" rx="30.4714" transform="matrix(-1 0 0 1 107.229 0.00012207)" stroke="#F3F3F3" stroke-width="0.771429"/>
<path d="M44.9958 39.3448H63.7751C64.3427 39.3448 64.7994 39.8019 64.7995 40.3615V60.6993C64.7995 61.259 64.3429 61.7159 63.7751 61.7159H44.9958C44.4281 61.7159 43.9714 61.259 43.9714 60.6993V40.3615C43.9716 39.8019 44.4282 39.3448 44.9958 39.3448Z" fill="white" stroke="#E6E6E6" stroke-width="0.771429"/>
<g filter="url(#filter0_d_766_5730)">
<path d="M56.7396 56.1325V52.9712C55.6343 51.8216 53.1475 53.8334 52.0422 54.9829V57.8569H55.0817C56.408 57.627 56.7396 56.6115 56.7396 56.1325Z" fill="#9D86B9"/>
<path d="M54.8054 50.0972C53.1475 51.5341 52.3185 53.3543 52.0422 54.4081C54.4738 50.4996 57.6607 50.2888 58.9501 50.672C55.4133 50.9019 52.8711 53.6417 52.0422 54.9829C52.9264 54.0632 54.6211 53.4501 55.358 53.2585C56.2422 53.0286 57.7528 52.9711 58.3975 52.9711C61.0502 52.5113 61.7133 50.672 61.7133 49.8098V48.0854C58.8396 47.6256 56.187 48.8997 54.8054 50.0972Z" fill="#705295"/>
<path d="M53.7001 43.2002H56.7396V47.7985C53.1475 50.0976 53.1475 50.9598 52.0422 52.9716V45.212C52.0422 43.6025 53.1475 43.2002 53.7001 43.2002Z" fill="#FFD6B9"/>
<path d="M47.07 52.9718C46.7936 48.3734 50.4779 47.8945 52.0437 48.0861V52.9718H47.07Z" fill="#FFC79F"/>
</g>
<defs>
<filter id="filter0_d_766_5730" x="45.8221" y="43.2002" width="17.1244" height="17.1231" filterUnits="userSpaceOnUse" color-interpolation-filters="sRGB">
<feFlood flood-opacity="0" result="BackgroundImageFix"/>
<feColorMatrix in="SourceAlpha" type="matrix" values="0 0 0 0 0 0 0 0 0 0 0 0 0 0 0 0 0 0 127 0" result="hardAlpha"/>
<feOffset dy="1.23316"/>
<feGaussianBlur stdDeviation="0.616579"/>
<feComposite in2="hardAlpha" operator="out"/>
<feColorMatrix type="matrix" values="0 0 0 0 0 0 0 0 0 0 0 0 0 0 0 0 0 0 0.25 0"/>
<feBlend mode="normal" in2="BackgroundImageFix" result="effect1_dropShadow_766_5730"/>
<feBlend mode="normal" in="SourceGraphic" in2="effect1_dropShadow_766_5730" result="shape"/>
</filter>
<clipPath id="clip0_766_5730">
<rect width="61.7143" height="61.7143" rx="30.8571" transform="matrix(-1 0 0 1 61.7143 0.00012207)" fill="white"/>
</clipPath>
<clipPath id="clip1_766_5730">
<rect width="61.7143" height="61.7143" rx="30.8571" transform="matrix(-1 0 0 1 108.001 0.00012207)" fill="white"/>
</clipPath>
</defs>
</svg>
