<svg width="69" height="67" viewBox="0 0 69 67" fill="none" xmlns="http://www.w3.org/2000/svg">
<path d="M3.72498 64H53.8634C54.968 64 55.8634 63.1046 55.8634 62V5C55.8634 3.89543 54.968 3 53.8634 3H3.72498C2.62041 3 1.72498 3.89543 1.72498 5V62C1.72498 63.1046 2.62041 64 3.72498 64Z" fill="#E2D8E3"/>
<path d="M43.1865 0H14.4019C13.8496 0 13.4019 0.447715 13.4019 1V4C13.4019 4.55228 13.8496 5 14.4019 5H43.1865C43.7388 5 44.1865 4.55228 44.1865 4V1C44.1865 0.447715 43.7388 0 43.1865 0Z" fill="#705295"/>
<path d="M7.99371 10.2158H22.2841" stroke="#705295" stroke-width="0.516129" stroke-miterlimit="10" stroke-linecap="round" stroke-linejoin="round"/>
<path d="M7.99365 13.5713H28.5166" stroke="#705295" stroke-width="0.516129" stroke-miterlimit="10" stroke-linecap="round" stroke-linejoin="round"/>
<path d="M7.99365 16.9277H28.5166" stroke="#705295" stroke-width="0.516129" stroke-miterlimit="10" stroke-linecap="round" stroke-linejoin="round"/>
<path d="M7.99365 20.2842H28.5166" stroke="#705295" stroke-width="0.516129" stroke-miterlimit="10" stroke-linecap="round" stroke-linejoin="round"/>
<path d="M7.99365 23.6396H28.5166" stroke="#705295" stroke-width="0.516129" stroke-miterlimit="10" stroke-linecap="round" stroke-linejoin="round"/>
<path d="M7.99365 30.5372H22.2841" stroke="#705295" stroke-width="0.516129" stroke-miterlimit="10" stroke-linecap="round" stroke-linejoin="round"/>
<path d="M7.99359 33.8936H28.5165" stroke="#705295" stroke-width="0.516129" stroke-miterlimit="10" stroke-linecap="round" stroke-linejoin="round"/>
<path d="M7.99359 37.2494H28.5165" stroke="#705295" stroke-width="0.516129" stroke-miterlimit="10" stroke-linecap="round" stroke-linejoin="round"/>
<path d="M7.99359 40.6057H28.5165" stroke="#705295" stroke-width="0.516129" stroke-miterlimit="10" stroke-linecap="round" stroke-linejoin="round"/>
<path d="M7.99365 43.9611H28.5166" stroke="#705295" stroke-width="0.516129" stroke-miterlimit="10" stroke-linecap="round" stroke-linejoin="round"/>
<path d="M7.99365 50.8594H22.2841" stroke="#705295" stroke-width="0.516129" stroke-miterlimit="10" stroke-linecap="round" stroke-linejoin="round"/>
<path d="M7.99365 54.2148H28.5166" stroke="#705295" stroke-width="0.516129" stroke-miterlimit="10" stroke-linecap="round" stroke-linejoin="round"/>
<path d="M7.99365 57.5713H28.5166" stroke="#705295" stroke-width="0.516129" stroke-miterlimit="10" stroke-linecap="round" stroke-linejoin="round"/>
<path d="M48.892 17.6201C48.892 19.9907 47.8785 22.1377 46.2363 23.6955C45.6993 24.2063 45.0945 24.6533 44.4363 25.0231C43.0675 25.796 41.4676 26.2389 39.7578 26.2389C39.638 26.2389 39.5196 26.2363 39.4026 26.2323C37.7322 26.1724 36.1774 25.6882 34.8538 24.8914C34.2124 24.5056 33.626 24.0467 33.1073 23.5265C31.568 21.9847 30.625 19.9055 30.625 17.6201C30.625 12.8591 34.7142 9 39.7578 9C44.8028 9 48.892 12.8591 48.892 17.6201Z" fill="white"/>
<path d="M44.2863 23.3509C44.2863 23.3509 43.962 16.0547 43.8195 14.364C43.6561 12.4257 42.8392 11.1016 41.1587 10.9033C40.4085 10.8149 39.8512 10.9911 39.5006 11.2097L39.5004 11.2096C36.4822 10.7787 36.2867 14.7587 36.2867 14.7587C35.837 17.8516 35.837 23.1528 35.837 23.1528L44.2863 23.3509Z" fill="#0A1E25"/>
<path d="M46.2355 23.6953C45.6985 24.2061 45.0937 24.6531 44.4355 25.0229C43.0667 25.7958 41.4668 26.2388 39.757 26.2388C39.6372 26.2388 39.5188 26.2361 39.4018 26.2321C37.7314 26.1723 36.1766 25.6881 34.853 24.8912C34.2116 24.5055 33.6252 24.0465 33.1065 23.5264L33.1178 23.4958C33.3729 22.824 33.9325 22.2932 34.6444 22.0485L34.8135 21.9899L35.8538 21.6321L36.99 21.2423C37.1253 21.1957 37.2535 21.1359 37.3734 21.0627C37.4086 21.0414 37.4424 21.0202 37.4763 20.9962C37.7074 20.8352 37.8963 20.6251 38.0232 20.379L38.0486 20.3271C38.1627 20.0943 38.2501 19.8482 38.3065 19.5901L38.4179 19.0806L38.4855 18.7707V18.7693L38.6364 18.0869H40.6408L40.7902 18.7707L40.9707 19.5901C40.9989 19.7205 41.0355 19.8495 41.0806 19.9732C41.1229 20.0943 41.1722 20.2127 41.2286 20.3271L41.254 20.379C41.3809 20.6251 41.5697 20.8352 41.8009 20.9962C41.8347 21.0202 41.8686 21.0414 41.9038 21.0627C42.0236 21.1359 42.1519 21.1957 42.2872 21.2423L44.2198 21.9061L44.4636 21.9899L44.6328 22.0485C45.3446 22.2932 45.9043 22.824 46.1594 23.4958L46.2355 23.6953Z" fill="#F69779"/>
<path d="M41.0806 19.9734C40.7325 20.0612 40.4844 20.0612 40.4844 20.0612C40.4844 20.0612 39.2496 20.0612 38.4179 19.0807L38.6364 18.087H40.6408L40.9707 19.5902C40.9989 19.7206 41.0355 19.8496 41.0806 19.9734Z" fill="#F37A67"/>
<path d="M42.3931 16.4623C42.0013 19.0563 39.6388 19.0563 39.6388 19.0563C39.6388 19.0563 37.9319 19.0563 37.1792 17.4632C36.967 17.0142 36.8827 16.5208 36.897 16.0294L36.9094 15.5996C36.918 15.3024 36.9659 15.0063 37.0547 14.721C37.2232 14.1796 37.4149 13.7536 37.6129 13.4185C38.2004 12.4241 39.5369 12.0406 40.6061 12.5681C41.7777 13.1461 42.2071 14.2169 42.3537 15.0895C42.3565 15.1573 42.3565 15.1959 42.3565 15.1959C42.3607 15.1946 42.365 15.1919 42.3692 15.1892C42.4735 15.9036 42.3931 16.4623 42.3931 16.4623Z" fill="#F69779"/>
<path d="M44.4344 25.0233C43.0656 25.7962 41.4657 26.2392 39.7559 26.2392C39.6361 26.2392 39.5177 26.2365 39.4007 26.2325C37.7303 26.1727 36.1755 25.6884 34.8519 24.8916C34.9379 23.7157 34.9816 22.4346 34.8124 21.9903L35.8527 21.6325L36.9889 21.2427C37.1242 21.1961 37.2525 21.1363 37.3723 21.0631C37.4075 21.0418 37.4413 21.0205 37.4752 20.9966L37.5118 20.9846H39.0525V23.1277C39.0525 23.1516 39.0539 23.1756 39.0567 23.1995C39.0582 23.2088 39.0596 23.2195 39.061 23.2288C39.1498 23.8194 40.0956 23.8287 40.2098 23.2554C40.214 23.2368 40.2168 23.2181 40.2183 23.1995C40.2211 23.1756 40.2225 23.1516 40.2225 23.1277V20.9846H41.7632L41.7998 20.9966C41.8337 21.0205 41.8675 21.0418 41.9027 21.0631C42.0225 21.1363 42.1508 21.1961 42.2861 21.2427L44.2187 21.9065L44.4626 21.9903C44.3935 22.1712 44.3597 22.4905 44.3498 22.8842C44.3498 22.8856 44.3498 22.8856 44.3498 22.8856C44.3343 23.4975 44.3766 24.289 44.4344 25.0233Z" fill="#705295"/>
<path d="M39.0534 21.2553C39.0534 21.2553 37.9529 21.3487 37.3672 21.0789L37.658 20.2678C37.658 20.2678 38.3645 20.4068 39.0534 20.3812V21.2553Z" fill="#FF8D28"/>
<path d="M40.2224 21.2553C40.2224 21.2553 41.3229 21.3487 41.9086 21.0789L41.6178 20.2678C41.6178 20.2678 40.9113 20.4068 40.2224 20.3812V21.2553Z" fill="#FF8D28"/>
<path d="M40.6886 23.0143H38.5903C38.5078 23.0143 38.441 22.9512 38.441 22.8734C38.441 22.7956 38.5078 22.7325 38.5903 22.7325H40.6886C40.771 22.7325 40.8379 22.7956 40.8379 22.8734C40.8379 22.9512 40.771 23.0143 40.6886 23.0143Z" fill="#0A1E25"/>
<path d="M40.6886 22.0455H38.5903C38.5078 22.0455 38.441 21.9825 38.441 21.9047C38.441 21.8268 38.5078 21.7638 38.5903 21.7638H40.6886C40.771 21.7638 40.8379 21.8268 40.8379 21.9047C40.8379 21.9825 40.771 22.0455 40.6886 22.0455Z" fill="#0A1E25"/>
<path d="M44.4357 25.0226C43.067 25.7955 41.4671 26.2385 39.7573 26.2385C39.6374 26.2385 39.519 26.2358 39.402 26.2318C42.6737 25.7117 43.8099 24.1433 44.182 23.3478C44.2215 23.2653 44.2525 23.1909 44.2764 23.127C44.3229 23.0006 44.3441 22.9155 44.3511 22.8849C44.3356 23.4968 44.3779 24.2883 44.4357 25.0226Z" fill="#FF8D28"/>
<path d="M39.5264 15.1437V16.6656H39.7997C40.2682 16.6656 39.6134 15.3186 39.5264 15.1437Z" fill="#F37A67"/>
<path d="M41.5142 14.5511C41.1364 14.375 40.7165 14.3488 40.3228 14.4966C40.1561 14.5592 40.2287 14.8167 40.3978 14.7532C40.7205 14.6321 41.0584 14.6347 41.372 14.7809C41.5342 14.8566 41.6772 14.6271 41.5142 14.5511Z" fill="#0A1E25"/>
<path d="M41.1737 15.0248C41.0879 14.8843 40.9079 14.8928 40.9079 14.8928C40.761 14.8928 40.642 15.0051 40.642 15.1437C40.642 15.2823 40.761 15.3946 40.9079 15.3946C40.9403 15.3946 40.9709 15.3883 40.9996 15.3783L40.9998 15.379C41.0015 15.3785 41.0027 15.3775 41.0044 15.3769C41.013 15.3737 41.0211 15.3697 41.0291 15.3657C41.2615 15.2706 41.2864 15.027 41.2864 15.027C41.24 15.064 41.1737 15.0248 41.1737 15.0248Z" fill="#0A1E25"/>
<path d="M37.805 14.5511C38.1827 14.375 38.6027 14.3488 38.9964 14.4966C39.1631 14.5592 39.0905 14.8167 38.9214 14.7532C38.5987 14.6321 38.2608 14.6347 37.9472 14.7809C37.7848 14.8566 37.6419 14.6271 37.805 14.5511Z" fill="#0A1E25"/>
<path d="M38.1452 15.0248C38.231 14.8843 38.411 14.8928 38.411 14.8928C38.5579 14.8928 38.6769 15.0051 38.6769 15.1437C38.6769 15.2823 38.5577 15.3946 38.411 15.3946C38.3786 15.3946 38.348 15.3883 38.3192 15.3783L38.3191 15.379C38.3174 15.3785 38.3161 15.3775 38.3145 15.3769C38.3059 15.3737 38.2978 15.3697 38.2898 15.3657C38.0573 15.2706 38.0325 15.027 38.0325 15.027C38.0789 15.064 38.1452 15.0248 38.1452 15.0248Z" fill="#0A1E25"/>
<path d="M38.7929 17.4757C38.8866 17.8059 39.2383 18.0517 39.6592 18.0517C40.0802 18.0517 40.4318 17.8059 40.5256 17.4757H38.7929Z" fill="white"/>
<path d="M46.6218 19.959C47.0637 19.959 47.4226 20.317 47.4226 20.7588V22.1211C47.4227 22.2314 47.5116 22.3211 47.6218 22.3213H49.1248C49.5666 22.3213 49.9246 22.6793 49.9246 23.1211V25.1377C49.9244 25.5794 49.5665 25.9375 49.1248 25.9375H47.6218C47.5115 25.9377 47.4226 26.0273 47.4226 26.1377V27.5C47.4224 27.9416 47.0635 28.2998 46.6218 28.2998H44.4255C43.9839 28.2997 43.626 27.9416 43.6257 27.5V26.1377C43.6257 26.0272 43.536 25.9375 43.4255 25.9375H41.9226C41.4809 25.9375 41.123 25.5794 41.1228 25.1377V23.1211C41.1228 22.6793 41.4808 22.3213 41.9226 22.3213H43.4255C43.5359 22.3213 43.6256 22.2315 43.6257 22.1211V20.7588C43.6257 20.317 43.9838 19.9591 44.4255 19.959H46.6218Z" fill="#F76D00" stroke="white" stroke-width="0.6"/>
<rect x="39.14" y="38.515" width="26.35" height="26.35" rx="13.175" fill="#FF8D28"/>
<rect x="39.14" y="38.515" width="26.35" height="26.35" rx="13.175" stroke="#FEF0E6" stroke-width="2.97"/>
<path d="M58.625 47V50C58.625 50.1326 58.5723 50.2597 58.4786 50.3535C58.3848 50.4473 58.2576 50.5 58.125 50.5H55.125C55.0261 50.5 54.9293 50.4708 54.847 50.4158C54.7647 50.3609 54.7006 50.2828 54.6627 50.1914C54.6248 50.0999 54.6149 49.9994 54.6342 49.9023C54.6536 49.8053 54.7012 49.7161 54.7712 49.6462L55.9156 48.5C54.995 47.6179 53.7706 47.1236 52.4956 47.1193H52.4675C51.1611 47.1168 49.9062 47.6287 48.9744 48.5443C48.8789 48.6335 48.7523 48.6817 48.6217 48.6787C48.4911 48.6757 48.3669 48.6217 48.2756 48.5283C48.1843 48.4349 48.1332 48.3094 48.1332 48.1788C48.1332 48.0482 48.1843 47.9228 48.2756 47.8293C49.3902 46.7403 50.8848 46.1277 52.4431 46.121C54.0014 46.1144 55.5011 46.7143 56.625 47.7937L57.7725 46.6462C57.8425 46.5766 57.9315 46.5293 58.0283 46.5102C58.1252 46.4912 58.2255 46.5012 58.3166 46.539C58.4078 46.5768 58.4857 46.6408 58.5406 46.7228C58.5955 46.8048 58.6248 46.9013 58.625 47ZM56.2756 55.4556C55.3495 56.3602 54.1085 56.8703 52.814 56.8785C51.5194 56.8868 50.272 56.3926 49.3344 55.5L50.4788 54.3556C50.5494 54.2858 50.5977 54.1965 50.6174 54.0991C50.6371 54.0017 50.6273 53.9007 50.5894 53.8089C50.5514 53.7171 50.487 53.6387 50.4043 53.5837C50.3216 53.5287 50.2243 53.4995 50.125 53.5H47.125C46.9924 53.5 46.8652 53.5526 46.7714 53.6464C46.6777 53.7402 46.625 53.8674 46.625 54V57C46.6249 57.0989 46.6542 57.1957 46.7091 57.278C46.7641 57.3603 46.8422 57.4244 46.9336 57.4623C47.025 57.5001 47.1256 57.5101 47.2227 57.4907C47.3197 57.4714 47.4088 57.4237 47.4788 57.3537L48.625 56.2062C49.7326 57.2752 51.2107 57.8745 52.75 57.8787H52.7831C54.3507 57.8828 55.8567 57.2691 56.975 56.1706C57.0663 56.0772 57.1174 55.9517 57.1174 55.8211C57.1175 55.6905 57.0663 55.565 56.975 55.4716C56.8837 55.3782 56.7595 55.3242 56.6289 55.3212C56.4983 55.3182 56.3717 55.3664 56.2762 55.4556H56.2756Z" fill="white"/>
</svg>
