<svg width="17" height="20" viewBox="0 0 17 20" fill="none" xmlns="http://www.w3.org/2000/svg">
<path d="M3.6428 0C2.3033 0 1.21423 1.12109 1.21423 2.5V11.25H5.46423C5.69571 11.25 5.90441 11.3828 6.00687 11.5938L6.67852 12.9766L8.56446 9.09375C8.66691 8.88281 8.87941 8.75 9.10709 8.75C9.33477 8.75 9.54727 8.88281 9.64972 9.09375L10.697 11.25H13.3571C13.691 11.25 13.9642 11.5312 13.9642 11.875C13.9642 12.2188 13.691 12.5 13.3571 12.5H10.3214C10.0899 12.5 9.8812 12.3672 9.77874 12.1562L9.10709 10.7734L7.22115 14.6562C7.1187 14.8672 6.9062 15 6.67852 15C6.45084 15 6.23834 14.8672 6.13589 14.6562L5.08856 12.5H1.21423V17.5C1.21423 18.8789 2.3033 20 3.6428 20H13.3571C14.6966 20 15.7857 18.8789 15.7857 17.5V6.25H10.9285C10.2569 6.25 9.71423 5.69141 9.71423 5V0H3.6428ZM10.9285 0V5H15.7857L10.9285 0Z" fill="#705295"/>
</svg>
