<svg width="24" height="24" viewBox="0 0 24 24" fill="none" xmlns="http://www.w3.org/2000/svg">
<path d="M9.32812 5.7H14.6719C14.8352 5.7 14.9688 5.8275 14.9688 5.98333V7.4H9.03125V5.98333C9.03125 5.8275 9.16484 5.7 9.32812 5.7ZM7.25 5.98333V7.4H4.875C3.56504 7.4 2.5 8.41646 2.5 9.66667V18.7333C2.5 19.9835 3.56504 21 4.875 21H19.125C20.435 21 21.5 19.9835 21.5 18.7333V9.66667C21.5 8.41646 20.435 7.4 19.125 7.4H16.75V5.98333C16.75 4.88896 15.8186 4 14.6719 4H9.32812C8.18145 4 7.25 4.88896 7.25 5.98333ZM10.8125 11.3667C10.8125 11.055 11.0797 10.8 11.4062 10.8H12.5938C12.9203 10.8 13.1875 11.055 13.1875 11.3667V13.0667H14.9688C15.2953 13.0667 15.5625 13.3217 15.5625 13.6333V14.7667C15.5625 15.0783 15.2953 15.3333 14.9688 15.3333H13.1875V17.0333C13.1875 17.345 12.9203 17.6 12.5938 17.6H11.4062C11.0797 17.6 10.8125 17.345 10.8125 17.0333V15.3333H9.03125C8.70469 15.3333 8.4375 15.0783 8.4375 14.7667V13.6333C8.4375 13.3217 8.70469 13.0667 9.03125 13.0667H10.8125V11.3667Z" fill="#848484"/>
</svg>
