<svg width="55" height="65" viewBox="0 0 55 65" fill="none" xmlns="http://www.w3.org/2000/svg">
<path d="M41.1985 0.000366211H12.6278C11.0323 0.000366211 9.73773 1.31134 9.73773 2.93193V61.4974C9.73773 63.1146 11.0323 64.4289 12.6278 64.4289H41.1985C42.7956 64.4289 44.0919 63.1146 44.0919 61.4974V2.93193C44.0919 1.31134 42.7956 0.000366211 41.1985 0.000366211ZM42.2852 59.6866C42.2852 61.2281 41.1258 62.4751 39.696 62.4751H14.1353C12.7021 62.4751 11.5427 61.2281 11.5427 59.6866V5.15162C11.5427 2.0114 12.7021 1.85826 14.1353 1.85826H19.2545C19.552 1.85826 19.7954 2.19484 19.7954 2.61218V2.79226C19.7954 3.77 20.3328 3.77337 20.9936 3.77337H32.8343C33.5002 3.77337 34.0326 3.77 34.0326 2.79226V2.61218C34.0326 2.19484 34.2725 1.85826 34.5751 1.85826H39.696C41.1258 1.85826 42.2852 2.27562 42.2852 5.15162V59.6866Z" fill="#0A1E25"/>
<path d="M28.5284 2.5518H25.2986C25.1884 2.5518 25.0991 2.46291 25.0991 2.35317C25.0991 2.24344 25.1884 2.15454 25.2986 2.15454H28.5284C28.6386 2.15454 28.7279 2.24344 28.7279 2.35317C28.7279 2.46291 28.6386 2.5518 28.5284 2.5518Z" fill="white"/>
<path d="M42.2859 5.15188V59.6869C42.2859 61.2284 41.1265 62.4754 39.6967 62.4754H14.1361C12.7029 62.4754 11.5435 61.2284 11.5435 59.6869V5.15188C11.5435 2.01165 12.7029 1.85852 14.1361 1.85852H19.2553C19.5528 1.85852 19.7961 2.1951 19.7961 2.61244V2.79252C19.7961 3.77026 20.3336 3.77363 20.9944 3.77363H32.835C33.5009 3.77363 34.0333 3.77026 34.0333 2.79252V2.61244C34.0333 2.1951 34.2733 1.85852 34.5758 1.85852H39.6967C41.1265 1.85852 42.2859 2.27587 42.2859 5.15188Z" fill="#FFFAF7"/>
<path d="M42.2859 5.15188V9.22106H11.5435V5.15188C11.5435 2.01165 12.7029 1.85852 14.1361 1.85852H19.257C19.5545 1.85852 19.7978 2.1951 19.7978 2.61244V2.79252C19.7978 3.77026 20.3353 3.77363 20.9944 3.77363H32.8351C33.501 3.77363 34.035 3.77026 34.035 2.79252V2.61244C34.035 2.1951 34.275 1.85852 34.5775 1.85852H39.6968C41.1266 1.85852 42.2859 2.27587 42.2859 5.15188Z" fill="#705295"/>
<path d="M14.6573 7.23504L13.7491 6.38766L14.6573 5.54041L14.7983 5.68986L14.0503 6.38766L14.7983 7.08563L14.6573 7.23504Z" fill="white"/>
<path d="M40.085 6.03851C40.085 6.13677 40.0051 6.21644 39.9064 6.21644C39.8077 6.21644 39.7277 6.13677 39.7277 6.03851C39.7277 5.94024 39.8077 5.8606 39.9064 5.8606C40.005 5.8606 40.085 5.94026 40.085 6.03851Z" fill="white"/>
<path d="M40.085 6.6712C40.085 6.76946 40.0051 6.84911 39.9064 6.84911C39.8077 6.84911 39.7277 6.76946 39.7277 6.6712C39.7277 6.57293 39.8077 6.49329 39.9064 6.49329C40.005 6.49329 40.085 6.57293 40.085 6.6712Z" fill="white"/>
<path d="M40.085 7.30399C40.085 7.40226 40.0051 7.48192 39.9064 7.48192C39.8077 7.48192 39.7277 7.40226 39.7277 7.30399C39.7277 7.20573 39.8077 7.1261 39.9064 7.1261C40.005 7.1261 40.085 7.20575 40.085 7.30399Z" fill="white"/>
<path d="M18.3731 3.0828C18.3566 3.09911 18.3401 3.11537 18.3236 3.13171C18.3142 3.14101 18.3049 3.1504 18.2955 3.15979C18.1626 3.03133 18.0044 2.96287 17.8192 2.96279C17.6339 2.96274 17.4757 3.03107 17.3418 3.16029C17.333 3.15115 17.3241 3.14172 17.3151 3.13253C17.2989 3.11615 17.2826 3.09991 17.2663 3.08365C17.2659 3.08323 17.2653 3.08307 17.2648 3.0828V3.0816C17.266 3.08063 17.2672 3.07967 17.2684 3.07865C17.2892 3.06024 17.3095 3.04115 17.331 3.0235C17.3753 2.98701 17.424 2.95694 17.4756 2.93171C17.5366 2.90185 17.6005 2.87974 17.6674 2.86753C17.699 2.86175 17.7312 2.85876 17.7632 2.85486C17.7741 2.85352 17.8449 2.85328 17.847 2.85344C17.8688 2.85507 17.8907 2.85602 17.9124 2.85835C17.9727 2.86485 18.0313 2.87941 18.0883 2.90018C18.1295 2.91521 18.1691 2.93379 18.2072 2.9556C18.2475 2.97863 18.2855 3.00483 18.3208 3.0348C18.3386 3.04995 18.3557 3.06595 18.3731 3.0816V3.0828Z" fill="white"/>
<path d="M17.4995 3.31451C17.4733 3.28871 17.4477 3.26336 17.4213 3.23729C17.5103 3.15027 17.6156 3.09494 17.7394 3.07831C17.9243 3.05338 18.0831 3.10932 18.2177 3.23622C18.1912 3.26256 18.1654 3.28812 18.1392 3.31401C18.0508 3.22851 17.9443 3.18232 17.8195 3.18237C17.6949 3.18244 17.5886 3.22858 17.4995 3.31451Z" fill="white"/>
<path d="M18.061 3.39237C18.0352 3.41803 18.0094 3.4437 17.9832 3.46976C17.9382 3.42621 17.8835 3.40209 17.8194 3.40214C17.7554 3.40225 17.7009 3.42616 17.6555 3.47018C17.6294 3.44425 17.6036 3.41857 17.5778 3.39289C17.7015 3.26383 17.9241 3.2535 18.061 3.39237Z" fill="white"/>
<path d="M17.8907 3.53978C17.8907 3.57844 17.8593 3.60976 17.8205 3.60976C17.7817 3.60976 17.7502 3.57844 17.7502 3.53978C17.7502 3.50117 17.7817 3.46985 17.8205 3.46985C17.8593 3.46985 17.8907 3.50117 17.8907 3.53978Z" fill="white"/>
<path d="M13.5505 3.23129C13.5505 3.11926 13.6417 3.02844 13.7542 3.02844C13.8668 3.02844 13.958 3.11926 13.958 3.23129C13.958 3.34331 13.8667 3.43415 13.7542 3.43415C13.6417 3.43415 13.5505 3.34333 13.5505 3.23129Z" fill="white"/>
<path d="M14.192 3.23129C14.192 3.11926 14.2831 3.02844 14.3957 3.02844C14.5082 3.02844 14.5994 3.11926 14.5994 3.23129C14.5994 3.34331 14.5082 3.43415 14.3957 3.43415C14.2832 3.43415 14.192 3.34333 14.192 3.23129Z" fill="white"/>
<path d="M14.8334 3.23129C14.8334 3.11926 14.9246 3.02844 15.0371 3.02844C15.1496 3.02844 15.2408 3.11926 15.2408 3.23129C15.2408 3.34331 15.1496 3.43415 15.0371 3.43415C14.9246 3.43415 14.8334 3.34333 14.8334 3.23129Z" fill="white"/>
<path d="M15.4749 3.23129C15.4749 3.11926 15.566 3.02844 15.6786 3.02844C15.7911 3.02844 15.8823 3.11926 15.8823 3.23129C15.8823 3.34331 15.7911 3.43415 15.6786 3.43415C15.566 3.43415 15.4749 3.34333 15.4749 3.23129Z" fill="white"/>
<path d="M16.1163 3.23129C16.1163 3.11926 16.2076 3.02844 16.3201 3.02844C16.4326 3.02844 16.5238 3.11926 16.5238 3.23129C16.5238 3.34331 16.4326 3.43415 16.3201 3.43415C16.2076 3.43415 16.1163 3.34333 16.1163 3.23129Z" fill="white"/>
<path d="M39.937 2.95142H38.363V3.63228H39.937V2.95142Z" stroke="white" stroke-width="0.392857" stroke-miterlimit="10"/>
<path d="M39.5273 3.03906H38.4581V3.54422H39.5273V3.03906Z" fill="white"/>
<path d="M40.1279 3.08704H39.9804V3.49625H40.1279V3.08704Z" fill="white"/>
<path d="M24.1323 6.66971C24.1345 6.22408 24.5098 5.86179 24.9619 5.8595C25.1607 5.8595 25.3416 5.92472 25.4839 6.03505C25.5382 6.08006 25.5472 6.15886 25.5066 6.21511C25.4614 6.27139 25.3777 6.28036 25.3257 6.23984C25.2262 6.15886 25.1019 6.11605 24.9619 6.11605C24.8059 6.11605 24.6612 6.17911 24.5549 6.27815C24.4533 6.38162 24.3899 6.51668 24.3899 6.66971C24.3899 6.82284 24.4533 6.96238 24.5549 7.06134C24.6612 7.16041 24.8059 7.22345 24.9619 7.22345C25.1019 7.22345 25.224 7.18066 25.3257 7.09966C25.3777 7.06134 25.4614 7.07044 25.5066 7.12438C25.5472 7.18066 25.5382 7.26166 25.4839 7.30445C25.3416 7.41479 25.1607 7.48002 24.9619 7.48002C24.5098 7.48002 24.1345 7.11762 24.1323 6.66971Z" fill="white"/>
<path d="M25.9462 7.35615V6.02823C25.9462 5.95849 26.0005 5.90442 26.0705 5.90442C26.1406 5.90442 26.1971 5.95849 26.1971 6.02823V6.5684H26.7826V6.02823C26.7826 5.95849 26.8368 5.90442 26.9069 5.90442C26.9769 5.90442 27.0334 5.95849 27.0334 6.02823V7.35615C27.0334 7.42598 26.9769 7.47996 26.9069 7.47996C26.8368 7.47996 26.7826 7.42598 26.7826 7.35615V6.816H26.1971V7.35615C26.1971 7.42598 26.1406 7.47996 26.0705 7.47996C26.0005 7.47996 25.9462 7.42598 25.9462 7.35615Z" fill="white"/>
<path d="M28.2081 7.10847H27.659L27.5482 7.40107C27.5279 7.45066 27.4804 7.47986 27.4307 7.47986C27.4149 7.47986 27.4013 7.47757 27.3877 7.4731C27.3221 7.44835 27.2905 7.37632 27.3131 7.31108L27.8126 5.98541C27.8331 5.93587 27.8828 5.90432 27.9325 5.90661C27.9845 5.90432 28.0318 5.93587 28.0523 5.98541L28.5518 7.31108C28.5744 7.37632 28.5428 7.44835 28.4773 7.4731C28.4658 7.47757 28.45 7.47986 28.4344 7.47986C28.3845 7.47986 28.337 7.45066 28.319 7.40107L28.2081 7.10847ZM28.1156 6.86089L27.9325 6.37699L27.7493 6.86089H28.1156Z" fill="white"/>
<path d="M29.6047 6.15429H29.2452V7.35615C29.2452 7.42598 29.1909 7.47996 29.121 7.47996C29.0531 7.47996 28.9966 7.42598 28.9966 7.35615V6.15429H28.6395C28.5694 6.15429 28.5151 6.09574 28.5151 6.02823C28.5151 5.95849 28.5694 5.90442 28.6395 5.90442H29.6047C29.6724 5.90442 29.7289 5.95849 29.7289 6.02823C29.7289 6.09574 29.6724 6.15429 29.6047 6.15429Z" fill="white"/>
<g clip-path="url(#clip0_766_5851)">
<rect x="32.1191" y="33.748" width="22.44" height="22.3528" rx="11.1764" fill="white"/>
<path d="M33.3448 53.3607L32.4327 55.1148C32.4327 55.1148 28.7269 54.0954 28.3962 53.8902C28.0656 53.685 27.7261 52.9371 27.7593 52.2818C27.7926 51.6265 27.4331 51.2889 27.2534 51.3617C27.0736 51.4345 27.0404 51.5603 27.0404 51.5603C27.0404 51.5603 26.7208 51.3617 26.5011 51.3948C26.2814 51.4279 26.2348 51.6198 26.2348 51.6198C26.2348 51.6198 26.1017 51.4279 25.6823 51.5933C25.2629 51.7588 25.6423 53.7645 26.0817 54.433C26.5211 55.1016 26.9272 55.2075 26.9272 55.2075L31.8929 58.9798C32.4685 59.4171 33.2123 59.5715 33.9158 59.3998C34.6031 59.2321 35.1805 58.7705 35.4927 58.139L37.0795 54.9295L33.3448 53.3607Z" fill="#F5A4C6"/>
<path d="M53.7567 52.8635L52.3783 53.648L52.0578 53.8307L50.4374 54.751L49.8815 55.0675L49.6619 54.751L49.5812 54.6352L49.2629 54.1761L49.1935 54.0758V59.2593H38.0185C38.0185 59.2593 38.0319 58.5662 37.9624 57.8487C37.9535 57.7417 37.94 57.6347 37.9243 57.53C37.875 57.16 37.7966 56.8124 37.68 56.5784C37.3886 56.0035 37.1937 55.3461 37.1152 55.0675C37.0906 54.9806 37.0794 54.9293 37.0794 54.9293L36.6558 54.751L35.6024 54.3098L35.2818 54.1739L33.3454 53.3605L33.8766 52.2886L34.0357 51.9699L35.2594 49.5074L35.6024 48.8144L36.0461 47.9207C36.2837 47.4438 36.6333 47.0338 37.0569 46.7285C37.2273 46.6037 37.4066 46.4967 37.5993 46.4098C37.7473 46.3385 37.9019 46.2805 38.061 46.2338L38.079 46.2293L38.3972 46.1335L40.8738 45.4025L41.1944 45.3089L42.1738 45.0192L43.671 44.8632L43.9892 44.8298L44.6302 44.7629L46.4658 45.2867L46.7863 45.378L49.2629 46.0844L49.4804 46.1468C49.514 46.1558 49.5476 46.1669 49.5812 46.1803C49.774 46.2382 49.9555 46.3162 50.1303 46.4098C50.3029 46.5012 50.4643 46.6081 50.6167 46.7285C51.0313 47.0539 51.3653 47.4795 51.5827 47.9698L52.0578 49.0394L52.3783 49.7615L53.36 51.9699L53.5012 52.2886L53.7567 52.8635Z" fill="#FFC79F"/>
<path d="M53.3598 51.9703H52.3782V49.7619L52.0577 49.0398V49.1914H49.581V46.7289H50.6165C50.4641 46.6085 50.3027 46.5016 50.1302 46.4102H49.581V46.1807C49.5474 46.1673 49.5138 46.1562 49.4802 46.1472L49.2628 46.0848V46.4102H46.7862V45.3784L46.4657 45.287V46.4102H43.9891V44.8302L43.6708 44.8636V46.4102H41.1942V45.3093L40.8737 45.4029V46.4102H38.3971V46.1339L38.0788 46.2297V46.4102H37.5992C37.4064 46.4971 37.2271 46.6041 37.0568 46.7289H38.0788V49.1914H35.6022V48.8147L35.2593 49.5078H35.2817V51.9703H34.0355L33.8764 52.289H35.2817V54.1743L35.6022 54.3102V52.289H38.0788V54.7514H36.6556L37.0792 54.9297C37.0792 54.9297 37.0904 54.981 37.1151 55.0679H38.0788V57.5304H37.9242C37.9398 57.6351 37.9533 57.7421 37.9623 57.8491H38.0788V59.2597H38.3971V57.8491H40.8737V59.2597H41.1942V57.8491H43.6708V59.2597H43.9891V57.8491H46.4657V59.2597H46.7862V57.8491H49.1933V57.5304H46.7862V55.0679H49.1933V54.7514H46.7862V52.289H49.2628V54.1765L49.581 54.6356V52.289H52.0577V53.8311L52.3782 53.6483V52.289H53.501L53.3598 51.9703ZM38.0788 51.9703H35.6022V49.5078H38.0788V51.9703ZM40.8737 57.5304H38.3971V55.0679H40.8737V57.5304ZM40.8737 54.7514H38.3971V52.289H40.8737V54.7514ZM40.8737 51.9703H38.3971V49.5078H40.8737V51.9703ZM40.8737 49.1914H38.3971V46.7289H40.8737V49.1914ZM43.6708 57.5304H41.1942V55.0679H43.6708V57.5304ZM43.6708 54.7514H41.1942V52.289H43.6708V54.7514ZM43.6708 51.9703H41.1942V49.5078H43.6708V51.9703ZM43.6708 49.1914H41.1942V46.7289H43.6708V49.1914ZM46.4657 57.5304H43.9891V55.0679H46.4657V57.5304ZM46.4657 54.7514H43.9891V52.289H46.4657V54.7514ZM46.4657 51.9703H43.9891V49.5078H46.4657V51.9703ZM46.4657 49.1914H43.9891V46.7289H46.4657V49.1914ZM49.2628 51.9703H46.7862V49.5078H49.2628V51.9703ZM49.2628 49.1914H46.7862V46.7289H49.2628V49.1914ZM52.0577 51.9703H49.581V49.5078H52.0577V51.9703ZM49.6617 54.7514L49.8814 55.0679L50.4372 54.7514H49.6617Z" fill="#FFDECF"/>
<path d="M49.8797 55.0686L50.8983 56.5579L46.3181 57.3258C46.3181 57.3258 45.456 56.4388 44.737 56.3395C44.018 56.2402 43.7584 56.4388 43.8482 56.7069C43.9381 56.9749 44.727 57.521 44.727 57.521C44.727 57.521 43.1292 57.8983 42.8996 57.9083C42.6699 57.9182 41.6613 57.2033 41.4117 57.3721C41.162 57.5409 41.4117 58.0671 41.4117 58.0671C41.4117 58.0671 41.3917 58.6033 41.5814 58.8813C41.7712 59.1593 41.9309 59.2586 41.9309 59.2586C41.9309 59.2586 41.8311 59.5863 42.3304 59.9238C42.8297 60.2614 43.349 60.3905 43.9481 60.4004C44.5472 60.4104 45.9752 59.6955 45.9752 59.6955L52.9159 60.4726C53.683 60.5585 54.4463 60.2821 54.9782 59.726C55.6438 59.03 55.8394 58.0118 55.4785 57.121L53.7542 52.8644L49.8797 55.0686Z" fill="#F5A4C6"/>
<path d="M50.8981 56.5579L52.5159 56.2402" stroke="#ED5B96" stroke-width="0.432614" stroke-linecap="round" stroke-linejoin="round"/>
<path d="M49.1915 54.0755L47.2243 51.3947" stroke="#573C97" stroke-width="0.648921" stroke-linecap="round" stroke-linejoin="round"/>
<path d="M37.0779 54.9295C36.6785 53.2416 37.8967 51.653 37.9966 50.9182" stroke="#573C97" stroke-width="0.648921" stroke-linecap="round" stroke-linejoin="round"/>
<path d="M32.4338 55.1145L33.9251 55.4099" stroke="#ED5B96" stroke-width="0.432614" stroke-linecap="round" stroke-linejoin="round"/>
<path d="M45.5658 36.1837C46.6942 35.2007 48.1721 35.7865 48.4417 37.0872C48.7114 38.3879 47.1935 40.0857 46.3247 38.8546C45.4559 37.6234 45.9153 36.4326 45.9153 36.4326" fill="#0A1E25"/>
<path d="M40.73 41.8762C38.876 41.2407 38.6763 38.4739 39.2355 37.6266C39.7947 36.7793 40.73 37.7987 40.73 37.7987C40.73 37.7987 40.7134 36.2763 42.1247 36.0512C43.5361 35.8261 44.7743 36.2763 45.4401 36.1703C45.7914 36.1144 45.8816 36.2842 45.9949 36.4223C46.0962 36.5459 46.2422 36.6212 46.1857 36.8587C46.0658 37.3618 46.2789 37.7613 46.7582 38.9317C47.2375 40.1022 46.9978 44.2057 44.1219 43.3852" fill="#0A1E25"/>
<path d="M44.9471 42.8066V45.4073C44.9471 45.4073 44.138 46.1627 43.1406 46.1627C42.141 46.1627 41.9012 45.4073 41.9012 45.4073V44.068L44.9471 42.8066Z" fill="#F5A4C6"/>
<path d="M44.9471 42.8066V43.3615C43.6852 45.1711 42.4032 45.2424 41.9012 45.1867V44.068L44.9471 42.8066Z" fill="#462E69"/>
<path d="M40.5323 39.0039V42.037C40.5323 42.6742 40.7869 43.2852 41.24 43.7358L41.4353 43.93C41.7488 44.2417 42.174 44.4168 42.6173 44.4168C42.9172 44.4168 43.2115 44.3367 43.4695 44.1847L44.7125 43.4523C45.2468 43.1376 45.5744 42.5659 45.5744 41.9485C45.5744 41.9485 46.202 42.337 46.5763 41.7104C46.9506 41.0837 46.3781 40.5692 45.9708 40.5911C45.5634 40.613 45.1121 41.4559 45.1121 41.4559V39.9234C45.1121 39.9234 44.6167 39.8796 43.9011 40.0876C43.1855 40.2956 41.2149 40.3175 40.5323 39.0039Z" fill="#F5A4C6"/>
<path d="M46.1859 41.0489C46.0261 40.8901 45.5768 41.4108 46.0194 41.638" stroke="#ED5B96" stroke-width="0.432614" stroke-linecap="round" stroke-linejoin="round"/>
<path d="M41.933 41.1945L41.6206 42.0065C41.585 42.0989 41.6392 42.2014 41.7359 42.2247L41.9929 42.2866" stroke="#ED5B96" stroke-width="0.432614" stroke-linecap="round" stroke-linejoin="round"/>
<path d="M43.3974 41.4326C43.3974 41.5459 43.305 41.6378 43.191 41.6378C43.077 41.6378 42.9846 41.5459 42.9846 41.4326C42.9846 41.3193 43.077 41.2274 43.191 41.2274C43.305 41.2274 43.3974 41.3193 43.3974 41.4326Z" fill="#462E69"/>
<path d="M41.3471 41.4326C41.3471 41.5459 41.2547 41.6378 41.1408 41.6378C41.0268 41.6378 40.9344 41.5459 40.9344 41.4326C40.9344 41.3193 41.0268 41.2274 41.1408 41.2274C41.2547 41.2274 41.3471 41.3193 41.3471 41.4326Z" fill="#462E69"/>
<path d="M42.8495 40.6981C42.8495 40.6981 43.1158 40.4068 43.6684 40.6981" stroke="#462E69" stroke-width="0.432614" stroke-linecap="round" stroke-linejoin="round"/>
<path d="M41.5476 40.6981C41.5476 40.6981 41.2813 40.4068 40.7288 40.6981" stroke="#462E69" stroke-width="0.432614" stroke-linecap="round" stroke-linejoin="round"/>
<path d="M43.1125 42.7285C43.1575 43.0434 42.9372 43.3349 42.6205 43.3797C42.3039 43.4244 42.0106 43.2054 41.9656 42.8906" fill="white"/>
<path d="M46.2904 36.9645L45.4211 36.1285C45.3576 36.0675 45.356 35.9669 45.4173 35.9039C45.4786 35.8408 45.5798 35.8391 45.6432 35.9001L46.5125 36.7361C46.576 36.7971 46.5777 36.8976 46.5163 36.9607C46.455 37.0238 46.3538 37.0255 46.2904 36.9645Z" fill="#705295"/>
</g>
<rect x="32.512" y="34.1409" width="21.6543" height="21.5671" rx="10.7835" stroke="#F3F3F3" stroke-width="0.785714"/>
<circle cx="22.6445" cy="44.9247" r="1.96429" fill="#FFDECF"/>
<circle cx="28.9302" cy="44.9247" r="1.96429" fill="#FFDECF"/>
<circle cx="35.2159" cy="44.9247" r="1.96429" fill="#FFDECF"/>
<g clip-path="url(#clip1_766_5851)">
<rect x="0.438843" y="12.71" width="22.44" height="22.3528" rx="11.1764" fill="white"/>
<path d="M14.7599 25.7282V35.6877H9.30518V25.5447L10.0388 25.2854L13.4431 25.4252L14.7599 25.7282Z" fill="#9B86B5"/>
<path d="M14.7599 26.922H9.30518V27.6022H14.7599V26.922Z" fill="#C6BAD5"/>
<path d="M14.7599 29.1449H9.30518V29.8251H14.7599V29.1449Z" fill="#C6BAD5"/>
<path d="M14.7599 31.3672H9.30518V32.0474H14.7599V31.3672Z" fill="#C6BAD5"/>
<path d="M14.7599 33.5901H9.30518V34.2703H14.7599V33.5901Z" fill="#C6BAD5"/>
<path d="M9.30373 25.5452V35.6882H3.43994V27.6162L8.22699 25.9257L9.30373 25.5452Z" fill="white"/>
<path d="M19.9079 26.9141V35.6883H14.7592V25.7288L16.3092 26.0857L19.9079 26.9141Z" fill="white"/>
<path d="M8.22729 25.9257L9.30402 25.5452V29.4852H7.93472C7.39701 29.4852 7.0285 28.9453 7.22625 28.4472L8.22729 25.9257Z" fill="#E3D6EA"/>
<path d="M16.2259 29.4852H14.7592V25.7288L16.3092 26.0857L16.9622 28.5313C17.0908 29.0129 16.7263 29.4852 16.2259 29.4852Z" fill="#E3D6EA"/>
<path fill-rule="evenodd" clip-rule="evenodd" d="M7.8369 25.9362C7.86374 26.0022 7.83181 26.0773 7.7656 26.104C7.21268 26.3273 6.82231 26.7956 6.54949 27.3931C6.27655 27.9908 6.12703 28.706 6.05042 29.3994C5.97393 30.0916 5.97081 30.7554 5.98694 31.2467C5.995 31.4921 6.00785 31.6941 6.01866 31.8344C6.02406 31.9045 6.02895 31.9592 6.03248 31.9963C6.03424 32.0148 6.03566 32.0289 6.03663 32.0383L6.03773 32.0488L6.03801 32.0513L6.03807 32.0519C6.04594 32.1226 5.99476 32.1864 5.92374 32.1943C5.85273 32.2021 5.78878 32.1511 5.78092 32.0804L5.89591 32.0677C5.78092 32.0804 5.78091 32.0803 5.7809 32.0803L5.78079 32.0792L5.78046 32.0762L5.77925 32.0647C5.77821 32.0546 5.77672 32.0398 5.77489 32.0206C5.77123 31.9821 5.7662 31.9259 5.76067 31.8541C5.74962 31.7106 5.73654 31.5048 5.72834 31.2551C5.71195 30.7561 5.71499 30.0794 5.79323 29.3712C5.87135 28.6642 6.02515 27.9189 6.31397 27.2864C6.60291 26.6536 7.03276 26.1218 7.66841 25.8652C7.73463 25.8384 7.81006 25.8702 7.8369 25.9362Z" fill="#462E69"/>
<path d="M5.91043 32.7268C6.27645 32.7268 6.57318 32.4313 6.57318 32.0667C6.57318 31.7021 6.27645 31.4065 5.91043 31.4065C5.5444 31.4065 5.24768 31.7021 5.24768 32.0667C5.24768 32.4313 5.5444 32.7268 5.91043 32.7268Z" fill="#462E69"/>
<path fill-rule="evenodd" clip-rule="evenodd" d="M16.5167 26.1007C16.5493 26.0374 16.6273 26.0124 16.6909 26.0449C17.8835 26.654 18.2912 27.9623 18.4096 29.078C18.4692 29.64 18.4569 30.1642 18.4297 30.5474C18.4162 30.7392 18.3988 30.8961 18.3849 31.0055C18.3779 31.0602 18.3717 31.103 18.3673 31.1323C18.3651 31.147 18.3633 31.1583 18.362 31.166L18.3606 31.1749L18.3602 31.1773L18.36 31.1782C18.36 31.1783 18.36 31.1783 18.2325 31.1565L18.36 31.1783C18.3479 31.2485 18.281 31.2956 18.2106 31.2835C18.1402 31.2715 18.0929 31.2048 18.105 31.1347C18.105 31.1347 18.105 31.1347 18.105 31.1347L18.1051 31.1343L18.1054 31.1325L18.1066 31.1249C18.1077 31.118 18.1094 31.1076 18.1115 31.0939C18.1156 31.0664 18.1215 31.0255 18.1282 30.9729C18.1416 30.8677 18.1584 30.7156 18.1716 30.5292C18.198 30.1561 18.2099 29.6478 18.1523 29.1051C18.0362 28.0112 17.6436 26.8211 16.5728 26.2742C16.5092 26.2417 16.4841 26.1641 16.5167 26.1007Z" fill="#462E69"/>
<path fill-rule="evenodd" clip-rule="evenodd" d="M18.8743 32.3929C18.6894 31.5447 17.8492 31.0064 16.9977 31.1907C16.1462 31.3749 15.6059 32.2118 15.7908 33.06C15.806 33.1295 15.7617 33.1981 15.6918 33.2132C15.622 33.2283 15.5531 33.1842 15.538 33.1147C15.3227 32.1274 15.9517 31.1532 16.9428 30.9388L16.9702 31.0647L16.9428 30.9388C17.9339 30.7244 18.9119 31.3509 19.1272 32.3382C19.3424 33.3255 18.7134 34.2996 17.7223 34.5141C17.6525 34.5292 17.5836 34.485 17.5684 34.4155C17.5533 34.3459 17.5976 34.2773 17.6674 34.2622C18.5189 34.078 19.0593 33.2411 18.8743 32.3929L19.0007 32.3655L18.8743 32.3929Z" fill="#462E69"/>
<path d="M15.3585 15.897C15.3435 15.0568 12.7829 13.3764 9.72518 14.4867C6.66752 15.597 6.44157 18.6931 6.84827 19.8157C7.25495 20.9383 5.89933 22.9189 7.43569 24.2242C8.97207 25.5295 10.2524 24.5457 11.7586 24.6775C13.2649 24.8093 16.0213 25.2445 16.3527 24.3292C16.684 23.414 17.5878 15.837 15.3585 15.897Z" fill="#462E69"/>
<path d="M9.87659 22.6085V25.9507C9.87659 25.9507 10.9145 26.9216 12.1939 26.9216C13.4762 26.9216 13.7839 25.9507 13.7839 25.9507V24.2295L9.87659 22.6085Z" fill="#F5A4C6"/>
<path d="M9.87659 22.6085V23.3216C11.4953 25.6471 13.1398 25.7388 13.7839 25.6672V24.2295L9.87659 22.6085Z" fill="#462E69"/>
<path d="M15.5391 17.4132V21.6187C15.5391 22.4376 15.2125 23.2229 14.6312 23.802L14.3806 24.0516C13.9785 24.4521 13.4331 24.6772 12.8644 24.6772C12.4797 24.6772 12.1022 24.5741 11.7713 24.3788L10.1766 23.4377C9.49128 23.0332 9.07101 22.2985 9.07101 21.505C9.07101 21.505 8.26603 22.0044 7.78587 21.199C7.30571 20.3936 8.04008 19.7325 8.5626 19.7606C9.08513 19.7887 9.66416 20.8719 9.66416 20.8719V18.9025C9.66416 18.9025 10.2625 19.1629 11.2176 19.1135C12.1727 19.0641 14.6635 19.1013 15.5391 17.4132Z" fill="#F5A4C6"/>
<path fill-rule="evenodd" clip-rule="evenodd" d="M8.46379 20.3895C8.39956 20.356 8.35505 20.3622 8.32853 20.3886C8.30705 20.41 8.27222 20.41 8.25073 20.3886C8.22925 20.3672 8.22925 20.3325 8.25073 20.3111C8.32669 20.2354 8.43109 20.2487 8.51484 20.2924C8.59978 20.3367 8.68059 20.4188 8.73436 20.5158C8.78827 20.6132 8.81817 20.7316 8.79185 20.8487C8.76507 20.9678 8.68217 21.0765 8.52837 21.1556C8.50137 21.1695 8.46818 21.159 8.45425 21.1321C8.44031 21.1052 8.4509 21.0721 8.47789 21.0582C8.60802 20.9913 8.66602 20.9069 8.68448 20.8248C8.70338 20.7406 8.68285 20.6497 8.63802 20.5688C8.59305 20.4876 8.52683 20.4224 8.46379 20.3895Z" fill="#ED5B96"/>
<path fill-rule="evenodd" clip-rule="evenodd" d="M13.6565 20.4862C13.6849 20.4754 13.7167 20.4895 13.7275 20.5178L14.1283 21.5614L14.1283 21.5614C14.1858 21.711 14.0983 21.8769 13.942 21.9146L13.942 21.9146L13.6122 21.9942C13.5827 22.0014 13.553 21.9833 13.5458 21.9539C13.5387 21.9245 13.5568 21.8948 13.5863 21.8877L13.916 21.8081C13.916 21.8081 13.916 21.8081 13.916 21.8081C14.0079 21.7859 14.0593 21.6884 14.0255 21.6005C14.0255 21.6005 14.0255 21.6005 14.0255 21.6005L13.6248 20.5569C13.6139 20.5287 13.6281 20.497 13.6565 20.4862Z" fill="#ED5B96"/>
<path d="M12.1332 21.1066C12.2794 21.1066 12.3979 20.9886 12.3979 20.8429C12.3979 20.6973 12.2794 20.5792 12.1332 20.5792C11.987 20.5792 11.8685 20.6973 11.8685 20.8429C11.8685 20.9886 11.987 21.1066 12.1332 21.1066Z" fill="#462E69"/>
<path d="M14.7636 21.1066C14.9098 21.1066 15.0283 20.9886 15.0283 20.8429C15.0283 20.6973 14.9098 20.5792 14.7636 20.5792C14.6174 20.5792 14.4988 20.6973 14.4988 20.8429C14.4988 20.9886 14.6174 21.1066 14.7636 21.1066Z" fill="#462E69"/>
<path fill-rule="evenodd" clip-rule="evenodd" d="M12.5683 19.8984C12.609 19.8615 12.609 19.8615 12.6089 19.8615L12.5683 19.8984Z" fill="#462E69"/>
<path fill-rule="evenodd" clip-rule="evenodd" d="M14.2783 19.9357C14.2783 19.9357 14.2783 19.9358 14.2782 19.9358L14.2782 19.9359C14.2782 19.9359 14.2782 19.9358 14.2782 19.9358L14.2783 19.9357L14.2783 19.9357ZM14.2785 19.9356L14.2782 19.9358C14.2577 19.958 14.2231 19.9596 14.2007 19.9393C14.1782 19.919 14.1765 19.8843 14.197 19.8619L14.2377 19.8988C14.197 19.8619 14.197 19.8619 14.197 19.8618L14.1971 19.8618L14.1973 19.8616L14.1977 19.8612L14.1989 19.8599C14.1999 19.8588 14.2012 19.8575 14.2029 19.8558C14.2063 19.8525 14.211 19.8479 14.2172 19.8425C14.2295 19.8316 14.2475 19.8169 14.2712 19.8008C14.3186 19.7687 14.389 19.7307 14.4828 19.7055C14.6718 19.6547 14.9487 19.6575 15.3139 19.8504C15.3407 19.8645 15.3509 19.8977 15.3367 19.9244C15.3225 19.9512 15.2892 19.9614 15.2623 19.9472C14.9187 19.7657 14.6704 19.7686 14.5114 19.8113C14.4312 19.8329 14.3719 19.8651 14.3331 19.8914C14.3137 19.9046 14.2994 19.9163 14.2903 19.9244C14.2858 19.9284 14.2825 19.9315 14.2805 19.9335C14.2795 19.9345 14.2788 19.9352 14.2785 19.9356Z" fill="#462E69"/>
<path d="M13.6674 22.6234C13.6641 22.8861 13.5237 23.1151 13.3158 23.243C13.1992 23.3154 13.0623 23.3559 12.9152 23.3542C12.6921 23.3508 12.4926 23.2498 12.3591 23.0932C12.2458 22.9618 12.1799 22.7918 12.1816 22.6066L13.6674 22.6234Z" fill="#462E69"/>
<path d="M13.3163 23.2422C13.1996 23.3146 13.0627 23.355 12.9157 23.3533C12.6925 23.3499 12.4931 23.2489 12.3596 23.0923C12.4728 23.0351 12.5996 23.0031 12.7331 23.0031C12.9596 23.0031 13.1641 23.0923 13.3163 23.2422Z" fill="#ED5B96"/>
<path fill-rule="evenodd" clip-rule="evenodd" d="M11.2085 20.3758C11.0988 20.3758 11.0096 20.4646 11.0096 20.5739V20.9456C11.0096 21.4193 11.3957 21.8039 11.8713 21.8039H12.3231C12.7987 21.8039 13.1848 21.4193 13.1848 20.9456V20.5739C13.1848 20.4646 13.0957 20.3758 12.9859 20.3758H11.2085ZM10.8802 20.5739C10.8802 20.3934 11.0273 20.2469 11.2085 20.2469H12.9859C13.1671 20.2469 13.3142 20.3934 13.3142 20.5739V20.9456C13.3142 21.4904 12.8701 21.9328 12.3231 21.9328H11.8713C11.3243 21.9328 10.8802 21.4904 10.8802 20.9456V20.5739Z" fill="white"/>
<path fill-rule="evenodd" clip-rule="evenodd" d="M14.3974 20.3758C14.2877 20.3758 14.1985 20.4646 14.1985 20.5739V20.9456C14.1985 21.4193 14.5846 21.8039 15.0602 21.8039H15.512C15.9876 21.8039 16.3737 21.4193 16.3737 20.9456V20.5739C16.3737 20.4646 16.2846 20.3758 16.1748 20.3758H14.3974ZM14.0692 20.5739C14.0692 20.3934 14.2162 20.2469 14.3974 20.2469H16.1748C16.356 20.2469 16.5031 20.3934 16.5031 20.5739V20.9456C16.5031 21.4904 16.059 21.9328 15.512 21.9328H15.0602C14.5132 21.9328 14.0692 21.4904 14.0692 20.9456V20.5739Z" fill="white"/>
<path fill-rule="evenodd" clip-rule="evenodd" d="M14.1349 20.7675H13.2496V20.6387H14.1349V20.7675Z" fill="white"/>
<path fill-rule="evenodd" clip-rule="evenodd" d="M9.52667 20.5734H10.9464V20.7022H9.52667V20.5734Z" fill="white"/>
</g>
<rect x="0.8317" y="13.1028" width="21.6543" height="21.5671" rx="10.7835" stroke="#F3F3F3" stroke-width="0.785714"/>
<path d="M39.3674 25.0716C39.3674 25.9395 38.6638 26.6431 37.7959 26.6431H26.8653C25.9974 26.6431 25.2938 25.9395 25.2938 25.0716V22.4014C25.2938 21.5335 25.9974 20.83 26.8653 20.83H37.7959C38.6638 20.83 39.3674 21.5335 39.3674 22.4014V25.0716Z" fill="#E2D8E3"/>
<path d="M25.5597 25.0813L24.3245 23.8484L25.4073 22.7676L25.5597 25.0813Z" fill="#E2D8E3"/>
<defs>
<clipPath id="clip0_766_5851">
<rect x="32.1191" y="33.748" width="22.44" height="22.3528" rx="11.1764" fill="white"/>
</clipPath>
<clipPath id="clip1_766_5851">
<rect x="0.438843" y="12.71" width="22.44" height="22.3528" rx="11.1764" fill="white"/>
</clipPath>
</defs>
</svg>
