<svg width="66" height="63" viewBox="0 0 66 63" fill="none" xmlns="http://www.w3.org/2000/svg">
<g clip-path="url(#clip0_766_5810)">
<rect width="61.7143" height="61.7143" rx="30.8571" transform="matrix(-1 0 0 1 61.7143 0.00012207)" fill="white"/>
<path d="M58.3587 54.1496L60.867 58.9925C60.867 58.9925 71.0589 56.1781 71.9682 55.6116C72.8776 55.045 73.8113 52.98 73.7197 51.1707C73.6282 49.3615 74.6169 48.4294 75.1112 48.6304C75.6056 48.8314 75.6971 49.1787 75.6971 49.1787C75.6971 49.1787 76.5759 48.6304 77.1801 48.7218C77.7843 48.8132 77.9125 49.3432 77.9125 49.3432C77.9125 49.3432 78.2786 48.8132 79.4321 49.27C80.5855 49.7269 79.5419 55.2644 78.3335 57.1102C77.1252 58.956 76.0084 59.2484 76.0084 59.2484L62.3517 69.6635C60.7687 70.8707 58.723 71.2972 56.7883 70.8231C54.8982 70.3601 53.3102 69.0855 52.4516 67.342L48.0875 58.4808L58.3587 54.1496Z" fill="#F5C8A4"/>
<path d="M2.31915 52.4509L6.11003 54.6166L6.99143 55.1211L11.448 57.6622L12.9767 58.5359L13.5807 57.6622L13.8026 57.3423L14.6779 56.0748L14.869 55.798V70.1091H45.6024C45.6024 70.1091 45.5654 68.1956 45.7565 66.2145C45.7811 65.9191 45.8181 65.6238 45.8613 65.3347C45.9969 64.3133 46.2127 63.3535 46.5332 62.7074C47.3345 61.12 47.8707 59.305 48.0864 58.5359C48.1543 58.296 48.1851 58.1544 48.1851 58.1544L49.3501 57.6622L52.2471 56.444L53.1286 56.0687L58.4542 53.8229L56.9934 50.8635L56.5557 49.9837L53.1902 43.1849L52.2471 41.2715L51.0267 38.8042C50.3733 37.4875 49.4117 36.3554 48.2467 35.5125C47.7783 35.168 47.2852 34.8727 46.7551 34.6327C46.3482 34.4358 45.9229 34.2758 45.4853 34.1466L45.436 34.1343L44.5607 33.8698L37.7496 31.8516L36.8681 31.5933L34.1745 30.7934L30.0569 30.3627L29.1817 30.2704L27.4188 30.0858L22.3705 31.5317L21.4891 31.784L14.6779 33.7344L14.08 33.9066C13.9875 33.9313 13.8951 33.962 13.8026 33.999C13.2725 34.1589 12.7732 34.3743 12.2925 34.6327C11.8178 34.8849 11.374 35.1803 10.9549 35.5125C9.81458 36.4108 8.89611 37.5859 8.29822 38.9396L6.99143 41.8928L6.11003 43.8863L3.41019 49.9837L3.02188 50.8635L2.31915 52.4509Z" fill="#705295"/>
<path d="M3.31575 50.3091H6.01558V44.2117L6.89699 42.2182V42.6366H13.7082V35.8379H10.8604C11.2795 35.5057 11.7234 35.2103 12.198 34.9581H13.7082V34.3244C13.8006 34.2874 13.8931 34.2567 13.9855 34.232L14.5835 34.0598V34.9581H21.3946V32.1094L22.2761 31.8571V34.9581H29.0872V30.5958L29.9625 30.6881V34.9581H36.7736V31.9187L37.6551 32.177V34.9581H44.4663V34.1952L45.3415 34.4597V34.9581H46.6606C47.1907 35.1981 47.6838 35.4934 48.1523 35.8379H45.3415V42.6366H52.1527V41.5969L53.0958 43.5103H53.0342V50.3091H56.4613L56.8989 51.1889H53.0342V56.3941L52.1527 56.7694V51.1889H45.3415V57.9876H49.2557L48.0907 58.4798C48.0907 58.4798 48.0598 58.6214 47.992 58.8613H45.3415V65.6601H45.7668C45.7237 65.9492 45.6867 66.2445 45.6621 66.5399H45.3415V70.4345H44.4663V66.5399H37.6551V70.4345H36.7736V66.5399H29.9625V70.4345H29.0872V66.5399H22.2761V70.4345H21.3946V66.5399H14.7746V65.6601H21.3946V58.8613H14.7746V57.9876H21.3946V51.1889H14.5835V56.4002L13.7082 57.6677V51.1889H6.89699V55.4465L6.01558 54.942V51.1889H2.92744L3.31575 50.3091ZM45.3415 50.3091H52.1527V43.5103H45.3415V50.3091ZM37.6551 65.6601H44.4663V58.8613H37.6551V65.6601ZM37.6551 57.9876H44.4663V51.1889H37.6551V57.9876ZM37.6551 50.3091H44.4663V43.5103H37.6551V50.3091ZM37.6551 42.6366H44.4663V35.8379H37.6551V42.6366ZM29.9625 65.6601H36.7736V58.8613H29.9625V65.6601ZM29.9625 57.9876H36.7736V51.1889H29.9625V57.9876ZM29.9625 50.3091H36.7736V43.5103H29.9625V50.3091ZM29.9625 42.6366H36.7736V35.8379H29.9625V42.6366ZM22.2761 65.6601H29.0872V58.8613H22.2761V65.6601ZM22.2761 57.9876H29.0872V51.1889H22.2761V57.9876ZM22.2761 50.3091H29.0872V43.5103H22.2761V50.3091ZM22.2761 42.6366H29.0872V35.8379H22.2761V42.6366ZM14.5835 50.3091H21.3946V43.5103H14.5835V50.3091ZM14.5835 42.6366H21.3946V35.8379H14.5835V42.6366ZM6.89699 50.3091H13.7082V43.5103H6.89699V50.3091ZM13.4863 57.9876L12.8822 58.8613L11.3535 57.9876H13.4863Z" fill="#C6BAD5"/>
<path d="M12.8851 58.863L10.0838 62.9749L22.6802 65.0949C22.6802 65.0949 25.0512 62.646 27.0285 62.3719C29.0059 62.0978 29.7199 62.646 29.4728 63.3862C29.2256 64.1263 27.056 65.634 27.056 65.634C27.056 65.634 31.4501 66.6757 32.0818 66.7032C32.7134 66.7306 35.4872 64.7568 36.1738 65.2228C36.8603 65.6888 36.1738 67.1418 36.1738 67.1418C36.1738 67.1418 36.2287 68.6221 35.7069 69.3896C35.1851 70.1572 34.7457 70.4313 34.7457 70.4313C34.7457 70.4313 35.0203 71.3359 33.6471 72.268C32.274 73.2 30.8459 73.5564 29.1981 73.5838C27.5504 73.6112 23.6231 71.6375 23.6231 71.6375L4.53493 73.783C2.42527 74.0202 0.32618 73.2572 -1.13684 71.7217C-2.96734 69.8003 -3.50522 66.9889 -2.51281 64.5294L2.22935 52.7773L12.8851 58.863Z" fill="#F5C8A4"/>
<path d="M14.773 56.1222L20.1832 48.7207" stroke="#013759" stroke-width="0.637123" stroke-linecap="round" stroke-linejoin="round"/>
<path d="M48.0899 58.48C49.1884 53.8198 45.8379 49.4337 45.5633 47.4052" stroke="#573C97" stroke-width="0.637123" stroke-linecap="round" stroke-linejoin="round"/>
<path d="M60.8721 58.9912L56.7709 59.8067" stroke="#ED5B96" stroke-width="0.424749" stroke-linecap="round" stroke-linejoin="round"/>
<path d="M24.7482 6.72521C21.6449 4.01131 17.5804 5.62867 16.8388 9.21974C16.0973 12.8109 20.2717 17.4985 22.661 14.0993C25.0503 10.7001 23.787 7.41236 23.787 7.41236" fill="#0A1E25"/>
<path d="M38.0485 22.4422C43.1475 20.6878 43.6968 13.0487 42.1589 10.7094C40.6209 8.37015 38.0485 11.1846 38.0485 11.1846C38.0485 11.1846 38.0943 6.98127 34.2128 6.35989C30.3314 5.7385 26.926 6.98127 25.0951 6.68882C24.1287 6.53449 23.8807 7.00322 23.5692 7.38457C23.2905 7.7258 22.8889 7.93365 23.0445 8.58946C23.374 9.97839 22.7882 11.0812 21.4699 14.3128C20.1517 17.5444 20.8109 28.8739 28.7202 26.6084" fill="#0A1E25"/>
<path d="M26.4461 25.0105V32.1907C26.4461 32.1907 28.6712 34.2764 31.4142 34.2764C34.1633 34.2764 34.8228 32.1907 34.8228 32.1907V28.4929L26.4461 25.0105Z" fill="#F5C8A4"/>
<path d="M26.4461 25.0105V26.5425C29.9164 31.5385 33.4421 31.7354 34.8228 31.5816V28.4929L26.4461 25.0105Z" fill="#ED875B"/>
<path d="M38.5882 14.5104V22.8844C38.5882 24.6437 37.8881 26.3308 36.6419 27.5747L36.1047 28.111C35.2425 28.9716 34.0732 29.455 32.854 29.455C32.0293 29.455 31.2199 29.2337 30.5105 28.8141L27.0917 26.7921C25.6224 25.9231 24.7213 24.3448 24.7213 22.64C24.7213 22.64 22.9956 23.7129 21.9662 21.9827C20.9367 20.2525 22.5111 18.8321 23.6314 18.8925C24.7516 18.953 25.993 21.2801 25.993 21.2801V17.049C25.993 17.049 27.3554 16.9281 29.3234 17.5023C31.2915 18.0765 36.7111 18.137 38.5882 14.5104Z" fill="#F5C8A4"/>
<path d="M23.0446 20.1581C23.484 19.7195 24.7197 21.1572 23.5023 21.7846" stroke="#ED875B" stroke-width="0.424749" stroke-linecap="round" stroke-linejoin="round"/>
<path d="M34.7457 20.5594L35.6049 22.8014C35.7027 23.0566 35.5538 23.3395 35.2879 23.4038L34.5809 23.5749" stroke="#ED875B" stroke-width="0.424749" stroke-linecap="round" stroke-linejoin="round"/>
<path d="M30.7156 21.2178C30.7156 21.5307 30.9697 21.7843 31.2832 21.7843C31.5967 21.7843 31.8508 21.5307 31.8508 21.2178C31.8508 20.9049 31.5967 20.6512 31.2832 20.6512C30.9697 20.6512 30.7156 20.9049 30.7156 21.2178Z" fill="#462E69"/>
<path d="M36.3511 21.2178C36.3511 21.5307 36.6053 21.7843 36.9187 21.7843C37.2322 21.7843 37.4863 21.5307 37.4863 21.2178C37.4863 20.9049 37.2322 20.6512 36.9187 20.6512C36.6053 20.6512 36.3511 20.9049 36.3511 21.2178Z" fill="#462E69"/>
<path d="M32.216 19.1893C32.216 19.1893 31.4837 18.3852 29.9641 19.1893" stroke="#462E69" stroke-width="0.424749" stroke-linecap="round" stroke-linejoin="round"/>
<path d="M35.7948 19.1893C35.7948 19.1893 36.5271 18.3852 38.0467 19.1893" stroke="#462E69" stroke-width="0.424749" stroke-linecap="round" stroke-linejoin="round"/>
<path d="M31.4925 24.7948C31.3687 25.6642 31.9745 26.4691 32.8454 26.5926C33.7164 26.7162 34.5228 26.1115 34.6465 25.2422" fill="white"/>
<path d="M22.7587 8.88204L25.1494 6.57407C25.3239 6.40566 25.3286 6.12797 25.1599 5.95386C24.9911 5.77975 24.7129 5.77512 24.5385 5.94353L22.1477 8.25149C21.9733 8.4199 21.9687 8.69754 22.1374 8.8717C22.3061 9.04581 22.5842 9.05044 22.7587 8.88204Z" fill="#705295"/>
</g>
<rect x="-0.385714" y="0.385714" width="60.9429" height="60.9429" rx="30.4714" transform="matrix(-1 0 0 1 60.9429 0.00012207)" stroke="#F3F3F3" stroke-width="0.771429"/>
<path d="M44.9958 39.3448H63.7751C64.3427 39.3448 64.7994 39.8019 64.7995 40.3615V60.6993C64.7995 61.259 64.3428 61.7159 63.7751 61.7159H44.9958C44.4281 61.7159 43.9714 61.259 43.9714 60.6993V40.3615C43.9715 39.8019 44.4282 39.3448 44.9958 39.3448Z" fill="white" stroke="#E6E6E6" stroke-width="0.771429"/>
<path d="M62.1815 55.2811L56.1694 44.8402C56.0191 44.5844 55.8046 44.3723 55.5472 44.2249C55.2897 44.0775 54.9982 44 54.7016 44C54.4049 44 54.1134 44.0775 53.8559 44.2249C53.5985 44.3723 53.384 44.5844 53.2338 44.8402L47.2216 55.2811C47.0771 55.5285 47.0009 55.8099 47.0009 56.0965C47.0009 56.383 47.0771 56.6644 47.2216 56.9119C47.3699 57.1692 47.5841 57.3825 47.842 57.5297C48.0999 57.677 48.3924 57.753 48.6894 57.7499H60.7137C61.0105 57.7527 61.3027 57.6766 61.5603 57.5294C61.818 57.3821 62.0319 57.169 62.1801 56.9119C62.3249 56.6646 62.4013 56.3832 62.4015 56.0967C62.4018 55.8101 62.3258 55.5287 62.1815 55.2811ZM54.1516 49.5C54.1516 49.3541 54.2095 49.2142 54.3127 49.1111C54.4158 49.0079 54.5557 48.95 54.7016 48.95C54.8474 48.95 54.9873 49.0079 55.0905 49.1111C55.1936 49.2142 55.2516 49.3541 55.2516 49.5V52.25C55.2516 52.3958 55.1936 52.5357 55.0905 52.6389C54.9873 52.742 54.8474 52.8 54.7016 52.8C54.5557 52.8 54.4158 52.742 54.3127 52.6389C54.2095 52.5357 54.1516 52.3958 54.1516 52.25V49.5ZM54.7016 55.5499C54.5384 55.5499 54.3789 55.5015 54.2432 55.4109C54.1076 55.3202 54.0018 55.1914 53.9394 55.0406C53.8769 54.8899 53.8606 54.724 53.8924 54.564C53.9243 54.404 54.0028 54.257 54.1182 54.1416C54.2336 54.0262 54.3806 53.9476 54.5406 53.9158C54.7006 53.884 54.8665 53.9003 55.0173 53.9627C55.168 54.0252 55.2969 54.1309 55.3875 54.2666C55.4782 54.4023 55.5266 54.5618 55.5266 54.7249C55.5266 54.9437 55.4396 55.1536 55.2849 55.3083C55.1302 55.463 54.9204 55.5499 54.7016 55.5499Z" fill="#FF0000"/>
<defs>
<clipPath id="clip0_766_5810">
<rect width="61.7143" height="61.7143" rx="30.8571" transform="matrix(-1 0 0 1 61.7143 0.00012207)" fill="white"/>
</clipPath>
</defs>
</svg>
