<svg width="15" height="16" viewBox="0 0 15 16" fill="none" xmlns="http://www.w3.org/2000/svg">
<path d="M7.5 5.12192L6.50684 4.06255L6.15527 3.68755C5.51953 3.00942 4.61719 2.70005 3.73242 2.85942C2.39062 3.09692 1.40625 4.33442 1.40625 5.78442V5.96567C1.40625 6.71254 1.65234 7.4313 2.09473 8.00005H3.5918C3.78223 8.00005 3.95215 7.87817 4.02539 7.6938L4.95703 5.30942C5.03027 5.12505 5.19727 5.00317 5.38184 5.00317C5.56641 5.00317 5.73926 5.11567 5.81543 5.29692L7.52051 9.33755L8.95312 6.27817C9.03223 6.10942 9.19629 6.00317 9.37207 6.00317C9.54785 6.00317 9.71191 6.10942 9.79102 6.27817L10.4707 7.72505C10.5498 7.8938 10.7109 8.00005 10.8896 8.00005H12.9023C13.3447 7.4313 13.5908 6.71254 13.5908 5.96567V5.78442C13.5908 4.33442 12.6064 3.09692 11.2676 2.85942C10.3828 2.70317 9.47754 3.00942 8.84473 3.68755L8.49316 4.06255L7.5 5.12192ZM13.3594 9.00005H11.9355H10.8926C10.3594 9.00005 9.87305 8.67817 9.63574 8.17192L9.375 7.6188L7.91894 10.725C7.83691 10.8969 7.66992 11.0063 7.49121 11C7.3125 10.9938 7.14844 10.8813 7.07227 10.7063L5.4082 6.7563L4.89258 8.07817C4.67285 8.63442 4.16016 9.00005 3.59473 9.00005H3.06738H1.64062H1.0459C0.375 8.15942 0 7.08442 0 5.96567V5.78442C0 3.60005 1.47949 1.73755 3.49805 1.37817C4.83398 1.14067 6.19336 1.6063 7.14844 2.62505L7.5 3.00005L7.85156 2.62505C8.80664 1.6063 10.166 1.14067 11.502 1.37817C13.5205 1.73755 15 3.60005 15 5.78442V5.96567C15 7.08442 14.625 8.1563 13.9541 9.00005H13.3594ZM2.00977 10H4.06934L7.5 13.4157L10.9307 10H12.9902L8.31152 14.6594C8.0918 14.8782 7.80176 15 7.5 15C7.19824 15 6.9082 14.8782 6.68848 14.6594L2.00977 10Z" fill="#705295"/>
</svg>
