<svg width="52" height="50" viewBox="0 0 52 50" fill="none" xmlns="http://www.w3.org/2000/svg">
<g filter="url(#filter0_d_122_2991)">
<path d="M33.2912 40.0871V30.2881C29.7279 26.7248 21.7105 32.9605 18.1472 36.5238V45.432H27.9463C32.2222 44.7194 33.2912 41.5718 33.2912 40.0871Z" fill="#9D86B9"/>
<path d="M27.0554 21.3796C21.7105 25.8337 19.038 31.4757 18.1472 34.7421C25.9864 22.6269 36.2606 21.9736 40.4178 23.1613C29.0152 23.874 20.8197 32.3665 18.1472 36.5236C20.9978 33.673 26.4615 31.7726 28.8371 31.1787C31.6877 30.4661 36.5575 30.2879 38.6361 30.2879C47.188 28.8626 49.326 23.1613 49.326 20.4889V15.144C40.0614 13.7187 31.5095 17.6679 27.0554 21.3796Z" fill="#705295"/>
<path d="M23.4921 0H33.2912V14.2531C21.7105 21.3797 21.7105 24.0522 18.1472 30.2879V6.23575C18.1472 1.24715 21.7105 0 23.4921 0Z" fill="#FFD6B9"/>
<path d="M2.11254 30.2876C1.22171 16.0344 13.0993 14.5498 18.1473 15.1437V30.2876H2.11254Z" fill="#FFC79F"/>
</g>
<defs>
<filter id="filter0_d_122_2991" x="-2.3365e-05" y="0" width="51.3911" height="49.5622" filterUnits="userSpaceOnUse" color-interpolation-filters="sRGB">
<feFlood flood-opacity="0" result="BackgroundImageFix"/>
<feColorMatrix in="SourceAlpha" type="matrix" values="0 0 0 0 0 0 0 0 0 0 0 0 0 0 0 0 0 0 127 0" result="hardAlpha"/>
<feOffset dy="2.06509"/>
<feGaussianBlur stdDeviation="1.03254"/>
<feComposite in2="hardAlpha" operator="out"/>
<feColorMatrix type="matrix" values="0 0 0 0 0 0 0 0 0 0 0 0 0 0 0 0 0 0 0.25 0"/>
<feBlend mode="normal" in2="BackgroundImageFix" result="effect1_dropShadow_122_2991"/>
<feBlend mode="normal" in="SourceGraphic" in2="effect1_dropShadow_122_2991" result="shape"/>
</filter>
</defs>
</svg>
