<svg width="28" height="28" viewBox="0 0 28 28" fill="none" xmlns="http://www.w3.org/2000/svg">
<g clip-path="url(#clip0_1229_975)">
<path d="M14.0046 0C8.1597 0 6.45029 0.00603204 6.11802 0.0335999C4.91856 0.133331 4.17218 0.322243 3.35903 0.727189C2.73239 1.03846 2.23816 1.39925 1.75041 1.90502C0.86212 2.82737 0.323758 3.96211 0.128868 5.31097C0.0341211 5.96579 0.00655303 6.09934 0.000954793 9.44412C-0.00119349 10.559 0.000954793 12.0264 0.000954793 13.9945C0.000954793 19.8362 0.00741019 21.5444 0.035412 21.8761C0.132318 23.0436 0.315355 23.7781 0.702978 24.5816C1.44377 26.1195 2.85856 27.2741 4.52534 27.7049C5.10246 27.8535 5.73988 27.9354 6.55818 27.9741C6.90489 27.9892 10.4387 28 13.9746 28C17.5106 28 21.0465 27.9957 21.3846 27.9785C22.3321 27.9339 22.8823 27.86 23.4907 27.7027C25.1682 27.2698 26.5572 26.1325 27.313 24.5729C27.6931 23.7889 27.8859 23.0263 27.9731 21.9198C27.992 21.6786 28 17.8321 28 13.9909C28 10.1489 27.9914 6.30957 27.9724 6.06832C27.8841 4.94392 27.6914 4.18786 27.2991 3.38871C26.9771 2.73453 26.6197 2.24599 26.1007 1.74649C25.1745 0.86161 24.0418 0.3231 22.692 0.128379C22.038 0.0338117 21.9077 0.00580989 18.5612 0H14.0046Z" fill="url(#paint0_radial_1229_975)"/>
<path d="M14.0046 0C8.1597 0 6.45029 0.00603204 6.11802 0.0335999C4.91856 0.133331 4.17218 0.322243 3.35903 0.727189C2.73239 1.03846 2.23816 1.39925 1.75041 1.90502C0.86212 2.82737 0.323758 3.96211 0.128868 5.31097C0.0341211 5.96579 0.00655303 6.09934 0.000954793 9.44412C-0.00119349 10.559 0.000954793 12.0264 0.000954793 13.9945C0.000954793 19.8362 0.00741019 21.5444 0.035412 21.8761C0.132318 23.0436 0.315355 23.7781 0.702978 24.5816C1.44377 26.1195 2.85856 27.2741 4.52534 27.7049C5.10246 27.8535 5.73988 27.9354 6.55818 27.9741C6.90489 27.9892 10.4387 28 13.9746 28C17.5106 28 21.0465 27.9957 21.3846 27.9785C22.3321 27.9339 22.8823 27.86 23.4907 27.7027C25.1682 27.2698 26.5572 26.1325 27.313 24.5729C27.6931 23.7889 27.8859 23.0263 27.9731 21.9198C27.992 21.6786 28 17.8321 28 13.9909C28 10.1489 27.9914 6.30957 27.9724 6.06832C27.8841 4.94392 27.6914 4.18786 27.2991 3.38871C26.9771 2.73453 26.6197 2.24599 26.1007 1.74649C25.1745 0.86161 24.0418 0.3231 22.692 0.128379C22.038 0.0338117 21.9077 0.00580989 18.5612 0H14.0046Z" fill="url(#paint1_radial_1229_975)"/>
<path d="M14.0046 0C8.1597 0 6.45029 0.00603204 6.11802 0.0335999C4.91856 0.133331 4.17218 0.322243 3.35903 0.727189C2.73239 1.03846 2.23816 1.39925 1.75041 1.90502C0.86212 2.82737 0.323758 3.96211 0.128868 5.31097C0.0341211 5.96579 0.00655303 6.09934 0.000954793 9.44412C-0.00119349 10.559 0.000954793 12.0264 0.000954793 13.9945C0.000954793 19.8362 0.00741019 21.5444 0.035412 21.8761C0.132318 23.0436 0.315355 23.7781 0.702978 24.5816C1.44377 26.1195 2.85856 27.2741 4.52534 27.7049C5.10246 27.8535 5.73988 27.9354 6.55818 27.9741C6.90489 27.9892 10.4387 28 13.9746 28C17.5106 28 21.0465 27.9957 21.3846 27.9785C22.3321 27.9339 22.8823 27.86 23.4907 27.7027C25.1682 27.2698 26.5572 26.1325 27.313 24.5729C27.6931 23.7889 27.8859 23.0263 27.9731 21.9198C27.992 21.6786 28 17.8321 28 13.9909C28 10.1489 27.9914 6.30957 27.9724 6.06832C27.8841 4.94392 27.6914 4.18786 27.2991 3.38871C26.9771 2.73453 26.6197 2.24599 26.1007 1.74649C25.1745 0.86161 24.0418 0.3231 22.692 0.128379C22.038 0.0338117 21.9077 0.00580989 18.5612 0H14.0046Z" fill="url(#paint2_radial_1229_975)"/>
<path d="M14.0046 0C8.1597 0 6.45029 0.00603204 6.11802 0.0335999C4.91856 0.133331 4.17218 0.322243 3.35903 0.727189C2.73239 1.03846 2.23816 1.39925 1.75041 1.90502C0.86212 2.82737 0.323758 3.96211 0.128868 5.31097C0.0341211 5.96579 0.00655303 6.09934 0.000954793 9.44412C-0.00119349 10.559 0.000954793 12.0264 0.000954793 13.9945C0.000954793 19.8362 0.00741019 21.5444 0.035412 21.8761C0.132318 23.0436 0.315355 23.7781 0.702978 24.5816C1.44377 26.1195 2.85856 27.2741 4.52534 27.7049C5.10246 27.8535 5.73988 27.9354 6.55818 27.9741C6.90489 27.9892 10.4387 28 13.9746 28C17.5106 28 21.0465 27.9957 21.3846 27.9785C22.3321 27.9339 22.8823 27.86 23.4907 27.7027C25.1682 27.2698 26.5572 26.1325 27.313 24.5729C27.6931 23.7889 27.8859 23.0263 27.9731 21.9198C27.992 21.6786 28 17.8321 28 13.9909C28 10.1489 27.9914 6.30957 27.9724 6.06832C27.8841 4.94392 27.6914 4.18786 27.2991 3.38871C26.9771 2.73453 26.6197 2.24599 26.1007 1.74649C25.1745 0.86161 24.0418 0.3231 22.692 0.128379C22.038 0.0338117 21.9077 0.00580989 18.5612 0H14.0046Z" fill="url(#paint3_radial_1229_975)"/>
<path d="M14.0052 3.59375C11.1779 3.59375 10.8231 3.6061 9.71258 3.6566C8.60429 3.70731 7.84779 3.88265 7.18584 4.13991C6.50113 4.40561 5.9203 4.76104 5.34165 5.33948C4.76256 5.91772 4.40686 6.4981 4.14009 7.18209C3.88199 7.84376 3.70631 8.59992 3.65643 9.70696C3.60677 10.8166 3.59375 11.1714 3.59375 13.9966C3.59375 16.8219 3.60633 17.1754 3.65664 18.285C3.70762 19.3925 3.88308 20.1484 4.1403 20.8099C4.40643 21.4941 4.76212 22.0745 5.34099 22.6527C5.91944 23.2314 6.50026 23.5877 7.18454 23.8534C7.84691 24.1106 8.60364 24.2859 9.71171 24.3367C10.8222 24.3871 11.1768 24.3995 14.0039 24.3995C16.8315 24.3995 17.1852 24.3872 18.2957 24.3367C19.404 24.2859 20.1614 24.1106 20.8237 23.8533C21.5082 23.5877 22.0882 23.2314 22.6666 22.6527C23.2457 22.0745 23.6014 21.4941 23.8682 20.8101C24.1241 20.1484 24.2998 19.3923 24.3519 18.2852C24.4017 17.1756 24.4147 16.8219 24.4147 13.9966C24.4147 11.1714 24.4017 10.8168 24.3519 9.70717C24.2998 8.5997 24.1241 7.84376 23.8682 7.18231C23.6014 6.4981 23.2457 5.91771 22.6666 5.33948C22.0875 4.76082 21.5084 4.40539 20.8231 4.1399C20.1594 3.88265 19.4025 3.70731 18.2942 3.6566C17.1837 3.6061 16.8302 3.59375 14.002 3.59375H14.0052ZM13.0713 5.46844C13.3485 5.46801 13.6578 5.46844 14.0052 5.46844C16.7849 5.46844 17.1143 5.47841 18.212 5.52825C19.227 5.57464 19.7779 5.74411 20.1449 5.8865C20.6307 6.07505 20.9771 6.30045 21.3412 6.66455C21.7056 7.02865 21.9312 7.37542 22.1203 7.86088C22.2628 8.22714 22.4326 8.77763 22.4788 9.79192C22.5287 10.8885 22.5395 11.218 22.5395 13.9942C22.5395 16.7705 22.5287 17.0999 22.4788 18.1966C22.4324 19.2109 22.2628 19.7613 22.1203 20.1276C21.9316 20.6131 21.7056 20.9588 21.3412 21.3226C20.9769 21.6867 20.6309 21.9121 20.1449 22.1007C19.7783 22.2437 19.227 22.4128 18.212 22.4592C17.1145 22.509 16.7849 22.5198 14.0052 22.5198C11.2254 22.5198 10.8959 22.509 9.79847 22.4592C8.78344 22.4123 8.23255 22.2429 7.86535 22.1005C7.37952 21.9119 7.0325 21.6865 6.66813 21.3224C6.30376 20.9583 6.0782 20.6124 5.88907 20.1267C5.74657 19.7605 5.57675 19.21 5.53056 18.1957C5.48067 17.0991 5.47069 16.7697 5.47069 13.9916C5.47069 11.2136 5.48067 10.8859 5.53056 9.78932C5.57698 8.77503 5.74657 8.22455 5.88907 7.85785C6.07776 7.37238 6.30376 7.02562 6.66813 6.66152C7.0325 6.29741 7.37952 6.07202 7.86535 5.88304C8.23233 5.73999 8.78344 5.57095 9.79847 5.52435C10.7588 5.481 11.131 5.46801 13.0713 5.46583L13.0713 5.46844ZM19.5623 7.19574C18.8726 7.19574 18.313 7.75426 18.313 8.44365C18.313 9.13285 18.8726 9.69201 19.5623 9.69201C20.252 9.69201 20.8116 9.13285 20.8116 8.44365C20.8116 7.75447 20.252 7.19532 19.5623 7.19532L19.5623 7.19574ZM14.0052 8.65431C11.0527 8.65431 8.65895 11.0463 8.65895 13.9966C8.65895 16.9469 11.0527 19.3379 14.0052 19.3379C16.9577 19.3379 19.3506 16.9469 19.3506 13.9966C19.3506 11.0463 16.9575 8.65431 14.005 8.65431H14.0052ZM14.0052 10.529C15.9216 10.529 17.4754 12.0814 17.4754 13.9966C17.4754 15.9116 15.9216 17.4643 14.0052 17.4643C12.0886 17.4643 10.535 15.9116 10.535 13.9966C10.535 12.0814 12.0886 10.529 14.0052 10.529Z" fill="white"/>
</g>
<defs>
<radialGradient id="paint0_radial_1229_975" cx="0" cy="0" r="1" gradientTransform="matrix(-17.2187 4.85609 -3.49863 -12.4053 27.0959 13.1239)" gradientUnits="userSpaceOnUse">
<stop stop-color="#FF005F"/>
<stop offset="1" stop-color="#FC01D8"/>
</radialGradient>
<radialGradient id="paint1_radial_1229_975" cx="0" cy="0" r="1" gradientUnits="userSpaceOnUse" gradientTransform="translate(7.43729 30.1566) rotate(-90) scale(22.3501 23.713)">
<stop stop-color="#FFCC00"/>
<stop offset="0.1242" stop-color="#FFCC00"/>
<stop offset="0.5672" stop-color="#FE4A05"/>
<stop offset="0.6942" stop-color="#FF0F3F"/>
<stop offset="1" stop-color="#FE0657" stop-opacity="0"/>
</radialGradient>
<radialGradient id="paint2_radial_1229_975" cx="0" cy="0" r="1" gradientTransform="matrix(4.63909 -7.9933 10.4064 6.0396 14.7075 27.6051)" gradientUnits="userSpaceOnUse">
<stop stop-color="#FFCC00"/>
<stop offset="1" stop-color="#FFCC00" stop-opacity="0"/>
</radialGradient>
<radialGradient id="paint3_radial_1229_975" cx="0" cy="0" r="1" gradientTransform="matrix(-17.0297 4.79528 -1.63333 -5.80213 3.799 1.14015)" gradientUnits="userSpaceOnUse">
<stop stop-color="#780CFF"/>
<stop offset="1" stop-color="#820BFF" stop-opacity="0"/>
</radialGradient>
<clipPath id="clip0_1229_975">
<rect width="28" height="28" fill="white"/>
</clipPath>
</defs>
</svg>
