<svg width="28" height="28" viewBox="0 0 28 28" fill="none" xmlns="http://www.w3.org/2000/svg">
<g clip-path="url(#clip0_1229_982)">
<rect width="28" height="28" rx="2.1" fill="white"/>
<path d="M23.8571 23.8575H19.7084V17.3603C19.7084 15.811 19.6807 13.8165 17.5506 13.8165C15.3898 13.8165 15.0592 15.5046 15.0592 17.2475V23.8571H10.9105V10.4962H14.8932V12.3221H14.949C15.7611 10.9335 17.2711 10.1042 18.8786 10.1638C23.0835 10.1638 23.8588 12.9297 23.8588 16.528L23.8571 23.8575ZM6.22932 8.66984C4.89967 8.67008 3.82157 7.59235 3.82134 6.26266C3.8211 4.93298 4.8988 3.85486 6.22846 3.85462C7.55812 3.85439 8.63621 4.93211 8.63645 6.2618C8.63656 6.90034 8.38302 7.51277 7.9316 7.96436C7.48017 8.41596 6.86785 8.66973 6.22932 8.66984ZM8.30369 23.8575H4.15064V10.4962H8.30369V23.8575ZM25.9254 0.00184369H2.06591C0.938258 -0.0108821 0.0135182 0.892408 -0.000244141 2.02007V25.979C0.013047 27.1072 0.937713 28.0114 2.06591 27.9996H25.9254C27.0558 28.0136 27.9841 27.1095 27.9998 25.979V2.01834C27.9836 0.888452 27.0553 -0.0147868 25.9254 -6.67477e-05" fill="#0A66C2"/>
</g>
<defs>
<clipPath id="clip0_1229_982">
<rect width="28" height="28" rx="2.1" fill="white"/>
</clipPath>
</defs>
</svg>
