<svg width="62" height="65" viewBox="0 0 62 65" fill="none" xmlns="http://www.w3.org/2000/svg">
<path d="M48.6335 52.6414L27.4934 64.4528C26.1872 65.1824 24.5826 65.1824 23.2765 64.4528L2.13634 52.6414C0.81497 51.9035 0 50.5308 0 49.0443V13.3254C0 11.4237 1.32475 9.76631 3.21507 9.30491L24.3552 4.14289C25.0307 3.97782 25.7383 3.97782 26.4155 4.14289L47.5548 9.30491C49.4442 9.76631 50.7698 11.4237 50.7698 13.3254V49.0443C50.7698 50.5308 49.9549 51.9035 48.6335 52.6414Z" fill="#9B86B5"/>
<path opacity="0.2" d="M47.5692 9.30935L45.537 8.82227V54.363L47.5692 53.2402V9.30935Z" fill="white"/>
<path opacity="0.2" d="M45.0239 8.6858L44.2858 8.5127V55.073L45.0239 54.6663V8.6858Z" fill="white"/>
<g style="mix-blend-mode:multiply">
<path opacity="0.6" d="M27.4933 64.4528C26.1872 65.1824 24.5826 65.1824 23.2765 64.4528L2.13633 52.6414C0.81497 51.9035 0 50.5308 0 49.0443V13.3254C0 11.4237 1.32475 9.76631 3.21507 9.30492C4.48022 27.6875 4.42857 51.4888 27.4933 64.4528Z" fill="#705295"/>
</g>
<path d="M27.4972 51.1426C28.6018 51.1426 29.4972 50.2471 29.4972 49.1426V37.9541H40.2599C41.3644 37.9541 42.2599 37.0587 42.2599 35.9541V32.1572C42.2599 31.0527 41.3644 30.1572 40.2599 30.1572H29.4972V18.9717C29.4972 17.8671 28.6018 16.9717 27.4972 16.9717H23.2755C22.1709 16.9717 21.2755 17.8671 21.2755 18.9717V30.1572H10.5099C9.40532 30.1572 8.50989 31.0527 8.50989 32.1572V35.9541C8.50989 37.0587 9.40532 37.9541 10.5099 37.9541H21.2755V49.1426C21.2755 50.2471 22.1709 51.1426 23.2755 51.1426H27.4972Z" fill="#F70000" stroke="white" stroke-width="2"/>
<path d="M55.8563 13.3211L44.9732 25.1664C44.8579 25.2914 44.7062 25.375 44.541 25.4044C44.3758 25.4338 44.2061 25.4076 44.0575 25.3296C43.9089 25.2515 43.7895 25.126 43.7172 24.972C43.6449 24.8179 43.6237 24.6436 43.6569 24.4754L45.1185 17.237L39.5722 15.1009C39.4531 15.0552 39.3471 14.9799 39.2637 14.8819C39.1803 14.7838 39.1221 14.6659 39.0943 14.5388C39.0664 14.4117 39.0698 14.2793 39.1042 14.1535C39.1386 14.0277 39.2028 13.9123 39.2912 13.8177L50.1743 1.97239C50.2896 1.84736 50.4413 1.76382 50.6065 1.73439C50.7716 1.70496 50.9413 1.73123 51.0899 1.80924C51.2385 1.88725 51.358 2.01276 51.4302 2.16683C51.5025 2.3209 51.5237 2.49518 51.4906 2.66336L50.025 9.9097L55.5713 12.0428C55.6895 12.0888 55.7947 12.164 55.8774 12.2617C55.9602 12.3594 56.018 12.4766 56.0458 12.603C56.0736 12.7293 56.0705 12.8609 56.0367 12.9862C56.003 13.1115 55.9397 13.2265 55.8524 13.3211H55.8563Z" fill="#FE9038"/>
<path d="M41.2788 13.7477C41.0873 13.6635 41.0403 13.4133 41.1879 13.2633L47.7796 6.56393C47.8566 6.48562 47.9847 6.56958 47.9432 6.67116L44.5916 14.8659C44.5274 15.023 44.3464 15.0966 44.1918 15.0287L41.2788 13.7477Z" fill="#FE9038"/>
<path d="M53.3512 13.9242C53.5427 14.0084 53.5897 14.2586 53.4421 14.4086L46.8504 21.1079C46.7734 21.1863 46.6453 21.1023 46.6868 21.0007L50.0384 12.806C50.1026 12.6489 50.2836 12.5752 50.4382 12.6432L53.3512 13.9242Z" fill="#FE9038"/>
</svg>
