<svg width="18" height="18" viewBox="0 0 18 18" fill="none" xmlns="http://www.w3.org/2000/svg">
<path d="M15.2175 2.78436C14.5151 2.08205 13.5624 1.6875 12.5692 1.6875C11.5759 1.6875 10.6232 2.08205 9.92084 2.78436L2.78412 9.92038C2.09652 10.6257 1.71449 11.5735 1.72078 12.5584C1.72707 13.5434 2.12117 14.4863 2.81772 15.1827C3.51426 15.8792 4.45716 16.2731 5.44213 16.2793C6.42711 16.2855 7.37486 15.9033 8.08006 15.2156L15.2175 8.0796C15.9185 7.37679 16.3122 6.42464 16.3122 5.43198C16.3122 4.43932 15.9185 3.48717 15.2175 2.78436ZM14.4215 7.28436L10.8532 10.852L7.14841 7.14796L10.7168 3.5796C11.21 3.09776 11.8733 2.8298 12.5628 2.83383C13.2523 2.83786 13.9125 3.11355 14.4 3.60112C14.8876 4.08868 15.1633 4.74881 15.1673 5.43832C15.1713 6.12783 14.9034 6.79113 14.4215 7.28436ZM13.3366 5.78952C13.3889 5.84176 13.4304 5.9038 13.4587 5.97208C13.487 6.04037 13.5016 6.11357 13.5016 6.18749C13.5016 6.26141 13.487 6.33461 13.4587 6.40289C13.4304 6.47118 13.3889 6.53322 13.3366 6.58546L11.6491 8.27296C11.5969 8.32517 11.5348 8.36658 11.4666 8.39483C11.3983 8.42307 11.3251 8.43759 11.2513 8.43755C11.1774 8.43752 11.1042 8.42294 11.036 8.39464C10.9677 8.36633 10.9057 8.32487 10.8535 8.27261C10.8013 8.22034 10.7599 8.15831 10.7317 8.09004C10.7034 8.02178 10.6889 7.94862 10.6889 7.87474C10.689 7.80086 10.7036 7.72772 10.7319 7.65947C10.7602 7.59123 10.8016 7.52924 10.8539 7.47702L12.5414 5.78952C12.6469 5.68411 12.7899 5.6249 12.939 5.6249C13.0881 5.6249 13.2311 5.68411 13.3366 5.78952Z" fill="#666666"/>
</svg>
