<svg width="64" height="64" viewBox="0 0 64 64" fill="none" xmlns="http://www.w3.org/2000/svg">
<g clip-path="url(#clip0_766_6136)">
<path d="M63.9979 24.0851C63.9954 23.7134 63.4909 23.592 63.3179 23.9216C61.6464 27.1091 56.9988 35.3312 51.7155 39.1118C43.1132 45.2677 35.8541 56.6508 38.9923 63.9726C38.9923 63.9728 64.2674 64.5673 63.9979 24.0851Z" fill="#C6BAD5"/>
<path opacity="0.43" d="M62.3064 28.777C62.2743 28.8858 62.2392 28.9731 62.2058 29.0687L62.1006 29.3482L61.8842 29.9043C61.7375 30.2739 61.5848 30.6415 61.4323 31.0088C61.1246 31.7423 60.8079 32.4721 60.4842 33.199C59.8341 34.6515 59.1446 36.0863 58.4335 37.5105C57.7241 38.9359 56.9746 40.3416 56.1956 41.7311C55.4152 43.1197 54.6148 44.4979 53.7688 45.8495C52.0828 48.5551 50.2466 51.1725 48.2311 53.6506C47.2103 54.879 46.1568 56.0815 45.035 57.2209C43.9054 58.3519 42.7266 59.436 41.4733 60.4301C41.4461 60.4518 41.4062 60.4472 41.3845 60.4202C41.3633 60.3939 41.367 60.3558 41.3923 60.3338L41.393 60.3334C42.602 59.2957 43.7524 58.1955 44.8459 57.0417C45.9428 55.8909 46.9711 54.6778 47.9663 53.4401C48.961 52.2015 49.9049 50.9233 50.8194 49.625C51.7333 48.3261 52.5926 46.9903 53.444 45.6499C55.1359 42.9615 56.6821 40.1846 58.1502 37.3686C58.8812 35.9587 59.5836 34.5343 60.2602 33.0977C60.5998 32.38 60.9327 31.6591 61.2565 30.9341L61.7336 29.8431L61.9663 29.2954L62.0796 29.0207C62.1151 28.9302 62.155 28.8333 62.1829 28.7528L62.1876 28.7395C62.1989 28.7071 62.2344 28.6897 62.2671 28.7009C62.2983 28.7117 62.3156 28.7455 62.3064 28.777Z" fill="white"/>
<path d="M53.8258 8.35939C53.7213 8.01928 53.2251 8.04419 53.1573 8.39345C52.5019 11.7683 50.5038 20.5646 46.6996 25.46C40.5056 33.4305 36.9826 45.8316 41.8763 51.6979C41.8763 51.6977 65.2185 45.4108 53.8258 8.35939Z" fill="#FFFAF7"/>
<path opacity="0.43" d="M53.5675 13.1189C53.5681 13.2277 53.5601 13.3171 53.5555 13.4138L53.5361 13.6986L53.4909 14.2673C53.4581 14.646 53.4196 15.0241 53.3808 15.4023C53.3008 16.1582 53.2113 16.9132 53.1149 17.6673C52.919 19.1749 52.6819 20.6773 52.4219 22.1756C52.1642 23.6746 51.8639 25.1662 51.5319 26.651C51.1986 28.1356 50.844 29.6158 50.4403 31.0839C49.639 34.0211 48.6754 36.9178 47.5093 39.7351C46.9111 41.1374 46.2758 42.5251 45.5605 43.8732C44.8357 45.2156 44.0528 46.5283 43.1766 47.7783C43.1573 47.806 43.119 47.8129 43.0908 47.7937C43.0636 47.7749 43.0562 47.7383 43.074 47.7109L43.0745 47.7102C43.8968 46.4316 44.6489 45.1116 45.3335 43.758C46.0223 42.406 46.6313 41.0156 47.2027 39.6117C47.7737 38.2069 48.2874 36.7797 48.7684 35.342C49.2489 33.9038 49.6689 32.4465 50.0809 30.9873C50.8925 28.0647 51.5458 25.1002 52.1172 22.121C52.3995 20.6307 52.6516 19.1345 52.877 17.6341C52.991 16.8842 53.0978 16.1331 53.1954 15.3809L53.3326 14.2515L53.3954 13.6865L53.4235 13.4039C53.4313 13.3114 53.441 13.2117 53.4445 13.1306L53.445 13.1169C53.4463 13.0835 53.4747 13.0574 53.5084 13.059C53.5416 13.0604 53.5672 13.0869 53.5675 13.1189Z" fill="white"/>
<path d="M12.595 11.6213C12.3749 20.4149 11.6614 50.7474 12.0021 61.4962C12.0381 62.635 12.9595 63.549 14.1087 63.5863C19.7927 63.7705 36.1441 64.2377 45.4412 63.8512C47.3776 63.7708 48.9176 62.2165 48.9578 60.2965C49.1511 51.0665 49.5771 25.1058 48.564 13.2133C48.4426 11.7884 47.3139 10.6537 45.8779 10.5113C39.6878 9.89784 23.2467 8.39795 15.2146 8.91429C13.7659 9.00755 12.631 10.1833 12.595 11.6213Z" fill="#424242"/>
<path d="M14.9046 14.3531C14.5941 21.555 13.6148 45.5141 13.9258 54.3737C13.9712 55.6686 15.0012 56.7157 16.3067 56.7913C21.6815 57.1031 35.468 57.7902 43.3517 57.1646C44.7713 57.0519 45.8853 55.9143 45.9619 54.5054C46.3614 47.1579 47.5086 24.8487 47.2106 16.0885C47.163 14.691 46.0705 13.5497 44.665 13.4247C38.8502 12.9074 23.9157 11.6766 17.2162 12.0386C15.9586 12.1065 14.9583 13.1063 14.9046 14.3531Z" fill="#FFFAF7"/>
<path opacity="0.5" d="M26.6423 10.451C26.6423 10.7207 26.8546 10.9433 27.1265 10.9575C28.4691 11.0272 32.2511 11.2243 33.9413 11.3214C34.2747 11.3406 34.5363 11.0437 34.4728 10.7189L34.462 10.6636C34.4188 10.4419 34.2334 10.2752 34.0066 10.2547C32.864 10.1509 29.4167 9.86334 27.1325 9.94403C26.8583 9.95363 26.6423 10.179 26.6423 10.451Z" fill="white"/>
<path d="M41.6804 40.3229L18.8279 39.8881C18.0828 39.8739 17.5218 40.7338 17.5834 41.799C17.6443 42.8534 18.4213 43.1711 19.1516 43.1599L41.5076 43.3373C41.9655 43.3302 42.3738 42.6637 42.4243 41.8424C42.4749 41.0145 42.1441 40.3315 41.6804 40.3229Z" fill="#E2D8E3"/>
<path d="M41.7423 47.2682L18.8898 46.8334C18.1447 46.8193 17.5837 47.6791 17.6453 48.7443C17.7062 49.7987 18.4831 50.1164 19.2135 50.1052L41.5695 50.2826C42.0274 50.2755 42.4357 49.609 42.4862 48.7877C42.5368 47.9601 42.206 47.2771 41.7423 47.2682Z" fill="#E2D8E3"/>
<path d="M31.9307 41.2726L19.5288 41.1448C19.1245 41.1407 18.8204 41.3713 18.8543 41.6575C18.8878 41.9407 19.3097 42.0264 19.706 42.0239L31.8385 42.0822C32.0869 42.0806 32.3084 41.9016 32.3351 41.6811C32.3621 41.4589 32.1824 41.2753 31.9307 41.2726Z" fill="#705295"/>
<path d="M11.4649 33.7397C11.4649 33.7397 10.7934 34.0634 10.6697 34.4353C10.5705 34.7336 9.82796 34.7722 9.75461 35.3589C9.71678 35.6618 9.49048 35.9045 9.18598 35.9507C8.4275 36.0659 7.25864 36.4561 7.07155 37.761C6.92876 38.7569 7.44134 39.1347 7.97905 39.2655C8.37398 39.3615 8.6365 39.7423 8.55668 40.1372C8.48009 40.5162 8.59428 40.9544 9.25703 41.3009C10.7419 42.0773 12.2247 39.4616 12.2247 39.4616L12.5286 34.8945L11.4649 33.7397Z" fill="#0A1E25"/>
<path d="M19.5447 32.6577C19.5447 32.6577 16.58 37.3043 13.0545 38.2017C13.0545 38.2017 13.7415 40.1405 14.2716 40.3622C14.2716 40.3622 18.6089 36.7763 19.7235 33.3178L19.5447 32.6577Z" fill="url(#paint0_linear_766_6136)"/>
<path d="M5.36128 62.3766L5.26508 63.1592C5.24686 63.3078 5.12898 63.425 4.97881 63.4422C4.72552 63.4707 4.31929 63.5002 3.92159 63.4586C3.74697 63.4403 3.6337 63.2652 3.68699 63.0995C3.78388 62.7974 3.96127 62.3439 4.21687 62.0769H5.09322C5.25539 62.0769 5.38088 62.2172 5.36128 62.3766Z" fill="#0A1E25"/>
<path d="M12.2248 53.2075L12.3726 54.0697C12.3726 54.0697 11.8774 59.0407 11.7892 61.029C11.7754 61.3408 11.8568 61.6489 12.022 61.9145L12.8831 63.3003L10.6944 62.0205L10.6508 61.7559L11.0091 61.2676L10.5396 55.6989C10.512 55.3719 10.5802 55.0436 10.736 54.754L11.1888 53.9113L12.2248 53.2075Z" fill="url(#paint1_linear_766_6136)"/>
<path d="M13.0273 63.5013H12.3288C12.198 63.5013 12.0748 63.4419 11.995 63.3393C11.7772 63.0588 11.326 62.5118 11.1103 62.4977C10.8199 62.4785 10.857 63.5013 10.857 63.5013H10.6942L10.4879 62.2302C10.436 61.9105 10.5966 61.5937 10.8863 61.4437C10.8863 61.4437 10.9528 61.9301 11.3126 62.1454C11.6725 62.3605 12.7775 63.1313 12.7775 63.1313C12.7775 63.1313 12.9129 63.1121 13.0614 63.1388C13.282 63.1779 13.2513 63.5013 13.0273 63.5013Z" fill="#0A1E25"/>
<path d="M9.22678 53.6176C9.22678 53.6176 6.32527 59.0713 5.86391 60.3163C5.40278 61.5616 5.24107 62.6002 5.23484 62.6985C5.22515 62.8521 5.0323 62.9995 4.50035 62.9995C4.22584 62.9995 4.09135 62.8905 4.02561 62.7849C3.96955 62.6949 3.96655 62.5822 4.01384 62.4873C4.18178 62.1509 4.71442 61.0752 4.91166 60.5874C5.14718 60.005 5.65376 57.3655 5.93173 56.4475C6.2097 55.5298 6.52366 54.5342 7.73358 53.6171C7.73358 53.6176 8.56426 52.8114 9.22678 53.6176Z" fill="url(#paint2_linear_766_6136)"/>
<path d="M11.0596 44.6817C11.8081 41.5391 9.91193 39.7617 9.91193 39.7617C11.1082 38.6239 13.2882 38.106 13.2882 38.106C13.2882 38.106 15.3682 39.6127 15.1214 40.7921C14.9768 41.4833 13.6593 44.9325 13.6593 44.9325C13.6593 44.9325 12.4413 45.5039 11.0596 44.6817Z" fill="#FFC79F"/>
<path d="M9.40029 46.2369C9.70478 45.3277 11.0598 44.681 11.0598 44.681C12.4414 45.5032 13.6596 44.932 13.6596 44.932C13.6596 44.932 13.9327 45.9667 13.7442 46.9283C13.5558 47.8899 12.3726 54.0698 12.3726 54.0698C10.5085 54.444 7.64157 53.6934 7.64157 53.6934C8.82889 51.6047 9.09556 47.1462 9.40029 46.2369Z" fill="#705295"/>
<path d="M11.9285 36.0291L11.32 38.7375C11.2616 38.9761 11.4812 38.937 11.7246 38.8915C12.1232 38.817 12.637 38.6636 12.8088 38.3564C12.8263 38.3251 12.8351 38.2897 12.84 38.2543L13.1013 36.3763C13.1221 36.2273 13.0406 36.0826 12.902 36.0218L12.3975 35.8001C12.2033 35.7148 11.9784 35.8246 11.9285 36.0291Z" fill="url(#paint3_linear_766_6136)"/>
<path d="M13.094 33.5598C13.094 33.5598 13.7418 33.9943 14.0202 35.1008C14.2987 36.2073 13.8463 36.6044 13.3824 36.5799C12.9187 36.5557 12.2463 36.4135 11.6638 35.6197C11.0814 34.8261 12.2451 33.0291 13.094 33.5598Z" fill="url(#paint4_linear_766_6136)"/>
<path d="M12.2513 35.173C12.2513 35.173 12.014 33.5874 13.3427 33.83L13.6114 34.107C13.6114 34.107 14.2617 33.3813 13.542 32.8327C12.8223 32.2841 11.8236 32.4247 11.2712 33.4233C10.7187 34.422 10.5182 35.1237 10.9812 35.7442C11.4444 36.3648 11.7927 35.8325 11.7927 35.8325C11.7927 35.8325 11.5803 35.2953 11.7565 35.0649C11.9328 34.8345 12.1602 35.1989 12.1602 35.1989L12.2513 35.173Z" fill="#0A1E25"/>
<path d="M12.0698 35.3089C12.0698 35.3089 11.9526 34.4931 11.5321 34.7262C11.1115 34.9594 11.6836 35.4883 11.9129 35.6682L12.0698 35.3089Z" fill="url(#paint5_linear_766_6136)"/>
<path d="M19.5242 33.6138C19.5332 33.7096 19.1735 33.7759 19.0589 33.3672C19.0903 33.1898 19.1463 32.4129 19.2836 32.2922C20.0148 31.6495 21.3184 30.9263 21.3184 30.9263C21.4642 31.1468 21.273 31.2922 21.273 31.2922L20.6222 31.7274C20.69 31.9503 20.7892 32.1471 20.8003 32.4015C20.8088 32.5942 20.7371 32.7827 20.6079 32.9288C20.4785 33.0755 20.3041 33.2648 20.1468 33.4086C19.8497 33.6806 19.5242 33.6138 19.5242 33.6138Z" fill="url(#paint6_linear_766_6136)"/>
<path d="M19.8776 33.2964L19.7789 33.2564C19.792 33.2244 20.1044 32.4726 20.2555 32.3163C20.3129 32.2568 20.3406 32.2059 20.3381 32.1647C20.3367 32.1423 20.3256 32.1204 20.3044 32.0978L19.7773 32.3771L19.5447 32.738L19.4548 32.6811L19.7023 32.2968L20.3187 31.9702L20.3461 31.9924C20.4084 32.0427 20.4407 32.0968 20.4444 32.1581C20.449 32.2308 20.4123 32.3064 20.3325 32.3892C20.2186 32.5071 19.9655 33.084 19.8776 33.2964Z" fill="url(#paint7_linear_766_6136)"/>
<path d="M9.91193 39.7612C9.91193 39.7612 6.54306 46.6147 5.32321 47.2138C5.32321 47.2138 4.08445 47.342 3.32643 47.5692C3.13566 47.6264 3.14212 47.8947 3.33428 47.9466C3.86231 48.0892 4.73682 48.2085 5.53844 47.7772C5.53844 47.7772 5.10776 48.4168 5.35897 48.6659C5.35897 48.6659 5.93313 47.9907 6.14836 47.7772C6.33798 47.5893 9.78782 43.8627 11.2381 41.6152C11.3553 41.4337 11.2739 40.894 11.1927 40.694C11.0054 40.2341 10.5897 39.4997 9.91193 39.7612Z" fill="url(#paint8_linear_766_6136)"/>
<path d="M30.5623 35.7622C36.1431 35.7622 40.6671 31.2796 40.6671 25.7499C40.6671 20.2202 36.1431 15.7375 30.5623 15.7375C24.9816 15.7375 20.4576 20.2202 20.4576 25.7499C20.4576 31.2796 24.9816 35.7622 30.5623 35.7622Z" fill="#E2D8E3"/>
<path d="M33.8399 22.1453C33.8399 23.8537 32.4422 25.6978 30.7183 25.6978C28.9942 25.6978 27.5967 23.8537 27.5967 22.1453C27.5967 20.437 28.9942 19.2251 30.7183 19.2251C32.4424 19.2251 33.8399 20.437 33.8399 22.1453Z" fill="#FFC79F"/>
<path d="M26.8444 32.2747H34.4648C35.2669 32.2747 35.9771 31.7609 36.2216 31.0041L36.6318 29.7342C36.9319 28.8043 36.4438 27.7977 35.5185 27.4624C32.4172 26.339 29.2105 26.483 25.9256 27.5662C25.0055 27.8695 24.4947 28.845 24.7487 29.7723L25.0645 30.9257C25.2823 31.7218 26.0117 32.2747 26.8444 32.2747Z" fill="#FFC79F"/>
<path d="M21.0796 48.4448C21.0653 48.8896 20.6907 49.2461 20.243 49.2416C19.7945 49.2368 19.4423 48.8717 19.4568 48.426C19.4713 47.9803 19.8469 47.6237 20.2953 47.6292C20.7431 47.6349 21.0942 48 21.0796 48.4448Z" fill="#705295"/>
<path d="M24.1159 48.4794C24.1016 48.9224 23.7302 49.2776 23.2859 49.273C22.8412 49.2684 22.4917 48.9048 22.5062 48.4609C22.5205 48.017 22.8933 47.6618 23.338 47.6673C23.7821 47.673 24.1302 48.0364 24.1159 48.4794Z" fill="#705295"/>
<path d="M27.3708 48.5326C27.3565 48.9774 26.9819 49.334 26.5341 49.3294C26.0857 49.3246 25.7334 48.9596 25.748 48.5139C25.7625 48.0682 26.138 47.7116 26.5865 47.7171C27.0342 47.7228 27.3853 48.0878 27.3708 48.5326Z" fill="#705295"/>
<path d="M33.8087 48.6086C33.7944 49.0515 33.423 49.4067 32.9787 49.4022C32.5339 49.3976 32.1845 49.0339 32.199 48.59C32.2133 48.1462 32.5861 47.791 33.0308 47.7964C33.4749 47.8019 33.823 48.1656 33.8087 48.6086Z" fill="#705295"/>
<path d="M37.0636 48.6616C37.0493 49.1064 36.6747 49.4629 36.2269 49.4584C35.7785 49.4536 35.4262 49.0885 35.4407 48.6428C35.4553 48.1971 35.8308 47.8405 36.2793 47.846C36.727 47.852 37.0781 48.217 37.0636 48.6616Z" fill="#705295"/>
<path d="M30.4071 48.5673C30.3928 49.0103 30.0214 49.3655 29.5771 49.3609C29.1323 49.3563 28.7828 48.9927 28.7974 48.5488C28.8119 48.1049 29.1845 47.7497 29.6292 47.7552C30.0733 47.7609 30.4214 48.1243 30.4071 48.5673Z" fill="#705295"/>
<path d="M2.02677 26.2037C1.99656 26.2048 1.9668 26.189 1.95226 26.1612C1.90428 26.0688 1.85769 25.9742 1.81339 25.8793C1.79517 25.8405 1.81316 25.7945 1.8533 25.7769C1.95065 25.7335 1.96541 25.8418 2.09506 26.0914C2.11489 26.1296 2.09898 26.176 2.05953 26.1954C2.04915 26.2005 2.03785 26.2032 2.02677 26.2037Z" fill="#705295"/>
<path d="M1.45907 24.9689C1.39909 24.7787 1.34603 24.5838 1.30151 24.3895C1.29206 24.3479 1.31905 24.3065 1.36218 24.2971C1.47983 24.2724 1.43485 24.3627 1.61178 24.9234C1.6247 24.9643 1.60094 25.0075 1.55872 25.0201C1.51582 25.0327 1.47176 25.0091 1.45907 24.9689ZM1.14557 23.4279C1.12643 23.2286 1.11489 23.0249 1.11189 22.8295C1.11005 22.7243 1.27014 22.7262 1.27152 22.8267C1.27475 23.0217 1.28583 23.2183 1.30474 23.4133C1.3089 23.4558 1.2766 23.4935 1.23254 23.4976C1.18825 23.5015 1.14972 23.4699 1.14557 23.4279ZM1.15964 21.8569C1.18248 21.6592 1.21362 21.4599 1.25238 21.2642C1.27245 21.1634 1.42908 21.1929 1.40924 21.293C1.37118 21.4846 1.34073 21.68 1.31835 21.8736C1.30659 21.9758 1.14788 21.9586 1.15964 21.8569ZM1.55595 20.4185C1.51397 20.4052 1.49113 20.3616 1.50497 20.3209C1.5691 20.1319 1.642 19.9426 1.72135 19.7586C1.76218 19.664 1.90959 19.7236 1.86876 19.818C1.79102 19.9982 1.71974 20.1835 1.65676 20.3689C1.64292 20.4098 1.59771 20.432 1.55595 20.4185ZM2.19656 18.9908C2.15826 18.9696 2.14512 18.9223 2.16726 18.8852C2.26991 18.7124 2.38087 18.5417 2.4969 18.3774C2.55688 18.293 2.68837 18.3801 2.62862 18.4647C2.5149 18.6256 2.40625 18.7931 2.30567 18.9623C2.28375 18.9993 2.23485 19.0121 2.19656 18.9908ZM3.1788 17.738C3.15896 17.7387 3.13866 17.7326 3.12274 17.7186C3.08976 17.6903 3.08676 17.6414 3.11605 17.6094C3.25262 17.4603 3.39702 17.3147 3.54466 17.1764C3.57649 17.1467 3.62701 17.1476 3.65769 17.1783C3.68837 17.2091 3.68722 17.258 3.65562 17.2878C3.51075 17.4231 3.36934 17.5657 3.23555 17.712C3.22032 17.7284 3.19979 17.7374 3.1788 17.738ZM4.36196 16.6852C4.33659 16.6862 4.31098 16.6754 4.29483 16.6542C4.26854 16.6199 4.27592 16.5714 4.31121 16.5458C4.47592 16.4267 4.64755 16.3124 4.82148 16.2064C4.85885 16.1835 4.90822 16.1943 4.93152 16.2304C4.95504 16.2665 4.94374 16.3143 4.90637 16.3371C4.73613 16.4411 4.56796 16.5531 4.40648 16.6697C4.39311 16.6798 4.37765 16.6848 4.36196 16.6852ZM5.66577 15.843C5.64732 15.8041 5.66462 15.7582 5.70476 15.7401C5.89092 15.6562 6.08308 15.5783 6.27593 15.5088C6.37535 15.4731 6.43025 15.618 6.33152 15.6537C6.14259 15.7218 5.95436 15.7982 5.77189 15.8804C5.73198 15.8983 5.68423 15.8816 5.66577 15.843ZM11.0284 15.4238C10.4471 15.2756 10.3505 15.3225 10.3724 15.2071C10.3802 15.165 10.422 15.1371 10.4653 15.1447C10.6674 15.1799 10.8706 15.2235 11.0695 15.2743C11.1714 15.3001 11.1308 15.4498 11.0284 15.4238ZM7.17881 15.3202C7.16889 15.2786 7.19565 15.237 7.23856 15.2272C7.43856 15.1819 7.64294 15.1438 7.84617 15.1134C7.95067 15.0978 7.97443 15.2507 7.87017 15.2663C7.67086 15.296 7.47062 15.3335 7.27478 15.3776C7.23118 15.3876 7.18873 15.3614 7.17881 15.3202ZM9.45818 15.1879C8.8591 15.1582 8.77282 15.2233 8.76982 15.1058C8.76798 15.0313 8.85633 15.0224 8.84756 15.0263C9.05356 15.0208 9.26187 15.0233 9.46648 15.0334C9.51054 15.0356 9.54445 15.072 9.54214 15.1145C9.53984 15.1552 9.50477 15.1895 9.45818 15.1879Z" fill="#705295"/>
<path d="M12.2572 15.8471C12.0125 15.7395 11.8821 15.723 11.9232 15.6254C11.9398 15.5859 11.9864 15.5667 12.0272 15.5829C12.2847 15.6842 12.406 15.7166 12.3629 15.8085C12.3499 15.8362 12.2971 15.8645 12.2572 15.8471Z" fill="#705295"/>
<path d="M16.4439 20.232C16.4098 20.2334 16.3775 20.2133 16.3655 20.1806C16.3304 20.0846 16.293 19.9881 16.2543 19.8942C16.2379 19.8544 16.258 19.8094 16.2988 19.7936C16.3396 19.7779 16.3862 19.7968 16.4026 19.8366C16.4423 19.9326 16.4803 20.0309 16.5161 20.1289C16.5309 20.1692 16.5089 20.2135 16.4674 20.2277C16.4598 20.2302 16.4517 20.2316 16.4439 20.232Z" fill="#FFFAF7"/>
<path d="M9.11425 30.382C8.8928 30.3848 8.66881 30.3781 8.44828 30.3628C8.40422 30.3599 8.37123 30.3228 8.37446 30.2801C8.38369 30.1601 8.46466 30.2351 9.11264 30.2273C9.1567 30.2268 9.19292 30.2609 9.19338 30.3036C9.19407 30.3784 9.10549 30.3859 9.11425 30.382ZM10.1025 30.2332C10.0845 30.1144 10.1837 30.1692 10.8111 30.0268C10.8541 30.0168 10.8972 30.0428 10.9071 30.0844C10.917 30.126 10.8905 30.1676 10.8474 30.1775C10.6326 30.2264 10.4125 30.2671 10.1929 30.2984C10.1491 30.3045 10.109 30.2753 10.1025 30.2332ZM7.37676 30.2161C7.16061 30.1715 6.94354 30.1176 6.73178 30.0554C6.68956 30.0431 6.6658 29.9999 6.67872 29.9589C6.71494 29.8437 6.77676 29.9343 7.41044 30.0648C7.45358 30.0737 7.48103 30.1148 7.4718 30.1567C7.46235 30.1983 7.4199 30.2248 7.37676 30.2161ZM11.8564 29.8739C11.8231 29.8753 11.7913 29.8561 11.7786 29.8243C11.7629 29.7845 11.7835 29.7397 11.8245 29.7242C12.0273 29.6485 12.2287 29.5637 12.4236 29.4723C12.4635 29.4536 12.511 29.4696 12.5304 29.508C12.5496 29.5464 12.533 29.5928 12.4933 29.6113C12.2944 29.7048 12.0887 29.7914 11.882 29.8684C11.8737 29.8719 11.8649 29.8735 11.8564 29.8739ZM13.3909 29.1032C13.3641 29.1043 13.3373 29.0922 13.3212 29.0689C13.2967 29.0335 13.3067 28.9852 13.3433 28.9615C13.5235 28.8449 13.7009 28.7194 13.8707 28.5882C13.9053 28.5615 13.9553 28.5669 13.983 28.6003C14.0105 28.6337 14.0047 28.6824 13.9703 28.7091C13.7971 28.8428 13.616 28.9711 13.4321 29.0901C13.4195 29.0986 13.4052 29.1027 13.3909 29.1032ZM14.7143 28.0255C14.6935 28.0264 14.6723 28.0193 14.6559 28.0042C14.6241 27.9747 14.6229 27.9258 14.6534 27.8947C14.8031 27.7427 14.9482 27.5827 15.0843 27.4191C15.112 27.3859 15.1623 27.3804 15.1966 27.4072C15.231 27.4339 15.2363 27.4826 15.2086 27.516C15.0695 27.6831 14.9217 27.8463 14.7689 28.0015C14.7542 28.0168 14.7343 28.0248 14.7143 28.0255ZM15.7643 26.6943C15.7493 26.6949 15.7339 26.6913 15.72 26.6833C15.6822 26.6613 15.6702 26.6138 15.6931 26.577C15.8052 26.3971 15.9108 26.2104 16.007 26.022C16.0266 25.9836 16.0744 25.9679 16.114 25.9868C16.1535 26.0058 16.1699 26.052 16.1503 26.0904C16.052 26.2826 15.9443 26.4732 15.8299 26.6568C15.8153 26.6801 15.7904 26.6933 15.7643 26.6943ZM16.4617 25.1697C16.344 25.1317 16.4391 25.0744 16.5918 24.4639C16.6167 24.3644 16.772 24.4005 16.747 24.5C16.6949 24.7082 16.6329 24.9171 16.5627 25.1205C16.5489 25.161 16.5039 25.1832 16.4617 25.1697ZM16.8421 23.5354C16.7187 23.5237 16.798 23.4483 16.8084 22.8197C16.81 22.7178 16.9699 22.7194 16.968 22.8218C16.9646 23.0362 16.9514 23.2531 16.9293 23.4659C16.9249 23.5091 16.8848 23.5397 16.8421 23.5354ZM16.8356 21.862C16.7946 21.8636 16.7583 21.8344 16.7533 21.7941C16.7274 21.5848 16.6921 21.3747 16.6488 21.1701C16.64 21.1283 16.6677 21.0874 16.7111 21.0787C16.7544 21.0703 16.7964 21.097 16.8054 21.1388C16.8497 21.3477 16.8854 21.5619 16.9117 21.7756C16.9171 21.8179 16.8857 21.8565 16.8419 21.8618C16.84 21.8618 16.8379 21.862 16.8356 21.862Z" fill="#FFFAF7"/>
<path d="M5.71559 29.6814C5.46276 29.5685 5.3435 29.5308 5.39102 29.4409C5.44039 29.3474 5.52389 29.4254 5.78272 29.5408C5.82286 29.5586 5.84016 29.6046 5.8217 29.6434C5.80302 29.6823 5.75573 29.6994 5.71559 29.6814Z" fill="#FFFAF7"/>
<path d="M5.74604 27.5385L6.73405 26.9733C7.20994 27.2103 7.72828 27.3753 8.27292 27.4549C8.73913 28.4338 8.70176 28.5353 8.82448 28.5257L10.1954 28.4183C10.2356 28.4151 10.269 28.3877 10.2792 28.3499L10.5661 27.2752C11.0912 27.112 11.576 26.8683 12.0074 26.5602L13.0746 26.9646C13.1119 26.9787 13.1546 26.9682 13.1807 26.9387L14.0734 25.9241C14.0995 25.8944 14.1034 25.8521 14.0829 25.8185L13.5011 24.8626C13.7465 24.4014 13.9182 23.899 14.0012 23.3714L15.0515 22.9264C15.0884 22.9109 15.111 22.8743 15.1078 22.8354L14.9994 21.5079C14.9961 21.469 14.968 21.4366 14.929 21.427L13.8197 21.1509C13.6522 20.6427 13.4014 20.1735 13.084 19.7563C13.472 18.7378 13.5698 18.696 13.4769 18.6194C12.4358 17.7909 12.43 17.6857 12.3218 17.7477L11.3338 18.3129C10.8579 18.0759 10.3396 17.9109 9.79496 17.8313C9.32898 16.8528 9.36612 16.7509 9.2434 16.7605C7.88307 16.8903 7.8194 16.8206 7.78872 16.936L7.50176 18.0107C6.97673 18.1739 6.49183 18.4176 6.06046 18.7257C5.02239 18.3563 4.96772 18.2558 4.88721 18.3472C4.0217 19.3666 3.92204 19.3641 3.98502 19.4674L4.5668 20.4233C4.32112 20.8846 4.14972 21.387 4.06691 21.9145C3.0729 22.3598 2.95041 22.3294 2.96033 22.4505C3.09136 23.7618 3.01892 23.8293 3.13911 23.8592L4.24846 24.1353C4.41593 24.6434 4.66668 25.1127 4.9841 25.5298C4.59748 26.5449 4.49782 26.5897 4.59125 26.6667C5.63208 27.4951 5.63785 27.6002 5.74604 27.5385Z" fill="#705295"/>
<path d="M7.76376 23.0609C7.52685 22.3829 7.90401 21.6437 8.60436 21.4131C9.30471 21.1827 10.0673 21.5463 10.3043 22.2243C10.5412 22.9022 10.164 23.6414 9.46365 23.8721C8.76307 24.1029 8.00067 23.7386 7.76376 23.0609ZM8.68118 21.6327C8.11255 21.8199 7.79329 22.4209 7.99075 22.9861C8.18521 23.5429 8.81174 23.8419 9.38683 23.6524C9.96215 23.4629 10.2717 22.8558 10.0773 22.299C9.88234 21.7413 9.25534 21.4435 8.68118 21.6327Z" fill="#FFFAF7"/>
<path d="M9.18182 25.9473C8.9839 25.955 8.78551 25.9463 8.59059 25.9214C8.53199 25.9139 8.48909 25.8666 8.48678 25.8113C8.48655 25.8046 8.48678 25.798 8.4877 25.7911C8.49647 25.7276 8.55714 25.683 8.62242 25.6913C8.84664 25.7201 9.07571 25.7253 9.30339 25.7077C11.0178 25.5735 12.3131 24.1466 12.2476 22.497C12.246 22.4549 12.2434 22.4126 12.24 22.3701C12.1002 20.6572 10.5546 19.395 8.79912 19.5319C7.04618 19.6691 5.72391 21.1607 5.86255 22.8693C5.94559 23.8862 6.46186 24.3756 6.46601 24.4821C6.47062 24.5973 6.31745 24.6478 6.24871 24.5543C5.87316 24.0444 5.64202 23.4213 5.61549 22.7516C5.50107 19.8625 9.01343 18.2103 11.2833 20.0828C11.9818 20.659 12.4065 21.4645 12.4787 22.3511C12.4824 22.3971 12.4852 22.4428 12.487 22.4885C12.5202 23.3262 12.2317 24.134 11.6663 24.7767C11.07 25.4542 10.2374 25.867 9.32208 25.9386C9.27548 25.9427 9.22842 25.9454 9.18182 25.9473Z" fill="#FFFAF7"/>
<path d="M15.7604 17.0884C16.0349 17.2023 16.3299 17.2736 16.6354 17.2951L16.9357 17.8516C16.9689 17.9133 17.0105 17.8621 17.7449 17.7584C17.8123 17.7476 17.7784 17.6973 17.8979 17.0944C18.1812 16.9792 18.4388 16.8201 18.6637 16.6269L19.2737 16.81C19.3415 16.8304 19.3339 16.765 19.7793 16.1771C19.7925 16.1591 19.7925 16.1351 19.7798 16.1168L19.4135 15.6C19.5283 15.328 19.6003 15.0356 19.622 14.733C20.1528 14.4375 20.2215 14.4493 20.2107 14.3815C20.0776 13.6429 20.1147 13.6023 20.0469 13.5906L19.4195 13.482C19.3032 13.2013 19.1426 12.946 18.9477 12.7232L19.1325 12.1188C19.153 12.0519 19.087 12.0592 18.4937 11.6178C18.4386 11.5783 18.4287 11.6361 17.9115 11.9803C17.637 11.8665 17.3419 11.7952 17.0365 11.7737L16.7362 11.2171C16.7027 11.1554 16.6614 11.2066 15.9269 11.3104C15.8598 11.3211 15.8942 11.3684 15.774 11.9744C15.4905 12.0896 15.2331 12.2487 15.0081 12.4418L14.3982 12.2587C14.3768 12.2523 14.3537 12.2601 14.3405 12.2779L13.8926 12.8916C13.8794 12.9095 13.8792 12.9337 13.8921 12.952L14.2584 13.4688C14.1435 13.7408 14.0716 14.0331 14.0499 14.3357C13.5191 14.6313 13.4501 14.6194 13.4612 14.6873C13.5943 15.4256 13.5572 15.4663 13.625 15.4781L14.2524 15.5867C14.3687 15.8674 14.5292 16.1227 14.7242 16.3456C14.5597 16.9264 14.5023 16.9666 14.5588 17.0071L15.1782 17.4509C15.2335 17.4907 15.2457 17.4311 15.7604 17.0884Z" fill="#C6BAD5"/>
<path d="M16.1032 14.8472C15.929 14.4458 16.1157 13.9813 16.5207 13.8088C16.9256 13.6362 17.3946 13.8211 17.5687 14.2223C17.7427 14.6225 17.5554 15.0885 17.1514 15.2607C16.747 15.433 16.2771 15.2476 16.1032 14.8472ZM16.3214 14.7541C16.4435 15.0353 16.7736 15.1653 17.0571 15.0444C17.5124 14.8501 17.5053 14.2017 17.043 14.0193C16.5828 13.8378 16.1242 14.3 16.3214 14.7541Z" fill="#FFFAF7"/>
<path d="M13.8098 17.3886C13.7359 17.3118 13.664 17.2309 13.5961 17.1483C13.5685 17.1147 13.5735 17.0654 13.6077 17.0379C13.693 16.9691 13.7341 17.0821 13.9244 17.2802C13.9546 17.3115 13.9535 17.3614 13.9216 17.3913C13.8903 17.421 13.84 17.4201 13.8098 17.3886Z" fill="#705295"/>
<path d="M13.0376 16.256C12.9502 16.0663 12.8732 15.862 12.8127 15.6487C12.7844 15.5484 12.9371 15.5066 12.9654 15.6062C13.1218 16.1582 13.2635 16.2403 13.1428 16.2947C13.1025 16.313 13.0556 16.2954 13.0376 16.256ZM12.7389 14.6874C12.6951 14.688 12.6591 14.6535 12.6582 14.6103C12.6543 14.3952 12.6674 14.1779 12.6976 13.9644C12.7122 13.8615 12.869 13.8832 12.8547 13.9861C12.8257 14.1914 12.813 14.4005 12.8169 14.6074C12.818 14.6835 12.7301 14.6915 12.7389 14.6874ZM13.0517 13.0602C13.0406 13.0606 13.0293 13.0588 13.0183 13.0542C12.9779 13.0375 12.9585 12.9918 12.9754 12.9516C13.0584 12.7525 13.1578 12.5584 13.2709 12.3749C13.2937 12.3379 13.3426 12.3262 13.3797 12.3488C13.4171 12.3715 13.4289 12.4197 13.406 12.4567C13.2972 12.6334 13.2017 12.8202 13.1218 13.0117C13.1096 13.041 13.0817 13.059 13.0517 13.0602ZM13.9906 11.6908C13.9689 11.6917 13.9468 11.6837 13.9304 11.6668C13.8999 11.6357 13.9009 11.5859 13.9322 11.5557C14.0884 11.406 14.258 11.2677 14.436 11.144C14.472 11.1191 14.5214 11.1278 14.5465 11.1635C14.5717 11.1989 14.5629 11.248 14.5269 11.2727C14.3558 11.3916 14.1927 11.5246 14.0425 11.6686C14.028 11.6826 14.0095 11.6899 13.9906 11.6908ZM15.3272 10.7568C15.3119 10.7162 15.3325 10.6709 15.3735 10.6558C15.5777 10.5802 15.7888 10.5198 16.001 10.4766C16.1032 10.4554 16.1357 10.6094 16.0328 10.6304C15.8287 10.6718 15.6257 10.7299 15.4291 10.8028C15.3871 10.8183 15.3422 10.7966 15.3272 10.7568Z" fill="#705295"/>
<path d="M17.3622 10.5851C17.0741 10.5472 16.9724 10.5797 16.9781 10.4736C16.9804 10.4304 17.0169 10.397 17.0616 10.3995C17.1682 10.4053 17.2764 10.4153 17.3832 10.4295C17.4266 10.4352 17.457 10.4747 17.4513 10.5177C17.4455 10.56 17.4065 10.5909 17.3622 10.5851Z" fill="#705295"/>
<path d="M20.156 12.2882C19.9915 12.0494 19.8999 11.9966 19.9835 11.9303C20.0176 11.9031 20.0674 11.9086 20.0949 11.9424C20.1618 12.0249 20.2264 12.1115 20.287 12.1998C20.3117 12.2356 20.3023 12.2846 20.2663 12.3088C20.23 12.3332 20.1807 12.3241 20.156 12.2882Z" fill="#FFFAF7"/>
<path d="M17.3726 18.5614C17.3528 18.4325 17.4947 18.504 18.0407 18.3333C18.1403 18.302 18.1885 18.4517 18.0884 18.483C17.8843 18.5468 17.6739 18.5952 17.4631 18.6272C17.4204 18.6336 17.3793 18.6048 17.3726 18.5614ZM18.9263 18.0279C18.9032 17.9911 18.9147 17.9427 18.9521 17.9198C19.4434 17.6192 19.4767 17.4681 19.5627 17.5676C19.5911 17.6005 19.5874 17.6501 19.5539 17.6782C19.3918 17.8158 19.2174 17.942 19.0351 18.0533C18.9982 18.0761 18.9493 18.0647 18.9263 18.0279ZM20.1438 16.9335C20.0358 16.8583 20.1853 16.8078 20.4393 16.2976C20.4857 16.2046 20.628 16.2739 20.5814 16.3671C20.4866 16.5573 20.3766 16.7413 20.2541 16.9143C20.2289 16.9497 20.1796 16.9584 20.1438 16.9335ZM20.8289 15.4526C20.6995 15.4254 20.8176 15.3205 20.8497 14.7527C20.8555 14.6492 21.0137 14.6576 21.0079 14.7614C20.9959 14.9726 20.9673 15.1847 20.9228 15.392C20.9138 15.4345 20.8718 15.4615 20.8289 15.4526ZM20.7796 13.7621C20.6672 13.2014 20.536 13.1168 20.6603 13.072C20.7014 13.0572 20.7468 13.0782 20.762 13.1189C20.8354 13.3184 20.8937 13.5246 20.9353 13.7317C20.9438 13.7742 20.9159 13.8156 20.873 13.824C20.8298 13.8323 20.7881 13.8046 20.7796 13.7621Z" fill="#FFFAF7"/>
<path d="M16.4174 18.6527C16.3106 18.642 16.2031 18.6269 16.0976 18.6082C16.0545 18.6004 16.0259 18.5597 16.0337 18.517C16.0533 18.4095 16.1583 18.4687 16.4335 18.4966C16.4771 18.501 16.5087 18.5396 16.5043 18.5828C16.4997 18.6265 16.46 18.6571 16.4174 18.6527Z" fill="#FFFAF7"/>
<path d="M16.7426 16.4645C16.6674 16.4608 16.6222 16.4016 16.6255 16.3404C16.6289 16.2754 16.6854 16.2254 16.7505 16.229C16.8723 16.2354 16.9957 16.229 17.1175 16.2096C17.1417 16.2007 17.7895 16.142 18.2423 15.5234C19.1392 14.2949 18.0834 12.592 16.5706 12.8327C15.7002 12.9712 15.0854 13.7353 15.1193 14.5872C15.1535 15.4453 15.7046 15.6224 15.5073 15.7865C15.4571 15.8284 15.3821 15.822 15.3399 15.7721C15.112 15.5036 14.9616 15.1776 14.9053 14.8293C14.7339 13.7719 15.4624 12.7703 16.533 12.6C17.685 12.4167 18.7597 13.2704 18.8066 14.4485C18.8444 15.3986 18.1646 16.2816 17.1553 16.4421C17.0188 16.4638 16.8799 16.4713 16.7426 16.4645Z" fill="#FFFAF7"/>
</g>
<defs>
<linearGradient id="paint0_linear_766_6136" x1="13.8138" y1="39.5272" x2="21.3419" y2="29.6596" gradientUnits="userSpaceOnUse">
<stop stop-color="#FEBBBA"/>
<stop offset="1" stop-color="#FF928E"/>
</linearGradient>
<linearGradient id="paint1_linear_766_6136" x1="12.5018" y1="69.3786" x2="10.1146" y2="41.2214" gradientUnits="userSpaceOnUse">
<stop stop-color="#FEBBBA"/>
<stop offset="1" stop-color="#FF928E"/>
</linearGradient>
<linearGradient id="paint2_linear_766_6136" x1="7.61142" y1="69.7983" x2="5.22365" y2="41.6336" gradientUnits="userSpaceOnUse">
<stop stop-color="#FEBBBA"/>
<stop offset="1" stop-color="#FF928E"/>
</linearGradient>
<linearGradient id="paint3_linear_766_6136" x1="12.7237" y1="32.5773" x2="11.9484" y2="40.2169" gradientUnits="userSpaceOnUse">
<stop stop-color="#FEBBBA"/>
<stop offset="1" stop-color="#FF928E"/>
</linearGradient>
<linearGradient id="paint4_linear_766_6136" x1="13.5816" y1="37.6416" x2="11.0926" y2="29.9686" gradientUnits="userSpaceOnUse">
<stop stop-color="#FEBBBA"/>
<stop offset="1" stop-color="#FF928E"/>
</linearGradient>
<linearGradient id="paint5_linear_766_6136" x1="12.657" y1="37.9411" x2="10.168" y2="30.2682" gradientUnits="userSpaceOnUse">
<stop stop-color="#FEBBBA"/>
<stop offset="1" stop-color="#FF928E"/>
</linearGradient>
<linearGradient id="paint6_linear_766_6136" x1="14.2894" y1="39.8896" x2="21.8175" y2="30.022" gradientUnits="userSpaceOnUse">
<stop stop-color="#FEBBBA"/>
<stop offset="1" stop-color="#FF928E"/>
</linearGradient>
<linearGradient id="paint7_linear_766_6136" x1="20.0633" y1="31.6747" x2="20.7475" y2="27.0255" gradientUnits="userSpaceOnUse">
<stop stop-color="#FEBBBA"/>
<stop offset="1" stop-color="#FF928E"/>
</linearGradient>
<linearGradient id="paint8_linear_766_6136" x1="3.18675" y1="44.1862" x2="11.2969" y2="44.1862" gradientUnits="userSpaceOnUse">
<stop stop-color="#FEBBBA"/>
<stop offset="1" stop-color="#FF928E"/>
</linearGradient>
<clipPath id="clip0_766_6136">
<rect width="64" height="64" fill="white"/>
</clipPath>
</defs>
</svg>
