<svg width="18" height="18" viewBox="0 0 18 18" fill="none" xmlns="http://www.w3.org/2000/svg">
<path d="M15.1875 2.8125H2.8125C2.51413 2.8125 2.22798 2.93103 2.017 3.142C1.80603 3.35298 1.6875 3.63913 1.6875 3.9375V14.0625C1.6875 14.3609 1.80603 14.647 2.017 14.858C2.22798 15.069 2.51413 15.1875 2.8125 15.1875H15.1875C15.4859 15.1875 15.772 15.069 15.983 14.858C16.194 14.647 16.3125 14.3609 16.3125 14.0625V3.9375C16.3125 3.63913 16.194 3.35298 15.983 3.142C15.772 2.93103 15.4859 2.8125 15.1875 2.8125ZM14.625 9.5625H13.2638L11.1797 13.2188C11.1302 13.3045 11.0589 13.3756 10.9731 13.425C10.8873 13.4744 10.79 13.5003 10.691 13.5H10.6587C10.5543 13.4939 10.4536 13.4589 10.3681 13.3987C10.2825 13.3386 10.2154 13.2558 10.1742 13.1597L7.24219 6.3225L5.55469 9.28125C5.50489 9.36751 5.43309 9.43899 5.34661 9.48841C5.26014 9.53782 5.16209 9.56339 5.0625 9.5625H3.375C3.22582 9.5625 3.08274 9.50324 2.97725 9.39775C2.87176 9.29226 2.8125 9.14918 2.8125 9C2.8125 8.85082 2.87176 8.70774 2.97725 8.60225C3.08274 8.49676 3.22582 8.4375 3.375 8.4375H4.73625L6.82383 4.78125C6.87574 4.6904 6.95196 4.61584 7.04393 4.56593C7.13589 4.51603 7.23995 4.49277 7.34441 4.49876C7.44888 4.50475 7.54959 4.53975 7.63525 4.59984C7.72091 4.65993 7.78811 4.74272 7.8293 4.83891L10.7578 11.6775L12.4453 8.72086C12.4948 8.63512 12.5661 8.56397 12.6519 8.51459C12.7377 8.4652 12.835 8.43934 12.934 8.43961H14.6215C14.7707 8.43961 14.9137 8.49887 15.0192 8.60436C15.1247 8.70985 15.184 8.85292 15.184 9.00211C15.184 9.15129 15.1247 9.29437 15.0192 9.39986C14.9137 9.50535 14.7707 9.56461 14.6215 9.56461L14.625 9.5625Z" fill="#666666"/>
</svg>
