<svg width="18" height="18" viewBox="0 0 18 18" fill="none" xmlns="http://www.w3.org/2000/svg">
<path d="M14.625 2.8125H3.375C3.07663 2.8125 2.79048 2.93103 2.5795 3.142C2.36853 3.35298 2.25 3.63913 2.25 3.9375V7.875C2.25 11.5819 4.04438 13.8284 5.54977 15.0602C7.17117 16.3863 8.78414 16.837 8.85445 16.8553C8.95113 16.8816 9.05309 16.8816 9.14977 16.8553C9.22008 16.837 10.8309 16.3863 12.4545 15.0602C13.9556 13.8284 15.75 11.5819 15.75 7.875V3.9375C15.75 3.63913 15.6315 3.35298 15.4205 3.142C15.2095 2.93103 14.9234 2.8125 14.625 2.8125ZM11.25 9.5625H9.5625V11.25C9.5625 11.3992 9.50324 11.5423 9.39775 11.6477C9.29226 11.7532 9.14918 11.8125 9 11.8125C8.85082 11.8125 8.70774 11.7532 8.60225 11.6477C8.49676 11.5423 8.4375 11.3992 8.4375 11.25V9.5625H6.75C6.60082 9.5625 6.45774 9.50324 6.35225 9.39775C6.24676 9.29226 6.1875 9.14919 6.1875 9C6.1875 8.85082 6.24676 8.70774 6.35225 8.60225C6.45774 8.49676 6.60082 8.4375 6.75 8.4375H8.4375V6.75C8.4375 6.60082 8.49676 6.45774 8.60225 6.35225C8.70774 6.24676 8.85082 6.1875 9 6.1875C9.14918 6.1875 9.29226 6.24676 9.39775 6.35225C9.50324 6.45774 9.5625 6.60082 9.5625 6.75V8.4375H11.25C11.3992 8.4375 11.5423 8.49676 11.6477 8.60225C11.7532 8.70774 11.8125 8.85082 11.8125 9C11.8125 9.14919 11.7532 9.29226 11.6477 9.39775C11.5423 9.50324 11.3992 9.5625 11.25 9.5625Z" fill="#848484"/>
</svg>
