<svg width="78" height="69" viewBox="0 0 78 69" fill="none" xmlns="http://www.w3.org/2000/svg">
<g clip-path="url(#clip0_766_5984)">
<path d="M67.6395 9.56025C69.2418 7.94293 69.2418 5.32074 67.6395 3.70342C66.0371 2.0861 63.4393 2.0861 61.8369 3.70342C60.2346 5.32074 60.2346 7.94293 61.8369 9.56025C63.4393 11.1776 66.0371 11.1776 67.6395 9.56025Z" fill="#FFC79F"/>
<path d="M65.161 8.48536V9.05828H64.4394V8.5107C63.9278 8.47952 63.4321 8.34067 63.1251 8.14922L63.5137 7.26159C63.8515 7.46279 64.3014 7.59189 64.6952 7.59189C65.0379 7.59189 65.161 7.51979 65.161 7.39556C65.161 6.94103 63.1816 7.30787 63.1816 5.96036C63.1816 5.37672 63.601 4.88614 64.4399 4.76776V4.20508H65.1614V4.75704C65.5398 4.79309 65.9081 4.8915 66.1996 5.05665L65.8367 5.93941C65.4834 5.75867 65.1513 5.67098 64.839 5.67098C64.4857 5.67098 64.3733 5.77426 64.3733 5.89849C64.3733 6.33207 66.3526 5.97059 66.3526 7.30251C66.3522 7.86032 65.9535 8.34555 65.161 8.48536Z" fill="white"/>
<path d="M57.6054 14.7659C58.9782 14.7659 60.0911 13.6426 60.0911 12.257C60.0911 10.8713 58.9782 9.74805 57.6054 9.74805C56.2326 9.74805 55.1198 10.8713 55.1198 12.257C55.1198 13.6426 56.2326 14.7659 57.6054 14.7659Z" fill="#FFC79F"/>
<path d="M57.8612 13.38V13.7268H57.4244V13.3951C57.1146 13.3761 56.8139 13.2918 56.6281 13.1758L56.8636 12.638C57.0682 12.7598 57.3409 12.8382 57.5794 12.8382C57.7869 12.8382 57.8612 12.7944 57.8612 12.7193C57.8612 12.4441 56.6618 12.6662 56.6618 11.8497C56.6618 11.4961 56.9157 11.1989 57.4239 11.1273V10.7863H57.8608V11.1209C58.09 11.1429 58.313 11.2023 58.4897 11.3027L58.2696 11.8376C58.0557 11.728 57.8545 11.6749 57.6653 11.6749C57.4515 11.6749 57.3834 11.7377 57.3834 11.8127C57.3834 12.0753 58.5828 11.8566 58.5828 12.6633C58.5833 13.0014 58.3415 13.2957 57.8612 13.38Z" fill="white"/>
<path d="M66.1059 14.3062C66.3452 13.2647 65.7027 12.2245 64.6708 11.983C63.6389 11.7414 62.6084 12.39 62.3691 13.4315C62.1298 14.473 62.7723 15.5132 63.8042 15.7547C64.8361 15.9963 65.8666 15.3477 66.1059 14.3062Z" fill="#FFC79F"/>
<path d="M64.4359 14.7327V15.0007H64.0986V14.7449C63.8596 14.7303 63.6275 14.6655 63.4841 14.5759L63.6656 14.1608C63.8234 14.2548 64.0339 14.3152 64.2178 14.3152C64.378 14.3152 64.4354 14.2816 64.4354 14.2237C64.4354 14.0112 63.5102 14.1827 63.5102 13.5528C63.5102 13.28 63.7062 13.0505 64.0986 12.9955V12.7324H64.4359V12.9906C64.6126 13.0077 64.7849 13.0535 64.9215 13.1309L64.7516 13.5436C64.5865 13.4593 64.4311 13.4179 64.2853 13.4179C64.1203 13.4179 64.0677 13.4661 64.0677 13.5241C64.0677 13.7267 64.9929 13.5577 64.9929 14.1803C64.9929 14.4409 64.8061 14.668 64.4359 14.7327Z" fill="white"/>
<path d="M56.518 5.42957H56.2376V7.45863H56.518V5.42957Z" fill="#FFC79F"/>
<path d="M57.3829 6.30261H55.3727V6.58566H57.3829V6.30261Z" fill="#FFC79F"/>
<path d="M59.0201 0H58.5988V3.04774H59.0201V0Z" fill="#FFC79F"/>
<path d="M60.3194 1.31055H57.2999V1.73585H60.3194V1.31055Z" fill="#FFC79F"/>
<path d="M68.4888 15.585H68.1698V17.8927H68.4888V15.585Z" fill="#FFC79F"/>
<path d="M69.4725 16.5781H67.1862V16.9001H69.4725V16.5781Z" fill="#FFC79F"/>
<path opacity="0.4" d="M33.1589 10.2828C34.6125 8.81563 34.6125 6.43681 33.1589 4.9696C31.7053 3.50239 29.3485 3.50239 27.8949 4.9696C26.4413 6.43681 26.4413 8.81563 27.8949 10.2828C29.3485 11.7501 31.7053 11.7501 33.1589 10.2828Z" fill="#E5E5FF"/>
<path opacity="0.4" d="M39.4103 57.1764C41.7238 57.1764 43.5992 55.2834 43.5992 52.9483C43.5992 50.6131 41.7238 48.7201 39.4103 48.7201C37.0968 48.7201 35.2213 50.6131 35.2213 52.9483C35.2213 55.2834 37.0968 57.1764 39.4103 57.1764Z" fill="#E5E5FF"/>
<path d="M31.6525 59.1499C31.6086 59.1499 31.5647 59.1494 31.5208 59.1489L31.5227 59.0271C31.7216 59.0305 31.9233 59.0261 32.1212 59.0145L32.1284 59.1362C31.9711 59.145 31.8109 59.1499 31.6525 59.1499ZM30.9141 59.1163C30.7128 59.0978 30.5101 59.0715 30.3117 59.0378L30.3315 58.918C30.527 58.9511 30.7268 58.9769 30.9247 58.9955L30.9141 59.1163ZM32.7327 59.0773L32.7168 58.9565C32.9137 58.9297 33.1121 58.8951 33.3066 58.8537L33.3317 58.973C33.1343 59.0149 32.933 59.05 32.7327 59.0773ZM29.7171 58.9131C29.5211 58.8644 29.3247 58.8069 29.1331 58.7436L29.1707 58.6276C29.359 58.6905 29.5525 58.7465 29.7456 58.7947L29.7171 58.9131ZM33.9205 58.8225L33.8868 58.7056C34.0774 58.6491 34.2685 58.5843 34.4539 58.5136L34.4964 58.6276C34.3081 58.6997 34.1141 58.765 33.9205 58.8225ZM28.5631 58.5292C28.3768 58.4508 28.1909 58.3641 28.0109 58.272L28.0655 58.1634C28.2426 58.2545 28.4255 58.3397 28.6094 58.4167L28.5631 58.5292ZM35.0558 58.3889L35.0046 58.2788C35.1846 58.1941 35.3632 58.101 35.5365 58.0026L35.5958 58.1088C35.4202 58.2087 35.2382 58.3032 35.0558 58.3889ZM27.48 57.9729C27.3077 57.8672 27.1373 57.7532 26.9732 57.6343L27.0437 57.5354C27.2054 57.6523 27.3733 57.7644 27.5432 57.8686L27.48 57.9729ZM36.1128 57.7878L36.0457 57.6864C36.2112 57.5749 36.3739 57.4555 36.5303 57.3323L36.6046 57.4282C36.4463 57.5534 36.2807 57.6742 36.1128 57.7878ZM26.493 57.2587C26.338 57.1281 26.1865 56.9893 26.0422 56.8475L26.1266 56.7603C26.269 56.9001 26.4182 57.0365 26.5707 57.1656L26.493 57.2587ZM37.0689 57.0322L36.9878 56.942C37.1346 56.8071 37.2779 56.6643 37.4145 56.5187L37.5023 56.602C37.3633 56.7506 37.2176 56.8953 37.0689 57.0322ZM25.6232 56.4032C25.4895 56.2507 25.3602 56.0909 25.2385 55.9287L25.3346 55.8552C25.4543 56.0149 25.5817 56.1723 25.7135 56.3228L25.6232 56.4032ZM37.902 56.1406L37.8083 56.0642C37.9338 55.9078 38.0545 55.7451 38.1674 55.5809L38.2664 55.6501C38.152 55.8167 38.0294 55.9818 37.902 56.1406ZM24.8905 55.426C24.781 55.2545 24.6767 55.0771 24.5812 54.8983L24.6874 54.8404C24.782 55.0162 24.8843 55.1911 24.9924 55.3597L24.8905 55.426ZM38.5936 55.1322L38.4894 55.0708C38.5898 54.8974 38.6853 54.7186 38.7722 54.5383L38.8808 54.5919C38.7925 54.7746 38.6959 54.9563 38.5936 55.1322ZM24.3118 54.3493C24.2293 54.1637 24.1531 53.9722 24.085 53.7813L24.1984 53.7399C24.2655 53.9284 24.3408 54.1164 24.4219 54.2996L24.3118 54.3493ZM39.1269 54.0302L39.015 53.9854C39.0883 53.7988 39.1554 53.6073 39.2148 53.4154L39.3301 53.4515C39.2698 53.6463 39.2013 53.8407 39.1269 54.0302ZM23.9011 53.1967C23.8475 53.0003 23.8007 52.7996 23.7621 52.5999L23.8804 52.5765C23.9185 52.7733 23.9643 52.9711 24.0174 53.1645L23.9011 53.1967ZM39.4885 52.8595L39.3707 52.8323C39.4151 52.6369 39.4527 52.4372 39.4822 52.2389L39.6014 52.2569C39.5715 52.4586 39.5333 52.6613 39.4885 52.8595ZM23.6685 51.9938C23.6448 51.7917 23.6289 51.5861 23.6202 51.3829L23.7409 51.3776C23.7491 51.5783 23.765 51.7805 23.7882 51.9797L23.6685 51.9938ZM39.6695 51.6475L39.5493 51.6382C39.5638 51.4389 39.5715 51.2358 39.5715 51.0346H39.6921C39.6921 51.2392 39.6844 51.4453 39.6695 51.6475ZM39.571 50.9537C39.5691 50.753 39.5594 50.5499 39.543 50.3501L39.6632 50.3399C39.6801 50.5426 39.6897 50.7481 39.6917 50.9523L39.571 50.9537ZM23.7375 50.7735L23.6168 50.7696C23.6231 50.5654 23.6376 50.3599 23.6588 50.1582L23.779 50.1713C23.7578 50.3696 23.7442 50.5723 23.7375 50.7735ZM39.4701 49.7509C39.4383 49.5526 39.3987 49.3534 39.3524 49.1585L39.4696 49.1302C39.5169 49.328 39.557 49.5302 39.5893 49.7314L39.4701 49.7509ZM23.8654 49.5731L23.7467 49.5512C23.7833 49.3504 23.8282 49.1492 23.8799 48.9529L23.9967 48.9841C23.946 49.1775 23.9016 49.3758 23.8654 49.5731ZM39.1902 48.5773C39.1294 48.3868 39.0603 48.1958 38.985 48.0102L39.0965 47.964C39.1728 48.1525 39.2433 48.3464 39.305 48.5398L39.1902 48.5773ZM24.1719 48.4063L24.058 48.3664C24.1246 48.1739 24.1989 47.9815 24.2795 47.7949L24.39 47.8436C24.3104 48.0273 24.237 48.2168 24.1719 48.4063ZM38.7374 47.4602C38.6486 47.2814 38.5516 47.1031 38.4498 46.9312L38.5531 46.8683C38.6568 47.0432 38.7553 47.2239 38.8456 47.4057L38.7374 47.4602ZM24.6502 47.299L24.5435 47.242C24.6381 47.0617 24.7404 46.8834 24.8481 46.7109L24.9499 46.7757C24.8442 46.9453 24.7433 47.1211 24.6502 47.299ZM38.123 46.4255C38.0082 46.2618 37.886 46.1 37.7596 45.9461L37.8527 45.8686C37.9811 46.0255 38.1052 46.1892 38.222 46.3558L38.123 46.4255ZM25.2887 46.2774L25.1917 46.2048C25.3119 46.0411 25.4398 45.8803 25.5721 45.7264L25.6633 45.8063C25.533 45.9573 25.407 46.1161 25.2887 46.2774ZM37.3609 45.495C37.2229 45.3503 37.0781 45.2095 36.9299 45.0755L37.0105 44.9849C37.1606 45.1208 37.3078 45.2641 37.4478 45.4107L37.3609 45.495ZM26.0716 45.3644L25.9867 45.2782C26.13 45.1345 26.2801 44.9946 26.4336 44.8626L26.5118 44.9552C26.3607 45.0853 26.2125 45.2226 26.0716 45.3644ZM36.4694 44.6902C36.3116 44.5684 36.1475 44.4505 35.981 44.3404L36.0471 44.2386C36.2161 44.3501 36.3831 44.4695 36.5428 44.5937L36.4694 44.6902ZM26.9809 44.5801L26.9095 44.4817C27.0722 44.3613 27.2416 44.2459 27.4129 44.1387L27.4766 44.242C27.3082 44.3482 27.1412 44.4617 26.9809 44.5801ZM35.4679 44.0291C35.2937 43.9321 35.1137 43.841 34.9327 43.7577L34.9829 43.6466C35.1663 43.7309 35.3492 43.824 35.5263 43.9224L35.4679 44.0291ZM27.9964 43.9428L27.9404 43.8347C28.1195 43.7407 28.3039 43.652 28.4892 43.5721L28.5365 43.6842C28.3546 43.7631 28.1726 43.8503 27.9964 43.9428ZM34.3786 43.5283C34.1918 43.4591 34.0007 43.3967 33.8095 43.3422L33.8424 43.2248C34.0364 43.2803 34.2309 43.3436 34.4206 43.4138L34.3786 43.5283ZM29.0945 43.4678L29.0554 43.3524C29.246 43.2866 29.442 43.2277 29.6375 43.1765L29.6674 43.2944C29.4753 43.3451 29.2827 43.4035 29.0945 43.4678ZM33.2275 43.1999C33.0334 43.1604 32.8346 43.1278 32.6367 43.103L32.6516 42.9821C32.8524 43.0075 33.0542 43.0406 33.2511 43.0805L33.2275 43.1999ZM30.2524 43.1663L30.2311 43.0464C30.429 43.0109 30.6313 42.9821 30.8325 42.9617L30.8446 43.083C30.6467 43.1034 30.4474 43.1312 30.2524 43.1663ZM32.0406 43.0513C31.8418 43.0416 31.64 43.0396 31.4421 43.0445L31.4387 42.9227C31.64 42.9173 31.8446 42.9198 32.0464 42.9295L32.0406 43.0513Z" fill="#705295"/>
<path d="M25.1198 11.0062L25.1188 10.8844C25.3177 10.8824 25.5175 10.8688 25.713 10.8435L25.7284 10.9643C25.5276 10.9901 25.323 11.0042 25.1198 11.0062ZM24.5107 10.9755C24.3089 10.9531 24.1067 10.918 23.9093 10.8712L23.9368 10.7528C24.1294 10.7982 24.3268 10.8327 24.5237 10.8547L24.5107 10.9755ZM26.3274 10.8493L26.2975 10.7314C26.4896 10.6822 26.6802 10.6208 26.8646 10.5487L26.908 10.6622C26.7193 10.7358 26.5238 10.7986 26.3274 10.8493ZM23.3243 10.6944C23.1342 10.6237 22.9459 10.5409 22.7649 10.4479L22.82 10.3392C22.9966 10.4303 23.18 10.5112 23.3658 10.5799L23.3243 10.6944ZM27.4631 10.405L27.4061 10.2973C27.5804 10.2033 27.7512 10.0976 27.9134 9.98312L27.9824 10.083C27.8164 10.2004 27.6417 10.309 27.4631 10.405ZM22.2393 10.1351C22.0714 10.0211 21.9082 9.89494 21.7547 9.76097L21.8334 9.66889C21.9835 9.79945 22.1428 9.92271 22.3069 10.0338L22.2393 10.1351ZM28.4607 9.70056L28.3801 9.60994C28.5278 9.47695 28.6688 9.33323 28.7996 9.18318L28.8903 9.26357C28.7561 9.41702 28.6118 9.56415 28.4607 9.70056ZM21.3174 9.33128C21.1809 9.18026 21.052 9.01901 20.9342 8.85239L21.0327 8.78175C21.1476 8.94447 21.2735 9.10182 21.4067 9.24944L21.3174 9.33128ZM29.2649 8.77737L29.1654 8.70868C29.2774 8.54353 29.3812 8.37058 29.4724 8.19325L29.5795 8.24976C29.4859 8.43099 29.3797 8.60832 29.2649 8.77737ZM20.6108 8.33063C20.5138 8.15087 20.4265 7.96331 20.3517 7.7738L20.4636 7.72898C20.5365 7.9141 20.6219 8.09728 20.7165 8.27266L20.6108 8.33063ZM29.8291 7.68757L29.7161 7.64469C29.7861 7.45762 29.8455 7.26421 29.8923 7.07032L30.0096 7.09906C29.9613 7.29783 29.9005 7.49562 29.8291 7.68757ZM20.1605 7.18919C20.1089 6.9914 20.0688 6.78825 20.0408 6.58558L20.1605 6.56902C20.1876 6.7673 20.2266 6.96558 20.2773 7.1585L20.1605 7.18919ZM30.1182 6.49302L29.9985 6.47841C30.0217 6.28062 30.0337 6.07893 30.0337 5.87821C30.0337 5.8178 30.0328 5.75691 30.0303 5.6965L30.151 5.69211C30.1534 5.75398 30.1544 5.81634 30.1544 5.87821C30.1544 6.0838 30.1423 6.29036 30.1182 6.49302ZM19.994 5.97175C19.9935 5.94057 19.993 5.90988 19.993 5.8787C19.993 5.70478 20.0017 5.52891 20.0191 5.35694L20.1393 5.36912C20.1224 5.53719 20.1137 5.70868 20.1137 5.8787C20.1137 5.9089 20.1142 5.9396 20.1147 5.9698L19.994 5.97175ZM29.9739 5.09825C29.9435 4.90046 29.9005 4.70316 29.8464 4.51121L29.9628 4.47808C30.0178 4.6749 30.0617 4.87708 30.0931 5.07974L29.9739 5.09825ZM20.2349 4.77526L20.1171 4.74846C20.1615 4.54872 20.2189 4.34947 20.287 4.15655L20.4004 4.19747C20.3338 4.38601 20.2783 4.58039 20.2349 4.77526ZM29.6495 3.94366C29.5733 3.7595 29.4845 3.57828 29.3865 3.40484L29.4912 3.34444C29.5916 3.52225 29.6823 3.70786 29.7605 3.8964L29.6495 3.94366ZM20.634 3.64453L20.5259 3.58997C20.6166 3.40728 20.719 3.22751 20.8309 3.05652L20.9318 3.12375C20.8222 3.29085 20.7223 3.46574 20.634 3.64453ZM29.0617 2.90111C28.9439 2.74083 28.815 2.58591 28.6794 2.44025L28.7672 2.35645C28.9067 2.50504 29.0385 2.66386 29.1591 2.82852L29.0617 2.90111ZM21.289 2.64242L21.1968 2.5635C21.3281 2.4076 21.4695 2.25756 21.6181 2.11871L21.7002 2.20786C21.5554 2.34427 21.4169 2.49042 21.289 2.64242ZM28.245 2.02907C28.093 1.90095 27.9313 1.7811 27.7652 1.67295L27.8309 1.57065C28.0008 1.68172 28.1663 1.80449 28.3222 1.93554L28.245 2.02907ZM22.1606 1.82641L22.0897 1.728C22.2538 1.60767 22.4266 1.49611 22.6037 1.39672L22.6626 1.50293C22.4893 1.59988 22.3209 1.70851 22.1606 1.82641ZM27.2464 1.37675C27.0683 1.28906 26.8834 1.2116 26.6962 1.14583L26.7357 1.03086C26.9274 1.0976 27.117 1.1775 27.2995 1.26714L27.2464 1.37675ZM23.1984 1.24229L23.1525 1.12975C23.3403 1.05229 23.5348 0.985552 23.7302 0.931963L23.7621 1.04937C23.5714 1.1015 23.3818 1.16678 23.1984 1.24229ZM26.1228 0.984091C25.9297 0.942194 25.7313 0.911502 25.5339 0.89299L25.545 0.771684C25.7473 0.790684 25.95 0.821863 26.1479 0.864734L26.1228 0.984091ZM24.3451 0.92563L24.3278 0.805299C24.5276 0.775582 24.7322 0.757556 24.9354 0.752197L24.9388 0.87399C24.74 0.879349 24.5406 0.896887 24.3451 0.92563Z" fill="#FFC79F"/>
<path d="M4.81353 37.2024C3.8487 37.2024 3.0639 36.4103 3.0639 35.4364C3.0639 34.4626 3.8487 33.6704 4.81353 33.6704C5.77836 33.6704 6.56315 34.4626 6.56315 35.4364C6.56315 36.4103 5.77836 37.2024 4.81353 37.2024ZM4.81353 33.914C3.98191 33.914 3.30523 34.597 3.30523 35.4364C3.30523 36.2758 3.98191 36.9588 4.81353 36.9588C5.64514 36.9588 6.32183 36.2758 6.32183 35.4364C6.32183 34.597 5.64563 33.914 4.81353 33.914Z" fill="#705295"/>
<path d="M63.3354 14.5166H13.188V51.9391H63.3354V14.5166Z" fill="white"/>
<path d="M63.4561 52.0607H13.0674V14.3945H63.4561V52.0607ZM13.3087 51.8171H63.2148V14.6381H13.3087V51.8171Z" fill="#FFC79F"/>
<path d="M20.7658 39.7852H16.6632V47.7986H20.7658V39.7852Z" fill="#FFDECF"/>
<path d="M27.2816 35.7881H23.1791V47.7978H27.2816V35.7881Z" fill="#FFDECF"/>
<path d="M33.7975 27.5469H29.6949V47.7986H33.7975V27.5469Z" fill="#FFDECF"/>
<path d="M40.3133 33.3975H36.2107V47.7978H40.3133V33.3975Z" fill="#FFDECF"/>
<path d="M46.8291 27.0469H42.7266V47.7979H46.8291V27.0469Z" fill="#FFDECF"/>
<path d="M53.345 28.1311H49.2424V47.7982H53.345V28.1311Z" fill="#FFDECF"/>
<path d="M59.8609 20.9453H55.7583V47.7982H59.8609V20.9453Z" fill="#FFDECF"/>
<path d="M17.9002 44.6189L17.7906 44.4016L24.6429 40.8828L31.7095 31.1676L38.1795 38.0031L44.8304 31.2894L51.2807 32.0806L57.7545 24.5781L57.9365 24.7384L51.3786 32.3378L44.9178 31.5456L38.1751 38.3514L31.7341 31.5461L24.8036 41.0737L17.9002 44.6189Z" fill="#FFC79F"/>
<path d="M48.3572 19.1357H28.1663V19.3793H48.3572V19.1357Z" fill="#FFC79F"/>
<path d="M41.5421 21.8156H34.9819V22.0591H41.5421V21.8156Z" fill="#FFC79F"/>
<path d="M12.3782 59.0953C12.7715 57.0014 12.5157 54.7731 11.66 52.8444C10.8042 50.9157 9.35335 49.2973 7.59021 48.3044C8.48312 49.4478 8.71335 51.017 8.80409 52.5053C8.89435 53.9941 8.88807 55.5307 9.42285 56.9074C9.95763 58.2841 11.2207 59.4763 12.6021 59.3033L12.3782 59.0953Z" fill="#705295"/>
<path d="M12.4071 59.6226C12.0138 57.5288 12.2696 55.3004 13.1253 53.3717C13.9811 51.443 15.4319 49.8246 17.1951 48.8318C16.3021 49.9752 16.0719 51.5444 15.9812 53.0327C15.8909 54.5215 15.8972 56.058 15.3624 57.4347C14.8272 58.8115 13.5645 60.0036 12.1832 59.8307L12.4071 59.6226Z" fill="#705295"/>
<path d="M10.824 58.6271C9.93398 57.132 9.69121 55.2135 10.1772 53.5181C10.6633 51.8228 11.8694 50.3817 13.3883 49.6812C13.0688 51.8252 14.6471 53.8957 14.3648 56.0456C14.1823 57.4374 13.1465 58.6544 11.8714 58.9769L10.824 58.6271Z" fill="#FFC79F"/>
<path d="M11.4717 61.5043C11.4679 59.3681 12.1957 57.2372 13.5143 55.5252C14.8324 53.8138 16.7336 52.5316 18.8472 51.9285C17.6473 52.8619 17.0802 54.3521 16.6815 55.7932C16.2823 57.2338 15.9792 58.7425 15.1206 59.9799C14.2619 61.2178 12.6508 62.1211 11.187 61.6612L11.4717 61.5043Z" fill="#705295"/>
<path d="M12.1368 61.6186C12.1402 59.4823 11.4717 57.3514 10.2617 55.6395C9.05171 53.9281 7.30642 52.6458 5.36615 52.0427C6.46805 52.9761 6.98835 54.4664 7.35469 55.9075C7.72103 57.348 7.99952 58.8568 8.78769 60.0942C9.57587 61.3321 11.0552 62.2353 12.3989 61.7754L12.1368 61.6186Z" fill="#705295"/>
<path d="M15.6873 68.9077H8.04297L6.7287 60.8738H17.0015L15.6873 68.9077Z" fill="white"/>
<path d="M15.764 68.9996H7.9662L6.62201 60.783H17.1077L15.764 68.9996ZM8.11969 68.8169H15.61L16.8944 60.9656H6.83534L8.11969 68.8169Z" fill="#705295"/>
<path d="M25.8119 8.33093H2.5199V26.7981H25.8119V8.33093Z" fill="white"/>
<path d="M25.9326 26.9196H2.39929V8.20886H25.9326V26.9196ZM2.64062 26.6761H25.6913V8.45245H2.64062V26.6761Z" fill="#705295"/>
<path d="M10.9374 11.3563H5.6842V14.3588H10.9374V11.3563Z" fill="#9B86B5"/>
<path d="M22.7099 11.6462H13.1528V11.7739H22.7099V11.6462Z" fill="#705295"/>
<path d="M22.7099 12.7937H13.1528V12.9213H22.7099V12.7937Z" fill="#9B86B5"/>
<path d="M22.7099 13.9421H13.1528V14.0698H22.7099V13.9421Z" fill="#9B86B5"/>
<path d="M9.25052 20.3502H8.15344V23.7809H9.25052V20.3502Z" fill="#9B86B5"/>
<path d="M10.3476 18.6803H9.25049V23.78H10.3476V18.6803Z" fill="#705295"/>
<path d="M13.3434 18.1031H12.2463V23.7587H13.3434V18.1031Z" fill="#9B86B5"/>
<path d="M14.4405 21.6656H13.3434V23.7585H14.4405V21.6656Z" fill="#705295"/>
<path d="M17.4363 19.858H16.3392V23.7744H17.4363V19.858Z" fill="#9B86B5"/>
<path d="M18.5334 18.9928H17.4363V23.7749H18.5334V18.9928Z" fill="#705295"/>
<path d="M21.5293 21.0192H20.4322V23.7502H21.5293V21.0192Z" fill="#9B86B5"/>
<path d="M22.6263 17.234H21.5292V23.7504H22.6263V17.234Z" fill="#705295"/>
<path d="M22.6264 23.8138H5.73779V16.9354H5.86425V23.6857H22.6264V23.8138Z" fill="#705295"/>
<path d="M70.8823 65.6105L71.6063 68.8779L66.689 68.8682L68.7403 67.0813L68.5897 65.458L70.8823 65.6105Z" fill="#1B1B43"/>
<path d="M68.7969 67.0066L68.6804 67.1465L69.4948 67.8372L69.6113 67.6973L68.7969 67.0066Z" fill="#EBEBFF"/>
<path d="M61.1988 65.5593L61.5608 68.8784H56.282L58.6953 67.0817V65.4375L61.1988 65.5593Z" fill="#1B1B43"/>
<path d="M58.7522 67.0075L58.6357 67.1473L59.4502 67.8381L59.5666 67.6982L58.7522 67.0075Z" fill="#EBEBFF"/>
<path d="M71.7569 66.0061L70.9725 66.0168L68.6447 66.0485L67.3526 66.067C66.0857 61.6469 64.8993 57.315 63.9291 53.2213C63.7385 52.4189 63.5561 51.6243 63.3847 50.8429C62.7466 47.9428 62.237 45.1844 61.9126 42.6277C61.8426 42.0787 61.7813 41.5389 61.7292 41.0094C61.6867 40.5865 61.651 40.17 61.6206 39.7598L67.4125 40.7341C67.4704 41.288 67.5317 41.8434 67.5968 42.4027C68.47 49.9504 69.9604 57.8825 71.7569 66.0061Z" fill="#705295"/>
<path d="M64.336 40.5518L64.1526 42.5394L63.4132 50.5388L63.3857 50.8432L61.9835 66.0065H57.6599C57.7458 57.2349 58.0291 48.897 59.1682 42.7382C59.2512 42.2837 59.341 41.8428 59.4337 41.4131L61.7301 41.0102L64.336 40.5518Z" fill="#705295"/>
<path d="M62.4406 45.1887L62.3221 45.2119L63.9708 53.7776L64.0893 53.7543L62.4406 45.1887Z" fill="#1B1B43"/>
<path opacity="0.3" d="M67.5978 42.4027L64.1527 42.5391L61.9131 42.6277L59.1678 42.7374C59.2508 42.2828 59.3406 41.8419 59.4332 41.4122L61.7297 41.0094C61.6872 40.5865 61.6515 40.17 61.6211 39.7598L67.413 40.7341C67.4709 41.2885 67.5327 41.8439 67.5978 42.4027Z" fill="#1B1B43"/>
<path d="M61.1534 31.4181L63.3722 31.1379L68.0042 32.1176L68.0308 40.5462C68.0317 40.7771 67.9376 40.9983 67.7711 41.1571C67.6181 41.3033 67.4154 41.3846 67.2049 41.3856L59.4337 41.4124L57.936 36.849L59.3782 32.5376L61.1534 31.4181Z" fill="#FFC79F"/>
<path d="M63.921 33.2653C63.4422 33.2653 62.9774 33.0933 62.6159 32.7498L62.6782 32.6831C63.3674 33.3379 64.4505 33.3369 65.2531 32.6807L65.3101 32.7518C64.8911 33.0943 64.3988 33.2653 63.921 33.2653Z" fill="#1B1B43"/>
<path d="M68.8808 32.7577C68.7119 31.989 68.0863 31.4073 67.3131 31.3001L64.3559 30.8899L66.1456 33.9751L66.6987 35.9058L69.4856 35.5092L68.8808 32.7577Z" fill="#FFC79F"/>
<path d="M70.0821 38.8103C70.0121 39.8539 69.3871 40.2987 68.5931 40.4813C67.7654 40.6713 66.7552 40.5773 65.9964 40.5798C64.7488 40.5837 63.5011 40.5286 62.2549 40.4604L59.0877 40.4906L58.7257 39.9216C59.1384 39.3336 60.2543 38.5624 62.2042 39.0291L67.2624 37.8721L66.6987 35.9049L69.486 35.5093L70.0565 38.1074C70.0908 38.3685 70.098 38.6009 70.0821 38.8103Z" fill="#FFE9D9"/>
<path d="M56.4929 36.6853L58.4839 39.2122L58.8459 39.3038L59.1441 36.3623L57.1069 35.3918L56.4929 36.6853Z" fill="#FFE9D9"/>
<path d="M63.1294 30.8694L60.2219 31.3337C59.4169 31.4623 58.7262 31.9821 58.3738 32.7236L57.1069 35.3918L59.1442 36.3622L59.3585 34.2494L63.1294 30.8694Z" fill="#FFC79F"/>
<path opacity="0.2" d="M70.0821 38.8099C70.0121 39.8534 69.3871 40.2982 68.5931 40.4809C68.4348 40.285 68.3383 40.0341 68.3383 39.7599C68.3383 39.1324 68.8426 38.6233 69.4643 38.6233C69.6926 38.6238 69.905 38.693 70.0821 38.8099Z" fill="#FE5B52"/>
<path d="M59.3188 34.2421L58.6825 39.9153L58.7727 39.9256L59.409 34.2524L59.3188 34.2421Z" fill="#1B1B43"/>
<path d="M66.1918 33.9632L66.1051 33.9885L67.2213 37.8862L67.308 37.8609L66.1918 33.9632Z" fill="#1B1B43"/>
<path d="M65.0123 24.2024C64.9968 23.9964 65.0065 23.7849 65.0692 23.5832C65.1305 23.3825 65.2604 23.195 65.4452 23.0844C65.5374 23.0298 65.6392 22.9928 65.744 22.9748C65.8487 22.9562 65.9554 22.9562 66.0601 22.9684C66.2696 22.9933 66.4704 23.0698 66.647 23.1847C66.8232 23.2992 66.9747 23.459 67.0679 23.6529C67.163 23.8453 67.1837 24.0763 67.1244 24.2818C67.066 24.4889 66.9434 24.6672 66.8015 24.8177C66.6567 24.9668 66.4916 25.0925 66.3174 25.2006L66.2981 25.1709C66.4631 25.053 66.6214 24.9249 66.7551 24.7744C66.8888 24.6253 66.9998 24.4524 67.0481 24.2609C67.0969 24.0709 67.0795 23.8658 66.9907 23.6909C66.9048 23.5145 66.7624 23.3689 66.5983 23.2602C66.4342 23.1511 66.245 23.0776 66.0505 23.0532C65.8564 23.0274 65.6542 23.0556 65.4843 23.1506C65.3144 23.2466 65.1918 23.4142 65.1276 23.6027C65.0943 23.6967 65.0736 23.7956 65.061 23.896C65.049 23.9964 65.047 24.0982 65.048 24.2005L65.0123 24.2024Z" fill="#1B1B43"/>
<path d="M65.9998 25.225C66.534 25.225 66.967 24.7879 66.967 24.2488C66.967 23.7096 66.534 23.2725 65.9998 23.2725C65.4656 23.2725 65.0325 23.7096 65.0325 24.2488C65.0325 24.7879 65.4656 25.225 65.9998 25.225Z" fill="#1B1B43"/>
<path d="M66.7324 29.6514L66.2136 28.85L66.4139 29.7367L64.6232 30.2141L61.2591 30.352L61.5304 27.6564C60.6712 27.2302 60.0616 24.4825 63.3234 24.0197C63.9161 23.9359 64.5243 23.9895 65.0745 24.2243C66.7517 24.9405 67.3188 26.839 67.4733 29.4541L66.7324 29.6514Z" fill="#1B1B43"/>
<path d="M63.9369 32.5036C63.211 32.5036 62.6226 31.9097 62.6226 31.177V28.3018H65.2512V31.177C65.2512 31.9097 64.6628 32.5036 63.9369 32.5036Z" fill="#FFE9D9"/>
<path d="M64.4022 29.5096C64.1208 30.3466 63.462 30.7383 62.6221 30.9507V29.7026L64.4022 29.5096Z" fill="#1B1B43"/>
<path d="M65.1952 25.5107L65.1103 29.2357C65.1103 29.2357 63.559 30.3751 62.473 30.0478C62.1086 29.9382 61.861 29.5202 61.6936 29.0003C61.6139 28.7534 61.5526 28.4815 61.5044 28.2087C61.334 27.2285 61.3427 26.2274 61.3427 26.2274L65.1952 25.5107Z" fill="#FFE9D9"/>
<path d="M62.0212 27.8013C62.0212 27.9119 61.9555 28.002 61.874 28.002C61.7929 28.002 61.7267 27.9124 61.7267 27.8013C61.7267 27.6907 61.7924 27.6006 61.874 27.6006C61.9555 27.6006 62.0212 27.6902 62.0212 27.8013Z" fill="#1B1B43"/>
<path d="M62.9909 27.9462C63.0826 27.9462 63.157 27.8422 63.157 27.7138C63.157 27.5855 63.0826 27.4814 62.9909 27.4814C62.8992 27.4814 62.8249 27.5855 62.8249 27.7138C62.8249 27.8422 62.8992 27.9462 62.9909 27.9462Z" fill="#1B1B43"/>
<path d="M63.5324 27.2405C63.5266 27.2975 63.3379 27.3106 63.1284 27.2736C62.919 27.2366 62.7409 27.2473 62.7746 27.107C62.8022 26.992 62.9677 27.0017 63.1767 27.0388C63.3862 27.0758 63.5377 27.1908 63.5324 27.2405Z" fill="#1B1B43"/>
<path d="M61.4855 27.3685C61.4927 27.4246 61.6535 27.4221 61.8296 27.368C62.0058 27.314 62.1578 27.3101 62.1236 27.1732C62.0956 27.0611 61.9556 27.0845 61.7794 27.1386C61.6033 27.1922 61.4787 27.3193 61.4855 27.3685Z" fill="#1B1B43"/>
<path opacity="0.2" d="M64.253 28.1977C64.253 28.4374 64.0605 28.6318 63.823 28.6318C63.5855 28.6318 63.3929 28.4374 63.3929 28.1977C63.3929 27.9581 63.5855 27.7637 63.823 27.7637C64.0605 27.7637 64.253 27.9581 64.253 28.1977Z" fill="#FE5B52"/>
<path opacity="0.2" d="M61.8856 28.6392C61.8856 28.7902 61.8094 28.9217 61.6935 28.9997C61.6139 28.7527 61.5526 28.4808 61.5043 28.208C61.7191 28.2324 61.8856 28.416 61.8856 28.6392Z" fill="#FE5B52"/>
<path d="M62.361 27.9785C62.3659 28.017 62.3567 28.0569 62.3422 28.092C62.3272 28.1271 62.3075 28.1578 62.2877 28.1856C62.2481 28.2411 62.2095 28.2898 62.1993 28.3337C62.194 28.3546 62.1955 28.377 62.2013 28.3989C62.2061 28.4204 62.2182 28.4399 62.2355 28.4589C62.2703 28.4964 62.3253 28.5251 62.3852 28.547L62.3808 28.5943C62.3099 28.6026 62.2326 28.5894 62.166 28.5397C62.1327 28.5154 62.1047 28.4788 62.0898 28.4365C62.0767 28.395 62.071 28.3483 62.083 28.3044C62.1081 28.2172 62.1646 28.1651 62.209 28.1188C62.2553 28.072 62.2944 28.0321 62.3147 27.9756L62.361 27.9785Z" fill="#1B1B43"/>
<path d="M62.2471 28.9668C62.4054 29.4768 63.0841 29.2181 63.1371 28.7383L62.2471 28.9668Z" fill="white"/>
<path d="M61.2137 26.8204C62.3494 26.8185 63.3027 26.7127 64.2004 26.2723C64.2969 27.0201 64.615 27.3811 65.045 27.5819L65.95 26.8209L65.4823 25.2834L63.0237 25.1465L61.123 26.1057L61.2137 26.8204Z" fill="#1B1B43"/>
<path d="M65.7568 28.1264C66.0014 27.7754 66.0036 27.3516 65.7616 27.1797C65.5195 27.0079 65.125 27.1531 64.8804 27.5041C64.6358 27.8551 64.6336 28.279 64.8756 28.4508C65.1176 28.6226 65.5121 28.4774 65.7568 28.1264Z" fill="#FFE9D9"/>
<path d="M65.1054 28.0674C65.088 28.0041 65.0827 27.9373 65.0904 27.8696C65.0977 27.8019 65.1208 27.7322 65.1619 27.6728C65.2034 27.6133 65.2623 27.5666 65.326 27.5398C65.3897 27.512 65.4573 27.5018 65.5224 27.5057L65.5306 27.5524C65.4741 27.5792 65.4215 27.6041 65.3752 27.6343C65.3293 27.665 65.2903 27.7001 65.2598 27.7429C65.229 27.7853 65.2082 27.836 65.1913 27.8901C65.1749 27.9446 65.1643 28.0036 65.1527 28.0654L65.1054 28.0674Z" fill="#1B1B43"/>
<path d="M66.3067 25.186C66.1812 25.1124 66.0741 25.0272 65.9679 24.9434L65.6619 24.6886C65.5615 24.6043 65.4621 24.5215 65.3588 24.4416C65.2555 24.3603 65.1488 24.2847 65.0296 24.2019C65.1744 24.1858 65.3197 24.2209 65.4529 24.2755C65.5861 24.3315 65.7077 24.4104 65.8163 24.502C65.9249 24.5936 66.0215 24.6983 66.1045 24.8119C66.187 24.9259 66.2589 25.0476 66.3067 25.186Z" fill="#FFC79F"/>
<path d="M62.0232 40.4714H58.8256V41.4253H62.0232V40.4714Z" fill="#1B1B43"/>
<path d="M59.8512 41.4254H52.6114L49.4341 34.4978H56.6739L59.8512 41.4254Z" fill="#EBEBFF"/>
<path d="M57.1715 41.1151C57.0016 41.1462 56.9003 41.2865 56.8921 41.4536V40.6985C56.8921 40.5465 56.7844 40.4077 56.6348 40.3901C56.463 40.3702 56.3182 40.5012 56.3105 40.6683V40.3638C56.3105 40.2099 56.2009 40.0696 56.0489 40.054C55.8742 40.0365 55.7269 40.1743 55.7269 40.3468V40.6678C55.7187 40.5007 55.5739 40.3697 55.4026 40.3897C55.253 40.4067 55.1454 40.5456 55.1454 40.698V41.2973C55.1371 41.1443 55.0218 40.9543 54.864 40.9392C54.5396 40.909 54.611 41.4838 54.611 41.4838C54.7056 42.0655 54.876 42.1298 55.2216 42.1547C55.7607 42.1937 56.3066 42.1922 56.8593 42.1542C57.2068 42.1303 57.2613 42.0928 57.4129 41.5706C57.464 41.3469 57.4206 41.0693 57.1715 41.1151Z" fill="#FFE9D9"/>
<path d="M55.1531 40.8856C55.1772 41.0084 55.1859 41.1316 55.1902 41.2554C55.1922 41.3173 55.1922 41.3791 55.1897 41.441C55.1873 41.5029 55.183 41.5647 55.1729 41.6266L55.1376 41.6276C55.1241 41.5662 55.1164 41.5048 55.1106 41.4429C55.1048 41.3811 55.1019 41.3197 55.1005 41.2578C55.0985 41.1341 55.1005 41.0108 55.1178 40.8866L55.1531 40.8856Z" fill="#FFFAF7"/>
<path d="M55.7448 40.6678C55.7694 40.7984 55.7781 40.9295 55.7829 41.0605C55.7849 41.1263 55.7854 41.1916 55.7829 41.2573C55.781 41.3231 55.7762 41.3889 55.766 41.4546L55.7308 41.4556C55.7173 41.3903 55.7091 41.325 55.7033 41.2598C55.6975 41.1945 55.6941 41.1287 55.6927 41.0634C55.6903 40.9324 55.6922 40.8013 55.7091 40.6693L55.7448 40.6678Z" fill="#FFFAF7"/>
<path d="M56.3283 40.6678C56.3544 40.7911 56.365 40.9153 56.3713 41.0396C56.3742 41.1019 56.3751 41.1638 56.3737 41.2261C56.3722 41.2885 56.3689 41.3509 56.3597 41.4137L56.3245 41.4152C56.31 41.3533 56.3013 41.2914 56.2945 41.2296C56.2878 41.1677 56.2839 41.1053 56.2815 41.0435C56.2776 40.9192 56.2776 40.7945 56.2931 40.6693L56.3283 40.6678Z" fill="#FFFAF7"/>
<path d="M57.0837 41.1522C57.0567 41.1872 57.0374 41.2301 57.019 41.2739C57.0012 41.3183 56.9838 41.3631 56.9674 41.4089C56.9505 41.4547 56.9336 41.5005 56.9148 41.5463C56.8964 41.5921 56.8766 41.6379 56.852 41.6827L56.8177 41.6734C56.8197 41.6218 56.8274 41.5716 56.839 41.5224C56.8501 41.4732 56.8651 41.4245 56.8834 41.3767C56.9022 41.3295 56.923 41.2822 56.951 41.2379C56.979 41.1945 57.0123 41.1492 57.0639 41.1229L57.0837 41.1522Z" fill="#FFFAF7"/>
<path d="M72.1136 25.5262V28.8712L70.585 29.9673H72.1136H77.7993V25.5262H72.1136Z" fill="white"/>
<path d="M77.8596 30.0285H70.3963L72.0533 28.8398V25.4657H77.8596V30.0285ZM70.7742 29.9068H77.7389V25.588H72.1739V28.9032L70.7742 29.9068Z" fill="#705295"/>
<path d="M74.8788 28.9271L73.9501 28.0248L74.1176 27.8494L74.8184 28.5305L76.0096 26.326L76.2215 26.4425L74.8788 28.9271Z" fill="#705295"/>
<path d="M78 68.8173H0V68.9999H78V68.8173Z" fill="#1B1B43"/>
</g>
<defs>
<clipPath id="clip0_766_5984">
<rect width="78" height="69" fill="white"/>
</clipPath>
</defs>
</svg>
