<svg width="28" height="28" viewBox="0 0 28 28" fill="none" xmlns="http://www.w3.org/2000/svg">
<g clip-path="url(#clip0_1229_966)">
<path fill-rule="evenodd" clip-rule="evenodd" d="M14 0C21.732 0 28 6.26801 28 14C28 21.732 21.732 28 14 28C6.26801 28 0 21.732 0 14C0 6.26801 6.26801 0 14 0Z" fill="black"/>
<path d="M18.8387 8.82158C19.4723 9.47482 20.2624 9.873 21.0586 10.0542V9.56358C20.3105 9.51059 19.5278 9.27516 18.8387 8.82158ZM14.262 5.58594V16.5563C14.262 17.9935 13.229 18.918 11.973 18.918C11.5564 18.918 11.1607 18.8206 10.8168 18.6407C11.2532 19.1978 11.9422 19.5183 12.6978 19.5183C13.9539 19.5183 14.9867 18.5938 14.9867 17.1554V6.18498H16.9774C16.9219 5.98794 16.8775 5.78795 16.8443 5.58594H14.262ZM12.6288 11.9635V11.4199C12.3773 11.3781 12.1259 11.3644 11.9175 11.3644C9.08372 11.3644 6.71094 13.6387 6.71094 16.4589C6.71094 18.3103 7.61197 19.893 8.9814 20.8298C8.02737 19.8832 7.43571 18.5581 7.43571 17.058C7.43571 14.2426 9.80111 11.9697 12.6288 11.9635Z" fill="#2DCCD3"/>
<path d="M17.1375 16.3756C17.1375 19.8788 14.4577 21.7351 11.9321 21.7351C10.8388 21.7351 9.82313 21.4048 8.98242 20.8303C9.92666 21.7672 11.2258 22.3342 12.6569 22.3342C15.1826 22.3342 17.8623 20.4778 17.8623 16.9747V11.2664C17.6109 11.0963 17.3692 10.8979 17.1375 10.6661V16.3756ZM10.8178 18.6412C10.5097 18.2517 10.326 17.7475 10.326 17.1559C10.326 15.4955 11.6239 14.6179 13.3546 14.8004V12.0196C13.1031 11.9777 12.8517 11.9641 12.6421 11.9641H12.6298V14.2001C10.8992 14.0189 9.60121 14.8952 9.60121 16.5569C9.60121 17.5282 10.098 18.2652 10.8178 18.6412ZM21.0597 10.0547V12.1317C19.9096 12.1317 18.8212 11.9123 17.8623 11.2664C18.979 12.3832 20.3337 12.732 21.7845 12.732V10.1632C21.5403 10.1468 21.2979 10.1105 21.0597 10.0547ZM18.8397 8.82209C18.2271 8.19225 17.7599 7.32447 17.5702 6.18555H16.9785C17.3162 7.41695 18.0114 8.27609 18.8397 8.82209Z" fill="#F1204A"/>
<path d="M11.9309 21.7351C14.4565 21.7351 17.1363 19.8788 17.1363 16.3756V10.6661C17.3681 10.8979 17.6096 11.0963 17.8611 11.2664C18.8201 11.9123 19.9085 12.1317 21.0585 12.1317V10.0547C20.2622 9.87356 19.4721 9.47544 18.8385 8.82209C18.0102 8.27609 17.315 7.41695 16.9773 6.18555H14.9866V17.1559C14.9866 18.5944 13.9536 19.5189 12.6976 19.5189C11.942 19.5189 11.253 19.1984 10.8167 18.6412C10.0968 18.2652 9.60002 17.5282 9.60002 16.5569C9.60002 14.8952 10.898 14.0189 12.6286 14.2001V11.964C9.80094 11.9702 7.43555 14.2432 7.43555 17.0585C7.43555 18.5586 8.02721 19.8837 8.98123 20.8304C9.82189 21.4047 10.8376 21.7351 11.9309 21.7351Z" fill="white"/>
</g>
<defs>
<clipPath id="clip0_1229_966">
<rect width="28" height="28" fill="white"/>
</clipPath>
</defs>
</svg>
