<svg width="16" height="19" viewBox="0 0 16 19" fill="none" xmlns="http://www.w3.org/2000/svg">
<g clip-path="url(#clip0_122_2749)">
<path d="M8 9.5C10.525 9.5 12.5714 7.37363 12.5714 4.75C12.5714 2.12637 10.525 0 8 0C5.475 0 3.42857 2.12637 3.42857 4.75C3.42857 7.37363 5.475 9.5 8 9.5ZM4.57143 11.5484C1.92857 12.3537 0 14.892 0 17.8979C0 18.5064 0.475 19 1.06071 19H14.9393C15.525 19 16 18.5064 16 17.8979C16 14.892 14.0714 12.3537 11.4286 11.5484V13.4336C12.4143 13.6971 13.1429 14.6285 13.1429 15.7344V17.2188C13.1429 17.5453 12.8857 17.8125 12.5714 17.8125H12C11.6857 17.8125 11.4286 17.5453 11.4286 17.2188C11.4286 16.8922 11.6857 16.625 12 16.625V15.7344C12 15.0775 11.4893 14.5469 10.8571 14.5469C10.225 14.5469 9.71429 15.0775 9.71429 15.7344V16.625C10.0286 16.625 10.2857 16.8922 10.2857 17.2188C10.2857 17.5453 10.0286 17.8125 9.71429 17.8125H9.14286C8.82857 17.8125 8.57143 17.5453 8.57143 17.2188V15.7344C8.57143 14.6285 9.3 13.6971 10.2857 13.4336V11.3146C10.0714 11.2924 9.85357 11.2812 9.63214 11.2812H6.36786C6.14643 11.2812 5.92857 11.2924 5.71429 11.3146V13.7416C6.53929 13.9977 7.14286 14.7918 7.14286 15.7344C7.14286 16.8811 6.24643 17.8125 5.14286 17.8125C4.03929 17.8125 3.14286 16.8811 3.14286 15.7344C3.14286 14.7918 3.74643 13.9977 4.57143 13.7416V11.5484ZM5.14286 16.625C5.61786 16.625 6 16.2279 6 15.7344C6 15.2408 5.61786 14.8438 5.14286 14.8438C4.66786 14.8438 4.28571 15.2408 4.28571 15.7344C4.28571 16.2279 4.66786 16.625 5.14286 16.625Z" fill="#0D0D0D"/>
</g>
<defs>
<clipPath id="clip0_122_2749">
<rect width="16" height="19" fill="white"/>
</clipPath>
</defs>
</svg>
