<svg width="24" height="24" viewBox="0 0 24 24" fill="none" xmlns="http://www.w3.org/2000/svg">
<g clip-path="url(#clip0_886_2459)">
<path d="M3.25 5.375V13.0938H6.45833C6.94323 13.0938 7.33333 13.4908 7.33333 13.9844C7.33333 14.4779 6.94323 14.875 6.45833 14.875H3.25V16.6562H6.45833C6.94323 16.6562 7.33333 17.0533 7.33333 17.5469C7.33333 18.0404 6.94323 18.4375 6.45833 18.4375H3.25V19.625C3.25 19.9516 3.51104 20.2188 3.83333 20.2188H10.8333C10.8406 20.2188 10.8479 20.1854 10.8589 20.1854C10.8406 20.3746 10.8333 20.5379 10.8333 20.6975C10.8333 21.165 10.9609 21.6029 11.1797 21.974C11.0667 21.9926 10.95 22 10.8333 22H3.83333C2.54453 22 1.5 20.935 1.5 19.625V5.375C1.5 4.06318 2.54453 3 3.83333 3H10.8333C12.1203 3 13.1667 4.06318 13.1667 5.375V16.6488C12.4339 17.0645 11.8286 17.6805 11.4167 18.4264V5.375C11.4167 5.04695 11.1542 4.78125 10.8333 4.78125H3.83333C3.51104 4.78125 3.25 5.04695 3.25 5.375ZM6.45833 7.15625C6.45833 6.82969 6.72083 6.5625 7.04167 6.5625H7.625C7.94583 6.5625 8.20833 6.82969 8.20833 7.15625V8.04688H9.08333C9.40417 8.04688 9.66667 8.31406 9.66667 8.64062V9.23438C9.66667 9.56094 9.40417 9.82812 9.08333 9.82812H8.20833V10.7188C8.20833 11.0453 7.94583 11.3125 7.625 11.3125H7.04167C6.72083 11.3125 6.45833 11.0453 6.45833 10.7188V9.82812H5.58333C5.2625 9.82812 5 9.56094 5 9.23438V8.64062C5 8.31406 5.2625 8.04688 5.58333 8.04688H6.45833V7.15625ZM20.1667 13.0938C20.1667 14.734 18.8615 16.0625 17.25 16.0625C15.6385 16.0625 14.3333 14.734 14.3333 13.0938C14.3333 11.4535 15.6385 10.125 17.25 10.125C18.8615 10.125 20.1667 11.4535 20.1667 13.0938ZM12 20.7049C12 18.7975 13.5203 17.25 15.3943 17.25H19.1057C20.9797 17.25 22.5 18.7975 22.5 20.7049C22.5 21.4211 21.9312 22 21.2276 22H13.2724C12.5687 22 12 21.4211 12 20.7049Z" fill="#848484"/>
</g>
<defs>
<clipPath id="clip0_886_2459">
<rect width="21" height="19" fill="white" transform="translate(1.5 3)"/>
</clipPath>
</defs>
</svg>
